G75*
%MOIN*%
%OFA0B0*%
%FSLAX24Y24*%
%IPPOS*%
%LPD*%
%AMOC8*
5,1,8,0,0,1.08239X$1,22.5*
%
%ADD10C,0.0000*%
%ADD11C,0.0051*%
%ADD12C,0.0060*%
D10*
X005590Y001519D02*
X005590Y020779D01*
X005592Y020839D01*
X005597Y020900D01*
X005606Y020959D01*
X005619Y021018D01*
X005635Y021077D01*
X005655Y021134D01*
X005678Y021189D01*
X005705Y021244D01*
X005734Y021296D01*
X005767Y021347D01*
X005803Y021396D01*
X005841Y021442D01*
X005883Y021486D01*
X005927Y021528D01*
X005973Y021566D01*
X006022Y021602D01*
X006073Y021635D01*
X006125Y021664D01*
X006180Y021691D01*
X006235Y021714D01*
X006292Y021734D01*
X006351Y021750D01*
X006410Y021763D01*
X006469Y021772D01*
X006530Y021777D01*
X006590Y021779D01*
X043960Y021779D01*
X044020Y021777D01*
X044081Y021772D01*
X044140Y021763D01*
X044199Y021750D01*
X044258Y021734D01*
X044315Y021714D01*
X044370Y021691D01*
X044425Y021664D01*
X044477Y021635D01*
X044528Y021602D01*
X044577Y021566D01*
X044623Y021528D01*
X044667Y021486D01*
X044709Y021442D01*
X044747Y021396D01*
X044783Y021347D01*
X044816Y021296D01*
X044845Y021244D01*
X044872Y021189D01*
X044895Y021134D01*
X044915Y021077D01*
X044931Y021018D01*
X044944Y020959D01*
X044953Y020900D01*
X044958Y020839D01*
X044960Y020779D01*
X044960Y001519D01*
X044958Y001459D01*
X044953Y001398D01*
X044944Y001339D01*
X044931Y001280D01*
X044915Y001221D01*
X044895Y001164D01*
X044872Y001109D01*
X044845Y001054D01*
X044816Y001002D01*
X044783Y000951D01*
X044747Y000902D01*
X044709Y000856D01*
X044667Y000812D01*
X044623Y000770D01*
X044577Y000732D01*
X044528Y000696D01*
X044477Y000663D01*
X044425Y000634D01*
X044370Y000607D01*
X044315Y000584D01*
X044258Y000564D01*
X044199Y000548D01*
X044140Y000535D01*
X044081Y000526D01*
X044020Y000521D01*
X043960Y000519D01*
X006590Y000519D01*
X006530Y000521D01*
X006469Y000526D01*
X006410Y000535D01*
X006351Y000548D01*
X006292Y000564D01*
X006235Y000584D01*
X006180Y000607D01*
X006125Y000634D01*
X006073Y000663D01*
X006022Y000696D01*
X005973Y000732D01*
X005927Y000770D01*
X005883Y000812D01*
X005841Y000856D01*
X005803Y000902D01*
X005767Y000951D01*
X005734Y001002D01*
X005705Y001054D01*
X005678Y001109D01*
X005655Y001164D01*
X005635Y001221D01*
X005619Y001280D01*
X005606Y001339D01*
X005597Y001398D01*
X005592Y001459D01*
X005590Y001519D01*
X006515Y002094D02*
X006517Y002144D01*
X006523Y002194D01*
X006533Y002244D01*
X006546Y002292D01*
X006563Y002340D01*
X006584Y002386D01*
X006608Y002430D01*
X006636Y002472D01*
X006667Y002512D01*
X006701Y002549D01*
X006738Y002584D01*
X006777Y002615D01*
X006818Y002644D01*
X006862Y002669D01*
X006908Y002691D01*
X006955Y002709D01*
X007003Y002723D01*
X007052Y002734D01*
X007102Y002741D01*
X007152Y002744D01*
X007203Y002743D01*
X007253Y002738D01*
X007303Y002729D01*
X007351Y002717D01*
X007399Y002700D01*
X007445Y002680D01*
X007490Y002657D01*
X007533Y002630D01*
X007573Y002600D01*
X007611Y002567D01*
X007646Y002531D01*
X007679Y002492D01*
X007708Y002451D01*
X007734Y002408D01*
X007757Y002363D01*
X007776Y002316D01*
X007791Y002268D01*
X007803Y002219D01*
X007811Y002169D01*
X007815Y002119D01*
X007815Y002069D01*
X007811Y002019D01*
X007803Y001969D01*
X007791Y001920D01*
X007776Y001872D01*
X007757Y001825D01*
X007734Y001780D01*
X007708Y001737D01*
X007679Y001696D01*
X007646Y001657D01*
X007611Y001621D01*
X007573Y001588D01*
X007533Y001558D01*
X007490Y001531D01*
X007445Y001508D01*
X007399Y001488D01*
X007351Y001471D01*
X007303Y001459D01*
X007253Y001450D01*
X007203Y001445D01*
X007152Y001444D01*
X007102Y001447D01*
X007052Y001454D01*
X007003Y001465D01*
X006955Y001479D01*
X006908Y001497D01*
X006862Y001519D01*
X006818Y001544D01*
X006777Y001573D01*
X006738Y001604D01*
X006701Y001639D01*
X006667Y001676D01*
X006636Y001716D01*
X006608Y001758D01*
X006584Y001802D01*
X006563Y001848D01*
X006546Y001896D01*
X006533Y001944D01*
X006523Y001994D01*
X006517Y002044D01*
X006515Y002094D01*
X015196Y002488D02*
X015198Y002538D01*
X015204Y002588D01*
X015214Y002637D01*
X015228Y002685D01*
X015245Y002732D01*
X015266Y002777D01*
X015291Y002821D01*
X015319Y002862D01*
X015351Y002901D01*
X015385Y002938D01*
X015422Y002972D01*
X015462Y003002D01*
X015504Y003029D01*
X015548Y003053D01*
X015594Y003074D01*
X015641Y003090D01*
X015689Y003103D01*
X015739Y003112D01*
X015788Y003117D01*
X015839Y003118D01*
X015889Y003115D01*
X015938Y003108D01*
X015987Y003097D01*
X016035Y003082D01*
X016081Y003064D01*
X016126Y003042D01*
X016169Y003016D01*
X016210Y002987D01*
X016249Y002955D01*
X016285Y002920D01*
X016317Y002882D01*
X016347Y002842D01*
X016374Y002799D01*
X016397Y002755D01*
X016416Y002709D01*
X016432Y002661D01*
X016444Y002612D01*
X016452Y002563D01*
X016456Y002513D01*
X016456Y002463D01*
X016452Y002413D01*
X016444Y002364D01*
X016432Y002315D01*
X016416Y002267D01*
X016397Y002221D01*
X016374Y002177D01*
X016347Y002134D01*
X016317Y002094D01*
X016285Y002056D01*
X016249Y002021D01*
X016210Y001989D01*
X016169Y001960D01*
X016126Y001934D01*
X016081Y001912D01*
X016035Y001894D01*
X015987Y001879D01*
X015938Y001868D01*
X015889Y001861D01*
X015839Y001858D01*
X015788Y001859D01*
X015739Y001864D01*
X015689Y001873D01*
X015641Y001886D01*
X015594Y001902D01*
X015548Y001923D01*
X015504Y001947D01*
X015462Y001974D01*
X015422Y002004D01*
X015385Y002038D01*
X015351Y002075D01*
X015319Y002114D01*
X015291Y002155D01*
X015266Y002199D01*
X015245Y002244D01*
X015228Y002291D01*
X015214Y002339D01*
X015204Y002388D01*
X015198Y002438D01*
X015196Y002488D01*
X019287Y003952D02*
X019289Y003988D01*
X019295Y004024D01*
X019305Y004059D01*
X019318Y004093D01*
X019335Y004125D01*
X019355Y004155D01*
X019379Y004182D01*
X019405Y004207D01*
X019434Y004229D01*
X019465Y004248D01*
X019498Y004263D01*
X019532Y004275D01*
X019568Y004283D01*
X019604Y004287D01*
X019640Y004287D01*
X019676Y004283D01*
X019712Y004275D01*
X019746Y004263D01*
X019779Y004248D01*
X019810Y004229D01*
X019839Y004207D01*
X019865Y004182D01*
X019889Y004155D01*
X019909Y004125D01*
X019926Y004093D01*
X019939Y004059D01*
X019949Y004024D01*
X019955Y003988D01*
X019957Y003952D01*
X019955Y003916D01*
X019949Y003880D01*
X019939Y003845D01*
X019926Y003811D01*
X019909Y003779D01*
X019889Y003749D01*
X019865Y003722D01*
X019839Y003697D01*
X019810Y003675D01*
X019779Y003656D01*
X019746Y003641D01*
X019712Y003629D01*
X019676Y003621D01*
X019640Y003617D01*
X019604Y003617D01*
X019568Y003621D01*
X019532Y003629D01*
X019498Y003641D01*
X019465Y003656D01*
X019434Y003675D01*
X019405Y003697D01*
X019379Y003722D01*
X019355Y003749D01*
X019335Y003779D01*
X019318Y003811D01*
X019305Y003845D01*
X019295Y003880D01*
X019289Y003916D01*
X019287Y003952D01*
X019287Y004740D02*
X019289Y004776D01*
X019295Y004812D01*
X019305Y004847D01*
X019318Y004881D01*
X019335Y004913D01*
X019355Y004943D01*
X019379Y004970D01*
X019405Y004995D01*
X019434Y005017D01*
X019465Y005036D01*
X019498Y005051D01*
X019532Y005063D01*
X019568Y005071D01*
X019604Y005075D01*
X019640Y005075D01*
X019676Y005071D01*
X019712Y005063D01*
X019746Y005051D01*
X019779Y005036D01*
X019810Y005017D01*
X019839Y004995D01*
X019865Y004970D01*
X019889Y004943D01*
X019909Y004913D01*
X019926Y004881D01*
X019939Y004847D01*
X019949Y004812D01*
X019955Y004776D01*
X019957Y004740D01*
X019955Y004704D01*
X019949Y004668D01*
X019939Y004633D01*
X019926Y004599D01*
X019909Y004567D01*
X019889Y004537D01*
X019865Y004510D01*
X019839Y004485D01*
X019810Y004463D01*
X019779Y004444D01*
X019746Y004429D01*
X019712Y004417D01*
X019676Y004409D01*
X019640Y004405D01*
X019604Y004405D01*
X019568Y004409D01*
X019532Y004417D01*
X019498Y004429D01*
X019465Y004444D01*
X019434Y004463D01*
X019405Y004485D01*
X019379Y004510D01*
X019355Y004537D01*
X019335Y004567D01*
X019318Y004599D01*
X019305Y004633D01*
X019295Y004668D01*
X019289Y004704D01*
X019287Y004740D01*
X019287Y005527D02*
X019289Y005563D01*
X019295Y005599D01*
X019305Y005634D01*
X019318Y005668D01*
X019335Y005700D01*
X019355Y005730D01*
X019379Y005757D01*
X019405Y005782D01*
X019434Y005804D01*
X019465Y005823D01*
X019498Y005838D01*
X019532Y005850D01*
X019568Y005858D01*
X019604Y005862D01*
X019640Y005862D01*
X019676Y005858D01*
X019712Y005850D01*
X019746Y005838D01*
X019779Y005823D01*
X019810Y005804D01*
X019839Y005782D01*
X019865Y005757D01*
X019889Y005730D01*
X019909Y005700D01*
X019926Y005668D01*
X019939Y005634D01*
X019949Y005599D01*
X019955Y005563D01*
X019957Y005527D01*
X019955Y005491D01*
X019949Y005455D01*
X019939Y005420D01*
X019926Y005386D01*
X019909Y005354D01*
X019889Y005324D01*
X019865Y005297D01*
X019839Y005272D01*
X019810Y005250D01*
X019779Y005231D01*
X019746Y005216D01*
X019712Y005204D01*
X019676Y005196D01*
X019640Y005192D01*
X019604Y005192D01*
X019568Y005196D01*
X019532Y005204D01*
X019498Y005216D01*
X019465Y005231D01*
X019434Y005250D01*
X019405Y005272D01*
X019379Y005297D01*
X019355Y005324D01*
X019335Y005354D01*
X019318Y005386D01*
X019305Y005420D01*
X019295Y005455D01*
X019289Y005491D01*
X019287Y005527D01*
X019287Y006315D02*
X019289Y006351D01*
X019295Y006387D01*
X019305Y006422D01*
X019318Y006456D01*
X019335Y006488D01*
X019355Y006518D01*
X019379Y006545D01*
X019405Y006570D01*
X019434Y006592D01*
X019465Y006611D01*
X019498Y006626D01*
X019532Y006638D01*
X019568Y006646D01*
X019604Y006650D01*
X019640Y006650D01*
X019676Y006646D01*
X019712Y006638D01*
X019746Y006626D01*
X019779Y006611D01*
X019810Y006592D01*
X019839Y006570D01*
X019865Y006545D01*
X019889Y006518D01*
X019909Y006488D01*
X019926Y006456D01*
X019939Y006422D01*
X019949Y006387D01*
X019955Y006351D01*
X019957Y006315D01*
X019955Y006279D01*
X019949Y006243D01*
X019939Y006208D01*
X019926Y006174D01*
X019909Y006142D01*
X019889Y006112D01*
X019865Y006085D01*
X019839Y006060D01*
X019810Y006038D01*
X019779Y006019D01*
X019746Y006004D01*
X019712Y005992D01*
X019676Y005984D01*
X019640Y005980D01*
X019604Y005980D01*
X019568Y005984D01*
X019532Y005992D01*
X019498Y006004D01*
X019465Y006019D01*
X019434Y006038D01*
X019405Y006060D01*
X019379Y006085D01*
X019355Y006112D01*
X019335Y006142D01*
X019318Y006174D01*
X019305Y006208D01*
X019295Y006243D01*
X019289Y006279D01*
X019287Y006315D01*
X019287Y007102D02*
X019289Y007138D01*
X019295Y007174D01*
X019305Y007209D01*
X019318Y007243D01*
X019335Y007275D01*
X019355Y007305D01*
X019379Y007332D01*
X019405Y007357D01*
X019434Y007379D01*
X019465Y007398D01*
X019498Y007413D01*
X019532Y007425D01*
X019568Y007433D01*
X019604Y007437D01*
X019640Y007437D01*
X019676Y007433D01*
X019712Y007425D01*
X019746Y007413D01*
X019779Y007398D01*
X019810Y007379D01*
X019839Y007357D01*
X019865Y007332D01*
X019889Y007305D01*
X019909Y007275D01*
X019926Y007243D01*
X019939Y007209D01*
X019949Y007174D01*
X019955Y007138D01*
X019957Y007102D01*
X019955Y007066D01*
X019949Y007030D01*
X019939Y006995D01*
X019926Y006961D01*
X019909Y006929D01*
X019889Y006899D01*
X019865Y006872D01*
X019839Y006847D01*
X019810Y006825D01*
X019779Y006806D01*
X019746Y006791D01*
X019712Y006779D01*
X019676Y006771D01*
X019640Y006767D01*
X019604Y006767D01*
X019568Y006771D01*
X019532Y006779D01*
X019498Y006791D01*
X019465Y006806D01*
X019434Y006825D01*
X019405Y006847D01*
X019379Y006872D01*
X019355Y006899D01*
X019335Y006929D01*
X019318Y006961D01*
X019305Y006995D01*
X019295Y007030D01*
X019289Y007066D01*
X019287Y007102D01*
X019287Y007889D02*
X019289Y007925D01*
X019295Y007961D01*
X019305Y007996D01*
X019318Y008030D01*
X019335Y008062D01*
X019355Y008092D01*
X019379Y008119D01*
X019405Y008144D01*
X019434Y008166D01*
X019465Y008185D01*
X019498Y008200D01*
X019532Y008212D01*
X019568Y008220D01*
X019604Y008224D01*
X019640Y008224D01*
X019676Y008220D01*
X019712Y008212D01*
X019746Y008200D01*
X019779Y008185D01*
X019810Y008166D01*
X019839Y008144D01*
X019865Y008119D01*
X019889Y008092D01*
X019909Y008062D01*
X019926Y008030D01*
X019939Y007996D01*
X019949Y007961D01*
X019955Y007925D01*
X019957Y007889D01*
X019955Y007853D01*
X019949Y007817D01*
X019939Y007782D01*
X019926Y007748D01*
X019909Y007716D01*
X019889Y007686D01*
X019865Y007659D01*
X019839Y007634D01*
X019810Y007612D01*
X019779Y007593D01*
X019746Y007578D01*
X019712Y007566D01*
X019676Y007558D01*
X019640Y007554D01*
X019604Y007554D01*
X019568Y007558D01*
X019532Y007566D01*
X019498Y007578D01*
X019465Y007593D01*
X019434Y007612D01*
X019405Y007634D01*
X019379Y007659D01*
X019355Y007686D01*
X019335Y007716D01*
X019318Y007748D01*
X019305Y007782D01*
X019295Y007817D01*
X019289Y007853D01*
X019287Y007889D01*
X020626Y011047D02*
X020628Y011084D01*
X020634Y011121D01*
X020643Y011156D01*
X020657Y011191D01*
X020673Y011224D01*
X020694Y011255D01*
X020717Y011284D01*
X020743Y011310D01*
X020772Y011333D01*
X020803Y011354D01*
X020836Y011370D01*
X020871Y011384D01*
X020906Y011393D01*
X020943Y011399D01*
X020980Y011401D01*
X021017Y011399D01*
X021054Y011393D01*
X021089Y011384D01*
X021124Y011370D01*
X021157Y011354D01*
X021188Y011333D01*
X021217Y011310D01*
X021243Y011284D01*
X021266Y011255D01*
X021287Y011224D01*
X021303Y011191D01*
X021317Y011156D01*
X021326Y011121D01*
X021332Y011084D01*
X021334Y011047D01*
X021332Y011010D01*
X021326Y010973D01*
X021317Y010938D01*
X021303Y010903D01*
X021287Y010870D01*
X021266Y010839D01*
X021243Y010810D01*
X021217Y010784D01*
X021188Y010761D01*
X021157Y010740D01*
X021124Y010724D01*
X021089Y010710D01*
X021054Y010701D01*
X021017Y010695D01*
X020980Y010693D01*
X020943Y010695D01*
X020906Y010701D01*
X020871Y010710D01*
X020836Y010724D01*
X020803Y010740D01*
X020772Y010761D01*
X020743Y010784D01*
X020717Y010810D01*
X020694Y010839D01*
X020673Y010870D01*
X020657Y010903D01*
X020643Y010938D01*
X020634Y010973D01*
X020628Y011010D01*
X020626Y011047D01*
X021626Y011047D02*
X021628Y011084D01*
X021634Y011121D01*
X021643Y011156D01*
X021657Y011191D01*
X021673Y011224D01*
X021694Y011255D01*
X021717Y011284D01*
X021743Y011310D01*
X021772Y011333D01*
X021803Y011354D01*
X021836Y011370D01*
X021871Y011384D01*
X021906Y011393D01*
X021943Y011399D01*
X021980Y011401D01*
X022017Y011399D01*
X022054Y011393D01*
X022089Y011384D01*
X022124Y011370D01*
X022157Y011354D01*
X022188Y011333D01*
X022217Y011310D01*
X022243Y011284D01*
X022266Y011255D01*
X022287Y011224D01*
X022303Y011191D01*
X022317Y011156D01*
X022326Y011121D01*
X022332Y011084D01*
X022334Y011047D01*
X022332Y011010D01*
X022326Y010973D01*
X022317Y010938D01*
X022303Y010903D01*
X022287Y010870D01*
X022266Y010839D01*
X022243Y010810D01*
X022217Y010784D01*
X022188Y010761D01*
X022157Y010740D01*
X022124Y010724D01*
X022089Y010710D01*
X022054Y010701D01*
X022017Y010695D01*
X021980Y010693D01*
X021943Y010695D01*
X021906Y010701D01*
X021871Y010710D01*
X021836Y010724D01*
X021803Y010740D01*
X021772Y010761D01*
X021743Y010784D01*
X021717Y010810D01*
X021694Y010839D01*
X021673Y010870D01*
X021657Y010903D01*
X021643Y010938D01*
X021634Y010973D01*
X021628Y011010D01*
X021626Y011047D01*
X022626Y011047D02*
X022628Y011084D01*
X022634Y011121D01*
X022643Y011156D01*
X022657Y011191D01*
X022673Y011224D01*
X022694Y011255D01*
X022717Y011284D01*
X022743Y011310D01*
X022772Y011333D01*
X022803Y011354D01*
X022836Y011370D01*
X022871Y011384D01*
X022906Y011393D01*
X022943Y011399D01*
X022980Y011401D01*
X023017Y011399D01*
X023054Y011393D01*
X023089Y011384D01*
X023124Y011370D01*
X023157Y011354D01*
X023188Y011333D01*
X023217Y011310D01*
X023243Y011284D01*
X023266Y011255D01*
X023287Y011224D01*
X023303Y011191D01*
X023317Y011156D01*
X023326Y011121D01*
X023332Y011084D01*
X023334Y011047D01*
X023332Y011010D01*
X023326Y010973D01*
X023317Y010938D01*
X023303Y010903D01*
X023287Y010870D01*
X023266Y010839D01*
X023243Y010810D01*
X023217Y010784D01*
X023188Y010761D01*
X023157Y010740D01*
X023124Y010724D01*
X023089Y010710D01*
X023054Y010701D01*
X023017Y010695D01*
X022980Y010693D01*
X022943Y010695D01*
X022906Y010701D01*
X022871Y010710D01*
X022836Y010724D01*
X022803Y010740D01*
X022772Y010761D01*
X022743Y010784D01*
X022717Y010810D01*
X022694Y010839D01*
X022673Y010870D01*
X022657Y010903D01*
X022643Y010938D01*
X022634Y010973D01*
X022628Y011010D01*
X022626Y011047D01*
X028228Y008047D02*
X028230Y008083D01*
X028236Y008119D01*
X028246Y008154D01*
X028259Y008188D01*
X028276Y008220D01*
X028296Y008250D01*
X028320Y008277D01*
X028346Y008302D01*
X028375Y008324D01*
X028406Y008343D01*
X028439Y008358D01*
X028473Y008370D01*
X028509Y008378D01*
X028545Y008382D01*
X028581Y008382D01*
X028617Y008378D01*
X028653Y008370D01*
X028687Y008358D01*
X028720Y008343D01*
X028751Y008324D01*
X028780Y008302D01*
X028806Y008277D01*
X028830Y008250D01*
X028850Y008220D01*
X028867Y008188D01*
X028880Y008154D01*
X028890Y008119D01*
X028896Y008083D01*
X028898Y008047D01*
X028896Y008011D01*
X028890Y007975D01*
X028880Y007940D01*
X028867Y007906D01*
X028850Y007874D01*
X028830Y007844D01*
X028806Y007817D01*
X028780Y007792D01*
X028751Y007770D01*
X028720Y007751D01*
X028687Y007736D01*
X028653Y007724D01*
X028617Y007716D01*
X028581Y007712D01*
X028545Y007712D01*
X028509Y007716D01*
X028473Y007724D01*
X028439Y007736D01*
X028406Y007751D01*
X028375Y007770D01*
X028346Y007792D01*
X028320Y007817D01*
X028296Y007844D01*
X028276Y007874D01*
X028259Y007906D01*
X028246Y007940D01*
X028236Y007975D01*
X028230Y008011D01*
X028228Y008047D01*
X031488Y006822D02*
X031490Y006858D01*
X031496Y006894D01*
X031506Y006929D01*
X031519Y006963D01*
X031536Y006995D01*
X031556Y007025D01*
X031580Y007052D01*
X031606Y007077D01*
X031635Y007099D01*
X031666Y007118D01*
X031699Y007133D01*
X031733Y007145D01*
X031769Y007153D01*
X031805Y007157D01*
X031841Y007157D01*
X031877Y007153D01*
X031913Y007145D01*
X031947Y007133D01*
X031980Y007118D01*
X032011Y007099D01*
X032040Y007077D01*
X032066Y007052D01*
X032090Y007025D01*
X032110Y006995D01*
X032127Y006963D01*
X032140Y006929D01*
X032150Y006894D01*
X032156Y006858D01*
X032158Y006822D01*
X032156Y006786D01*
X032150Y006750D01*
X032140Y006715D01*
X032127Y006681D01*
X032110Y006649D01*
X032090Y006619D01*
X032066Y006592D01*
X032040Y006567D01*
X032011Y006545D01*
X031980Y006526D01*
X031947Y006511D01*
X031913Y006499D01*
X031877Y006491D01*
X031841Y006487D01*
X031805Y006487D01*
X031769Y006491D01*
X031733Y006499D01*
X031699Y006511D01*
X031666Y006526D01*
X031635Y006545D01*
X031606Y006567D01*
X031580Y006592D01*
X031556Y006619D01*
X031536Y006649D01*
X031519Y006681D01*
X031506Y006715D01*
X031496Y006750D01*
X031490Y006786D01*
X031488Y006822D01*
X031488Y006153D02*
X031490Y006189D01*
X031496Y006225D01*
X031506Y006260D01*
X031519Y006294D01*
X031536Y006326D01*
X031556Y006356D01*
X031580Y006383D01*
X031606Y006408D01*
X031635Y006430D01*
X031666Y006449D01*
X031699Y006464D01*
X031733Y006476D01*
X031769Y006484D01*
X031805Y006488D01*
X031841Y006488D01*
X031877Y006484D01*
X031913Y006476D01*
X031947Y006464D01*
X031980Y006449D01*
X032011Y006430D01*
X032040Y006408D01*
X032066Y006383D01*
X032090Y006356D01*
X032110Y006326D01*
X032127Y006294D01*
X032140Y006260D01*
X032150Y006225D01*
X032156Y006189D01*
X032158Y006153D01*
X032156Y006117D01*
X032150Y006081D01*
X032140Y006046D01*
X032127Y006012D01*
X032110Y005980D01*
X032090Y005950D01*
X032066Y005923D01*
X032040Y005898D01*
X032011Y005876D01*
X031980Y005857D01*
X031947Y005842D01*
X031913Y005830D01*
X031877Y005822D01*
X031841Y005818D01*
X031805Y005818D01*
X031769Y005822D01*
X031733Y005830D01*
X031699Y005842D01*
X031666Y005857D01*
X031635Y005876D01*
X031606Y005898D01*
X031580Y005923D01*
X031556Y005950D01*
X031536Y005980D01*
X031519Y006012D01*
X031506Y006046D01*
X031496Y006081D01*
X031490Y006117D01*
X031488Y006153D01*
X031488Y005484D02*
X031490Y005520D01*
X031496Y005556D01*
X031506Y005591D01*
X031519Y005625D01*
X031536Y005657D01*
X031556Y005687D01*
X031580Y005714D01*
X031606Y005739D01*
X031635Y005761D01*
X031666Y005780D01*
X031699Y005795D01*
X031733Y005807D01*
X031769Y005815D01*
X031805Y005819D01*
X031841Y005819D01*
X031877Y005815D01*
X031913Y005807D01*
X031947Y005795D01*
X031980Y005780D01*
X032011Y005761D01*
X032040Y005739D01*
X032066Y005714D01*
X032090Y005687D01*
X032110Y005657D01*
X032127Y005625D01*
X032140Y005591D01*
X032150Y005556D01*
X032156Y005520D01*
X032158Y005484D01*
X032156Y005448D01*
X032150Y005412D01*
X032140Y005377D01*
X032127Y005343D01*
X032110Y005311D01*
X032090Y005281D01*
X032066Y005254D01*
X032040Y005229D01*
X032011Y005207D01*
X031980Y005188D01*
X031947Y005173D01*
X031913Y005161D01*
X031877Y005153D01*
X031841Y005149D01*
X031805Y005149D01*
X031769Y005153D01*
X031733Y005161D01*
X031699Y005173D01*
X031666Y005188D01*
X031635Y005207D01*
X031606Y005229D01*
X031580Y005254D01*
X031556Y005281D01*
X031536Y005311D01*
X031519Y005343D01*
X031506Y005377D01*
X031496Y005412D01*
X031490Y005448D01*
X031488Y005484D01*
X034094Y002488D02*
X034096Y002538D01*
X034102Y002588D01*
X034112Y002637D01*
X034126Y002685D01*
X034143Y002732D01*
X034164Y002777D01*
X034189Y002821D01*
X034217Y002862D01*
X034249Y002901D01*
X034283Y002938D01*
X034320Y002972D01*
X034360Y003002D01*
X034402Y003029D01*
X034446Y003053D01*
X034492Y003074D01*
X034539Y003090D01*
X034587Y003103D01*
X034637Y003112D01*
X034686Y003117D01*
X034737Y003118D01*
X034787Y003115D01*
X034836Y003108D01*
X034885Y003097D01*
X034933Y003082D01*
X034979Y003064D01*
X035024Y003042D01*
X035067Y003016D01*
X035108Y002987D01*
X035147Y002955D01*
X035183Y002920D01*
X035215Y002882D01*
X035245Y002842D01*
X035272Y002799D01*
X035295Y002755D01*
X035314Y002709D01*
X035330Y002661D01*
X035342Y002612D01*
X035350Y002563D01*
X035354Y002513D01*
X035354Y002463D01*
X035350Y002413D01*
X035342Y002364D01*
X035330Y002315D01*
X035314Y002267D01*
X035295Y002221D01*
X035272Y002177D01*
X035245Y002134D01*
X035215Y002094D01*
X035183Y002056D01*
X035147Y002021D01*
X035108Y001989D01*
X035067Y001960D01*
X035024Y001934D01*
X034979Y001912D01*
X034933Y001894D01*
X034885Y001879D01*
X034836Y001868D01*
X034787Y001861D01*
X034737Y001858D01*
X034686Y001859D01*
X034637Y001864D01*
X034587Y001873D01*
X034539Y001886D01*
X034492Y001902D01*
X034446Y001923D01*
X034402Y001947D01*
X034360Y001974D01*
X034320Y002004D01*
X034283Y002038D01*
X034249Y002075D01*
X034217Y002114D01*
X034189Y002155D01*
X034164Y002199D01*
X034143Y002244D01*
X034126Y002291D01*
X034112Y002339D01*
X034102Y002388D01*
X034096Y002438D01*
X034094Y002488D01*
X025377Y005468D02*
X025379Y005504D01*
X025385Y005540D01*
X025395Y005575D01*
X025408Y005609D01*
X025425Y005641D01*
X025445Y005671D01*
X025469Y005698D01*
X025495Y005723D01*
X025524Y005745D01*
X025555Y005764D01*
X025588Y005779D01*
X025622Y005791D01*
X025658Y005799D01*
X025694Y005803D01*
X025730Y005803D01*
X025766Y005799D01*
X025802Y005791D01*
X025836Y005779D01*
X025869Y005764D01*
X025900Y005745D01*
X025929Y005723D01*
X025955Y005698D01*
X025979Y005671D01*
X025999Y005641D01*
X026016Y005609D01*
X026029Y005575D01*
X026039Y005540D01*
X026045Y005504D01*
X026047Y005468D01*
X026045Y005432D01*
X026039Y005396D01*
X026029Y005361D01*
X026016Y005327D01*
X025999Y005295D01*
X025979Y005265D01*
X025955Y005238D01*
X025929Y005213D01*
X025900Y005191D01*
X025869Y005172D01*
X025836Y005157D01*
X025802Y005145D01*
X025766Y005137D01*
X025730Y005133D01*
X025694Y005133D01*
X025658Y005137D01*
X025622Y005145D01*
X025588Y005157D01*
X025555Y005172D01*
X025524Y005191D01*
X025495Y005213D01*
X025469Y005238D01*
X025445Y005265D01*
X025425Y005295D01*
X025408Y005327D01*
X025395Y005361D01*
X025385Y005396D01*
X025379Y005432D01*
X025377Y005468D01*
X042735Y002094D02*
X042737Y002144D01*
X042743Y002194D01*
X042753Y002244D01*
X042766Y002292D01*
X042783Y002340D01*
X042804Y002386D01*
X042828Y002430D01*
X042856Y002472D01*
X042887Y002512D01*
X042921Y002549D01*
X042958Y002584D01*
X042997Y002615D01*
X043038Y002644D01*
X043082Y002669D01*
X043128Y002691D01*
X043175Y002709D01*
X043223Y002723D01*
X043272Y002734D01*
X043322Y002741D01*
X043372Y002744D01*
X043423Y002743D01*
X043473Y002738D01*
X043523Y002729D01*
X043571Y002717D01*
X043619Y002700D01*
X043665Y002680D01*
X043710Y002657D01*
X043753Y002630D01*
X043793Y002600D01*
X043831Y002567D01*
X043866Y002531D01*
X043899Y002492D01*
X043928Y002451D01*
X043954Y002408D01*
X043977Y002363D01*
X043996Y002316D01*
X044011Y002268D01*
X044023Y002219D01*
X044031Y002169D01*
X044035Y002119D01*
X044035Y002069D01*
X044031Y002019D01*
X044023Y001969D01*
X044011Y001920D01*
X043996Y001872D01*
X043977Y001825D01*
X043954Y001780D01*
X043928Y001737D01*
X043899Y001696D01*
X043866Y001657D01*
X043831Y001621D01*
X043793Y001588D01*
X043753Y001558D01*
X043710Y001531D01*
X043665Y001508D01*
X043619Y001488D01*
X043571Y001471D01*
X043523Y001459D01*
X043473Y001450D01*
X043423Y001445D01*
X043372Y001444D01*
X043322Y001447D01*
X043272Y001454D01*
X043223Y001465D01*
X043175Y001479D01*
X043128Y001497D01*
X043082Y001519D01*
X043038Y001544D01*
X042997Y001573D01*
X042958Y001604D01*
X042921Y001639D01*
X042887Y001676D01*
X042856Y001716D01*
X042828Y001758D01*
X042804Y001802D01*
X042783Y001848D01*
X042766Y001896D01*
X042753Y001944D01*
X042743Y001994D01*
X042737Y002044D01*
X042735Y002094D01*
X042735Y020204D02*
X042737Y020254D01*
X042743Y020304D01*
X042753Y020354D01*
X042766Y020402D01*
X042783Y020450D01*
X042804Y020496D01*
X042828Y020540D01*
X042856Y020582D01*
X042887Y020622D01*
X042921Y020659D01*
X042958Y020694D01*
X042997Y020725D01*
X043038Y020754D01*
X043082Y020779D01*
X043128Y020801D01*
X043175Y020819D01*
X043223Y020833D01*
X043272Y020844D01*
X043322Y020851D01*
X043372Y020854D01*
X043423Y020853D01*
X043473Y020848D01*
X043523Y020839D01*
X043571Y020827D01*
X043619Y020810D01*
X043665Y020790D01*
X043710Y020767D01*
X043753Y020740D01*
X043793Y020710D01*
X043831Y020677D01*
X043866Y020641D01*
X043899Y020602D01*
X043928Y020561D01*
X043954Y020518D01*
X043977Y020473D01*
X043996Y020426D01*
X044011Y020378D01*
X044023Y020329D01*
X044031Y020279D01*
X044035Y020229D01*
X044035Y020179D01*
X044031Y020129D01*
X044023Y020079D01*
X044011Y020030D01*
X043996Y019982D01*
X043977Y019935D01*
X043954Y019890D01*
X043928Y019847D01*
X043899Y019806D01*
X043866Y019767D01*
X043831Y019731D01*
X043793Y019698D01*
X043753Y019668D01*
X043710Y019641D01*
X043665Y019618D01*
X043619Y019598D01*
X043571Y019581D01*
X043523Y019569D01*
X043473Y019560D01*
X043423Y019555D01*
X043372Y019554D01*
X043322Y019557D01*
X043272Y019564D01*
X043223Y019575D01*
X043175Y019589D01*
X043128Y019607D01*
X043082Y019629D01*
X043038Y019654D01*
X042997Y019683D01*
X042958Y019714D01*
X042921Y019749D01*
X042887Y019786D01*
X042856Y019826D01*
X042828Y019868D01*
X042804Y019912D01*
X042783Y019958D01*
X042766Y020006D01*
X042753Y020054D01*
X042743Y020104D01*
X042737Y020154D01*
X042735Y020204D01*
X006515Y020204D02*
X006517Y020254D01*
X006523Y020304D01*
X006533Y020354D01*
X006546Y020402D01*
X006563Y020450D01*
X006584Y020496D01*
X006608Y020540D01*
X006636Y020582D01*
X006667Y020622D01*
X006701Y020659D01*
X006738Y020694D01*
X006777Y020725D01*
X006818Y020754D01*
X006862Y020779D01*
X006908Y020801D01*
X006955Y020819D01*
X007003Y020833D01*
X007052Y020844D01*
X007102Y020851D01*
X007152Y020854D01*
X007203Y020853D01*
X007253Y020848D01*
X007303Y020839D01*
X007351Y020827D01*
X007399Y020810D01*
X007445Y020790D01*
X007490Y020767D01*
X007533Y020740D01*
X007573Y020710D01*
X007611Y020677D01*
X007646Y020641D01*
X007679Y020602D01*
X007708Y020561D01*
X007734Y020518D01*
X007757Y020473D01*
X007776Y020426D01*
X007791Y020378D01*
X007803Y020329D01*
X007811Y020279D01*
X007815Y020229D01*
X007815Y020179D01*
X007811Y020129D01*
X007803Y020079D01*
X007791Y020030D01*
X007776Y019982D01*
X007757Y019935D01*
X007734Y019890D01*
X007708Y019847D01*
X007679Y019806D01*
X007646Y019767D01*
X007611Y019731D01*
X007573Y019698D01*
X007533Y019668D01*
X007490Y019641D01*
X007445Y019618D01*
X007399Y019598D01*
X007351Y019581D01*
X007303Y019569D01*
X007253Y019560D01*
X007203Y019555D01*
X007152Y019554D01*
X007102Y019557D01*
X007052Y019564D01*
X007003Y019575D01*
X006955Y019589D01*
X006908Y019607D01*
X006862Y019629D01*
X006818Y019654D01*
X006777Y019683D01*
X006738Y019714D01*
X006701Y019749D01*
X006667Y019786D01*
X006636Y019826D01*
X006608Y019868D01*
X006584Y019912D01*
X006563Y019958D01*
X006546Y020006D01*
X006533Y020054D01*
X006523Y020104D01*
X006517Y020154D01*
X006515Y020204D01*
D11*
X005590Y000519D02*
X000492Y000519D01*
X001260Y000519D02*
X001362Y001543D01*
X001385Y001543D02*
X001260Y000519D01*
X001157Y001543D01*
X001134Y001543D02*
X001385Y001543D01*
X001311Y001543D02*
X001260Y000519D01*
X001208Y001543D01*
X001134Y001543D02*
X001260Y000519D01*
X001260Y021779D01*
X001362Y020756D01*
X001385Y020756D02*
X001260Y021779D01*
X001157Y020756D01*
X001134Y020756D02*
X001385Y020756D01*
X001311Y020756D02*
X001260Y021779D01*
X001208Y020756D01*
X001134Y020756D02*
X001260Y021779D01*
X000492Y021779D02*
X007952Y021779D01*
X005590Y021779D02*
X005590Y026878D01*
X005590Y026110D02*
X006614Y026007D01*
X006614Y025984D02*
X006614Y026236D01*
X005590Y026110D01*
X006614Y026212D01*
X006614Y026161D02*
X005590Y026110D01*
X006614Y026059D01*
X006614Y025984D02*
X005590Y026110D01*
X044960Y026110D01*
X043937Y026007D01*
X043937Y025984D02*
X043937Y026236D01*
X044960Y026110D01*
X043937Y026212D01*
X043937Y026161D02*
X044960Y026110D01*
X043937Y026059D01*
X043937Y025984D02*
X044960Y026110D01*
X044960Y026878D02*
X044960Y018236D01*
X043385Y020204D02*
X043385Y024515D01*
X043385Y023748D02*
X042362Y023645D01*
X042362Y023622D02*
X043385Y023748D01*
X042362Y023850D01*
X042362Y023873D02*
X042362Y023622D01*
X042362Y023696D02*
X043385Y023748D01*
X042362Y023799D01*
X042362Y023873D02*
X043385Y023748D01*
X007165Y023748D01*
X008189Y023645D01*
X008189Y023622D02*
X007165Y023748D01*
X008189Y023850D01*
X008189Y023873D02*
X008189Y023622D01*
X008189Y023696D02*
X007165Y023748D01*
X008189Y023799D01*
X008189Y023873D02*
X007165Y023748D01*
X007165Y024515D02*
X007165Y020204D01*
X002854Y020204D01*
X003622Y020204D02*
X003724Y019181D01*
X003747Y019181D02*
X003622Y020204D01*
X003519Y019181D01*
X003496Y019181D02*
X003747Y019181D01*
X003673Y019181D02*
X003622Y020204D01*
X003571Y019181D01*
X003496Y019181D02*
X003622Y020204D01*
X003622Y002094D01*
X003724Y003118D01*
X003747Y003118D02*
X003622Y002094D01*
X003519Y003118D01*
X003496Y003118D02*
X003747Y003118D01*
X003673Y003118D02*
X003622Y002094D01*
X003571Y003118D01*
X003496Y003118D02*
X003622Y002094D01*
X002854Y002094D02*
X007165Y002094D01*
D12*
X003045Y010620D02*
X003045Y011047D01*
X003045Y011265D02*
X003045Y011585D01*
X003152Y011692D01*
X003259Y011692D01*
X003366Y011585D01*
X003366Y011372D01*
X003259Y011265D01*
X003045Y011265D01*
X002832Y011479D01*
X002725Y011692D01*
X002725Y010941D02*
X003045Y010620D01*
X003366Y010941D02*
X002725Y010941D01*
X001003Y010941D02*
X001003Y010727D01*
X000897Y010620D01*
X000683Y010620D02*
X000576Y010834D01*
X000576Y010941D01*
X000683Y011047D01*
X000897Y011047D01*
X001003Y010941D01*
X000683Y010620D02*
X000363Y010620D01*
X000363Y011047D01*
X000683Y011265D02*
X000683Y011692D01*
X000363Y011585D02*
X000683Y011265D01*
X001003Y011585D02*
X000363Y011585D01*
X024747Y024111D02*
X024853Y024004D01*
X025067Y024004D01*
X025174Y024111D01*
X025174Y024538D01*
X025067Y024644D01*
X024853Y024644D01*
X024747Y024538D01*
X024747Y024431D01*
X024853Y024324D01*
X025174Y024324D01*
X025391Y024538D02*
X025498Y024644D01*
X025711Y024644D01*
X025818Y024538D01*
X025818Y024431D01*
X025391Y024004D01*
X025818Y024004D01*
X025863Y026366D02*
X025756Y026473D01*
X026183Y026900D01*
X026183Y026473D01*
X026077Y026366D01*
X025863Y026366D01*
X025756Y026473D02*
X025756Y026900D01*
X025863Y027007D01*
X026077Y027007D01*
X026183Y026900D01*
X025539Y026900D02*
X025539Y026473D01*
X025432Y026366D01*
X025218Y026366D01*
X025112Y026473D01*
X025539Y026900D01*
X025432Y027007D01*
X025218Y027007D01*
X025112Y026900D01*
X025112Y026473D01*
X024894Y026366D02*
X024467Y026366D01*
X024681Y026366D02*
X024681Y027007D01*
X024467Y026793D01*
M02*
