%
M48
M72
T01C0.0669
T02C0.0709
T03C0.1260
T04C0.1300
%
T01
X19622Y7889
X19622Y7102
X19622Y6315
X19622Y5527
X19622Y4740
X19622Y3952
X25712Y5468
X31823Y6822
X31823Y6153
X31823Y5484
X28563Y8047
T02
X20980Y11047
X21980Y11047
X22980Y11047
T03
X15826Y2488
X34724Y2488
T04
X7165Y2094
X43385Y2094
X43385Y20204
X7165Y20204
M30
