G75*
%MOIN*%
%OFA0B0*%
%FSLAX24Y24*%
%IPPOS*%
%LPD*%
%AMOC8*
5,1,8,0,0,1.08239X$1,22.5*
%
%ADD10C,0.0000*%
%ADD11C,0.0030*%
D10*
X002361Y005618D02*
X039731Y005618D01*
X039791Y005620D01*
X039852Y005625D01*
X039911Y005634D01*
X039970Y005647D01*
X040029Y005663D01*
X040086Y005683D01*
X040141Y005706D01*
X040196Y005733D01*
X040248Y005762D01*
X040299Y005795D01*
X040348Y005831D01*
X040394Y005869D01*
X040438Y005911D01*
X040480Y005955D01*
X040518Y006001D01*
X040554Y006050D01*
X040587Y006101D01*
X040616Y006153D01*
X040643Y006208D01*
X040666Y006263D01*
X040686Y006320D01*
X040702Y006379D01*
X040715Y006438D01*
X040724Y006497D01*
X040729Y006558D01*
X040731Y006618D01*
X040731Y043988D01*
X040729Y044048D01*
X040724Y044109D01*
X040715Y044168D01*
X040702Y044227D01*
X040686Y044286D01*
X040666Y044343D01*
X040643Y044398D01*
X040616Y044453D01*
X040587Y044505D01*
X040554Y044556D01*
X040518Y044605D01*
X040480Y044651D01*
X040438Y044695D01*
X040394Y044737D01*
X040348Y044775D01*
X040299Y044811D01*
X040248Y044844D01*
X040196Y044873D01*
X040141Y044900D01*
X040086Y044923D01*
X040029Y044943D01*
X039970Y044959D01*
X039911Y044972D01*
X039852Y044981D01*
X039791Y044986D01*
X039731Y044988D01*
X002361Y044988D01*
X002301Y044986D01*
X002240Y044981D01*
X002181Y044972D01*
X002122Y044959D01*
X002063Y044943D01*
X002006Y044923D01*
X001951Y044900D01*
X001896Y044873D01*
X001844Y044844D01*
X001793Y044811D01*
X001744Y044775D01*
X001698Y044737D01*
X001654Y044695D01*
X001612Y044651D01*
X001574Y044605D01*
X001538Y044556D01*
X001505Y044505D01*
X001476Y044453D01*
X001449Y044398D01*
X001426Y044343D01*
X001406Y044286D01*
X001390Y044227D01*
X001377Y044168D01*
X001368Y044109D01*
X001363Y044048D01*
X001361Y043988D01*
X001361Y006618D01*
X001363Y006558D01*
X001368Y006497D01*
X001377Y006438D01*
X001390Y006379D01*
X001406Y006320D01*
X001426Y006263D01*
X001449Y006208D01*
X001476Y006153D01*
X001505Y006101D01*
X001538Y006050D01*
X001574Y006001D01*
X001612Y005955D01*
X001654Y005911D01*
X001698Y005869D01*
X001744Y005831D01*
X001793Y005795D01*
X001844Y005762D01*
X001896Y005733D01*
X001951Y005706D01*
X002006Y005683D01*
X002063Y005663D01*
X002122Y005647D01*
X002181Y005634D01*
X002240Y005625D01*
X002301Y005620D01*
X002361Y005618D01*
X002286Y007193D02*
X002288Y007243D01*
X002294Y007293D01*
X002304Y007343D01*
X002317Y007391D01*
X002334Y007439D01*
X002355Y007485D01*
X002379Y007529D01*
X002407Y007571D01*
X002438Y007611D01*
X002472Y007648D01*
X002509Y007683D01*
X002548Y007714D01*
X002589Y007743D01*
X002633Y007768D01*
X002679Y007790D01*
X002726Y007808D01*
X002774Y007822D01*
X002823Y007833D01*
X002873Y007840D01*
X002923Y007843D01*
X002974Y007842D01*
X003024Y007837D01*
X003074Y007828D01*
X003122Y007816D01*
X003170Y007799D01*
X003216Y007779D01*
X003261Y007756D01*
X003304Y007729D01*
X003344Y007699D01*
X003382Y007666D01*
X003417Y007630D01*
X003450Y007591D01*
X003479Y007550D01*
X003505Y007507D01*
X003528Y007462D01*
X003547Y007415D01*
X003562Y007367D01*
X003574Y007318D01*
X003582Y007268D01*
X003586Y007218D01*
X003586Y007168D01*
X003582Y007118D01*
X003574Y007068D01*
X003562Y007019D01*
X003547Y006971D01*
X003528Y006924D01*
X003505Y006879D01*
X003479Y006836D01*
X003450Y006795D01*
X003417Y006756D01*
X003382Y006720D01*
X003344Y006687D01*
X003304Y006657D01*
X003261Y006630D01*
X003216Y006607D01*
X003170Y006587D01*
X003122Y006570D01*
X003074Y006558D01*
X003024Y006549D01*
X002974Y006544D01*
X002923Y006543D01*
X002873Y006546D01*
X002823Y006553D01*
X002774Y006564D01*
X002726Y006578D01*
X002679Y006596D01*
X002633Y006618D01*
X002589Y006643D01*
X002548Y006672D01*
X002509Y006703D01*
X002472Y006738D01*
X002438Y006775D01*
X002407Y006815D01*
X002379Y006857D01*
X002355Y006901D01*
X002334Y006947D01*
X002317Y006995D01*
X002304Y007043D01*
X002294Y007093D01*
X002288Y007143D01*
X002286Y007193D01*
X014511Y006799D02*
X014513Y006849D01*
X014519Y006899D01*
X014529Y006948D01*
X014543Y006996D01*
X014560Y007043D01*
X014581Y007088D01*
X014606Y007132D01*
X014634Y007173D01*
X014666Y007212D01*
X014700Y007249D01*
X014737Y007283D01*
X014777Y007313D01*
X014819Y007340D01*
X014863Y007364D01*
X014909Y007385D01*
X014956Y007401D01*
X015004Y007414D01*
X015054Y007423D01*
X015103Y007428D01*
X015154Y007429D01*
X015204Y007426D01*
X015253Y007419D01*
X015302Y007408D01*
X015350Y007393D01*
X015396Y007375D01*
X015441Y007353D01*
X015484Y007327D01*
X015525Y007298D01*
X015564Y007266D01*
X015600Y007231D01*
X015632Y007193D01*
X015662Y007153D01*
X015689Y007110D01*
X015712Y007066D01*
X015731Y007020D01*
X015747Y006972D01*
X015759Y006923D01*
X015767Y006874D01*
X015771Y006824D01*
X015771Y006774D01*
X015767Y006724D01*
X015759Y006675D01*
X015747Y006626D01*
X015731Y006578D01*
X015712Y006532D01*
X015689Y006488D01*
X015662Y006445D01*
X015632Y006405D01*
X015600Y006367D01*
X015564Y006332D01*
X015525Y006300D01*
X015484Y006271D01*
X015441Y006245D01*
X015396Y006223D01*
X015350Y006205D01*
X015302Y006190D01*
X015253Y006179D01*
X015204Y006172D01*
X015154Y006169D01*
X015103Y006170D01*
X015054Y006175D01*
X015004Y006184D01*
X014956Y006197D01*
X014909Y006213D01*
X014863Y006234D01*
X014819Y006258D01*
X014777Y006285D01*
X014737Y006315D01*
X014700Y006349D01*
X014666Y006386D01*
X014634Y006425D01*
X014606Y006466D01*
X014581Y006510D01*
X014560Y006555D01*
X014543Y006602D01*
X014529Y006650D01*
X014519Y006699D01*
X014513Y006749D01*
X014511Y006799D01*
X026322Y006799D02*
X026324Y006849D01*
X026330Y006899D01*
X026340Y006948D01*
X026354Y006996D01*
X026371Y007043D01*
X026392Y007088D01*
X026417Y007132D01*
X026445Y007173D01*
X026477Y007212D01*
X026511Y007249D01*
X026548Y007283D01*
X026588Y007313D01*
X026630Y007340D01*
X026674Y007364D01*
X026720Y007385D01*
X026767Y007401D01*
X026815Y007414D01*
X026865Y007423D01*
X026914Y007428D01*
X026965Y007429D01*
X027015Y007426D01*
X027064Y007419D01*
X027113Y007408D01*
X027161Y007393D01*
X027207Y007375D01*
X027252Y007353D01*
X027295Y007327D01*
X027336Y007298D01*
X027375Y007266D01*
X027411Y007231D01*
X027443Y007193D01*
X027473Y007153D01*
X027500Y007110D01*
X027523Y007066D01*
X027542Y007020D01*
X027558Y006972D01*
X027570Y006923D01*
X027578Y006874D01*
X027582Y006824D01*
X027582Y006774D01*
X027578Y006724D01*
X027570Y006675D01*
X027558Y006626D01*
X027542Y006578D01*
X027523Y006532D01*
X027500Y006488D01*
X027473Y006445D01*
X027443Y006405D01*
X027411Y006367D01*
X027375Y006332D01*
X027336Y006300D01*
X027295Y006271D01*
X027252Y006245D01*
X027207Y006223D01*
X027161Y006205D01*
X027113Y006190D01*
X027064Y006179D01*
X027015Y006172D01*
X026965Y006169D01*
X026914Y006170D01*
X026865Y006175D01*
X026815Y006184D01*
X026767Y006197D01*
X026720Y006213D01*
X026674Y006234D01*
X026630Y006258D01*
X026588Y006285D01*
X026548Y006315D01*
X026511Y006349D01*
X026477Y006386D01*
X026445Y006425D01*
X026417Y006466D01*
X026392Y006510D01*
X026371Y006555D01*
X026354Y006602D01*
X026340Y006650D01*
X026330Y006699D01*
X026324Y006749D01*
X026322Y006799D01*
X038506Y007193D02*
X038508Y007243D01*
X038514Y007293D01*
X038524Y007343D01*
X038537Y007391D01*
X038554Y007439D01*
X038575Y007485D01*
X038599Y007529D01*
X038627Y007571D01*
X038658Y007611D01*
X038692Y007648D01*
X038729Y007683D01*
X038768Y007714D01*
X038809Y007743D01*
X038853Y007768D01*
X038899Y007790D01*
X038946Y007808D01*
X038994Y007822D01*
X039043Y007833D01*
X039093Y007840D01*
X039143Y007843D01*
X039194Y007842D01*
X039244Y007837D01*
X039294Y007828D01*
X039342Y007816D01*
X039390Y007799D01*
X039436Y007779D01*
X039481Y007756D01*
X039524Y007729D01*
X039564Y007699D01*
X039602Y007666D01*
X039637Y007630D01*
X039670Y007591D01*
X039699Y007550D01*
X039725Y007507D01*
X039748Y007462D01*
X039767Y007415D01*
X039782Y007367D01*
X039794Y007318D01*
X039802Y007268D01*
X039806Y007218D01*
X039806Y007168D01*
X039802Y007118D01*
X039794Y007068D01*
X039782Y007019D01*
X039767Y006971D01*
X039748Y006924D01*
X039725Y006879D01*
X039699Y006836D01*
X039670Y006795D01*
X039637Y006756D01*
X039602Y006720D01*
X039564Y006687D01*
X039524Y006657D01*
X039481Y006630D01*
X039436Y006607D01*
X039390Y006587D01*
X039342Y006570D01*
X039294Y006558D01*
X039244Y006549D01*
X039194Y006544D01*
X039143Y006543D01*
X039093Y006546D01*
X039043Y006553D01*
X038994Y006564D01*
X038946Y006578D01*
X038899Y006596D01*
X038853Y006618D01*
X038809Y006643D01*
X038768Y006672D01*
X038729Y006703D01*
X038692Y006738D01*
X038658Y006775D01*
X038627Y006815D01*
X038599Y006857D01*
X038575Y006901D01*
X038554Y006947D01*
X038537Y006995D01*
X038524Y007043D01*
X038514Y007093D01*
X038508Y007143D01*
X038506Y007193D01*
X038506Y025303D02*
X038508Y025353D01*
X038514Y025403D01*
X038524Y025453D01*
X038537Y025501D01*
X038554Y025549D01*
X038575Y025595D01*
X038599Y025639D01*
X038627Y025681D01*
X038658Y025721D01*
X038692Y025758D01*
X038729Y025793D01*
X038768Y025824D01*
X038809Y025853D01*
X038853Y025878D01*
X038899Y025900D01*
X038946Y025918D01*
X038994Y025932D01*
X039043Y025943D01*
X039093Y025950D01*
X039143Y025953D01*
X039194Y025952D01*
X039244Y025947D01*
X039294Y025938D01*
X039342Y025926D01*
X039390Y025909D01*
X039436Y025889D01*
X039481Y025866D01*
X039524Y025839D01*
X039564Y025809D01*
X039602Y025776D01*
X039637Y025740D01*
X039670Y025701D01*
X039699Y025660D01*
X039725Y025617D01*
X039748Y025572D01*
X039767Y025525D01*
X039782Y025477D01*
X039794Y025428D01*
X039802Y025378D01*
X039806Y025328D01*
X039806Y025278D01*
X039802Y025228D01*
X039794Y025178D01*
X039782Y025129D01*
X039767Y025081D01*
X039748Y025034D01*
X039725Y024989D01*
X039699Y024946D01*
X039670Y024905D01*
X039637Y024866D01*
X039602Y024830D01*
X039564Y024797D01*
X039524Y024767D01*
X039481Y024740D01*
X039436Y024717D01*
X039390Y024697D01*
X039342Y024680D01*
X039294Y024668D01*
X039244Y024659D01*
X039194Y024654D01*
X039143Y024653D01*
X039093Y024656D01*
X039043Y024663D01*
X038994Y024674D01*
X038946Y024688D01*
X038899Y024706D01*
X038853Y024728D01*
X038809Y024753D01*
X038768Y024782D01*
X038729Y024813D01*
X038692Y024848D01*
X038658Y024885D01*
X038627Y024925D01*
X038599Y024967D01*
X038575Y025011D01*
X038554Y025057D01*
X038537Y025105D01*
X038524Y025153D01*
X038514Y025203D01*
X038508Y025253D01*
X038506Y025303D01*
X038506Y043413D02*
X038508Y043463D01*
X038514Y043513D01*
X038524Y043563D01*
X038537Y043611D01*
X038554Y043659D01*
X038575Y043705D01*
X038599Y043749D01*
X038627Y043791D01*
X038658Y043831D01*
X038692Y043868D01*
X038729Y043903D01*
X038768Y043934D01*
X038809Y043963D01*
X038853Y043988D01*
X038899Y044010D01*
X038946Y044028D01*
X038994Y044042D01*
X039043Y044053D01*
X039093Y044060D01*
X039143Y044063D01*
X039194Y044062D01*
X039244Y044057D01*
X039294Y044048D01*
X039342Y044036D01*
X039390Y044019D01*
X039436Y043999D01*
X039481Y043976D01*
X039524Y043949D01*
X039564Y043919D01*
X039602Y043886D01*
X039637Y043850D01*
X039670Y043811D01*
X039699Y043770D01*
X039725Y043727D01*
X039748Y043682D01*
X039767Y043635D01*
X039782Y043587D01*
X039794Y043538D01*
X039802Y043488D01*
X039806Y043438D01*
X039806Y043388D01*
X039802Y043338D01*
X039794Y043288D01*
X039782Y043239D01*
X039767Y043191D01*
X039748Y043144D01*
X039725Y043099D01*
X039699Y043056D01*
X039670Y043015D01*
X039637Y042976D01*
X039602Y042940D01*
X039564Y042907D01*
X039524Y042877D01*
X039481Y042850D01*
X039436Y042827D01*
X039390Y042807D01*
X039342Y042790D01*
X039294Y042778D01*
X039244Y042769D01*
X039194Y042764D01*
X039143Y042763D01*
X039093Y042766D01*
X039043Y042773D01*
X038994Y042784D01*
X038946Y042798D01*
X038899Y042816D01*
X038853Y042838D01*
X038809Y042863D01*
X038768Y042892D01*
X038729Y042923D01*
X038692Y042958D01*
X038658Y042995D01*
X038627Y043035D01*
X038599Y043077D01*
X038575Y043121D01*
X038554Y043167D01*
X038537Y043215D01*
X038524Y043263D01*
X038514Y043313D01*
X038508Y043363D01*
X038506Y043413D01*
X002286Y043413D02*
X002288Y043463D01*
X002294Y043513D01*
X002304Y043563D01*
X002317Y043611D01*
X002334Y043659D01*
X002355Y043705D01*
X002379Y043749D01*
X002407Y043791D01*
X002438Y043831D01*
X002472Y043868D01*
X002509Y043903D01*
X002548Y043934D01*
X002589Y043963D01*
X002633Y043988D01*
X002679Y044010D01*
X002726Y044028D01*
X002774Y044042D01*
X002823Y044053D01*
X002873Y044060D01*
X002923Y044063D01*
X002974Y044062D01*
X003024Y044057D01*
X003074Y044048D01*
X003122Y044036D01*
X003170Y044019D01*
X003216Y043999D01*
X003261Y043976D01*
X003304Y043949D01*
X003344Y043919D01*
X003382Y043886D01*
X003417Y043850D01*
X003450Y043811D01*
X003479Y043770D01*
X003505Y043727D01*
X003528Y043682D01*
X003547Y043635D01*
X003562Y043587D01*
X003574Y043538D01*
X003582Y043488D01*
X003586Y043438D01*
X003586Y043388D01*
X003582Y043338D01*
X003574Y043288D01*
X003562Y043239D01*
X003547Y043191D01*
X003528Y043144D01*
X003505Y043099D01*
X003479Y043056D01*
X003450Y043015D01*
X003417Y042976D01*
X003382Y042940D01*
X003344Y042907D01*
X003304Y042877D01*
X003261Y042850D01*
X003216Y042827D01*
X003170Y042807D01*
X003122Y042790D01*
X003074Y042778D01*
X003024Y042769D01*
X002974Y042764D01*
X002923Y042763D01*
X002873Y042766D01*
X002823Y042773D01*
X002774Y042784D01*
X002726Y042798D01*
X002679Y042816D01*
X002633Y042838D01*
X002589Y042863D01*
X002548Y042892D01*
X002509Y042923D01*
X002472Y042958D01*
X002438Y042995D01*
X002407Y043035D01*
X002379Y043077D01*
X002355Y043121D01*
X002334Y043167D01*
X002317Y043215D01*
X002304Y043263D01*
X002294Y043313D01*
X002288Y043363D01*
X002286Y043413D01*
X002286Y025303D02*
X002288Y025353D01*
X002294Y025403D01*
X002304Y025453D01*
X002317Y025501D01*
X002334Y025549D01*
X002355Y025595D01*
X002379Y025639D01*
X002407Y025681D01*
X002438Y025721D01*
X002472Y025758D01*
X002509Y025793D01*
X002548Y025824D01*
X002589Y025853D01*
X002633Y025878D01*
X002679Y025900D01*
X002726Y025918D01*
X002774Y025932D01*
X002823Y025943D01*
X002873Y025950D01*
X002923Y025953D01*
X002974Y025952D01*
X003024Y025947D01*
X003074Y025938D01*
X003122Y025926D01*
X003170Y025909D01*
X003216Y025889D01*
X003261Y025866D01*
X003304Y025839D01*
X003344Y025809D01*
X003382Y025776D01*
X003417Y025740D01*
X003450Y025701D01*
X003479Y025660D01*
X003505Y025617D01*
X003528Y025572D01*
X003547Y025525D01*
X003562Y025477D01*
X003574Y025428D01*
X003582Y025378D01*
X003586Y025328D01*
X003586Y025278D01*
X003582Y025228D01*
X003574Y025178D01*
X003562Y025129D01*
X003547Y025081D01*
X003528Y025034D01*
X003505Y024989D01*
X003479Y024946D01*
X003450Y024905D01*
X003417Y024866D01*
X003382Y024830D01*
X003344Y024797D01*
X003304Y024767D01*
X003261Y024740D01*
X003216Y024717D01*
X003170Y024697D01*
X003122Y024680D01*
X003074Y024668D01*
X003024Y024659D01*
X002974Y024654D01*
X002923Y024653D01*
X002873Y024656D01*
X002823Y024663D01*
X002774Y024674D01*
X002726Y024688D01*
X002679Y024706D01*
X002633Y024728D01*
X002589Y024753D01*
X002548Y024782D01*
X002509Y024813D01*
X002472Y024848D01*
X002438Y024885D01*
X002407Y024925D01*
X002379Y024967D01*
X002355Y025011D01*
X002334Y025057D01*
X002317Y025105D01*
X002304Y025153D01*
X002294Y025203D01*
X002288Y025253D01*
X002286Y025303D01*
D11*
X022368Y012444D02*
X022368Y012382D01*
X022430Y012382D01*
X022430Y012444D01*
X022368Y012444D01*
X022551Y012444D02*
X022613Y012506D01*
X022736Y012506D01*
X022798Y012567D01*
X022736Y012629D01*
X022551Y012629D01*
X022551Y012444D02*
X022613Y012382D01*
X022798Y012382D01*
X022920Y012629D02*
X022981Y012629D01*
X023105Y012506D01*
X023105Y012629D02*
X023105Y012382D01*
X023226Y012444D02*
X023226Y012567D01*
X023288Y012629D01*
X023412Y012629D01*
X023473Y012567D01*
X023473Y012444D01*
X023412Y012382D01*
X023288Y012382D01*
X023226Y012444D01*
X023595Y012382D02*
X023657Y012444D01*
X023657Y012691D01*
X023719Y012629D02*
X023595Y012629D01*
X023840Y012567D02*
X023902Y012629D01*
X024025Y012629D01*
X024087Y012567D01*
X024087Y012444D01*
X024025Y012382D01*
X023902Y012382D01*
X023840Y012444D01*
X023840Y012567D01*
X024209Y012567D02*
X024209Y012382D01*
X024332Y012382D02*
X024332Y012567D01*
X024270Y012629D01*
X024209Y012567D01*
X024332Y012567D02*
X024394Y012629D01*
X024455Y012629D01*
X024455Y012382D01*
X024945Y012506D02*
X024945Y012567D01*
X025007Y012629D01*
X025130Y012629D01*
X025192Y012567D01*
X025192Y012444D01*
X025130Y012382D01*
X025007Y012382D01*
X024945Y012506D02*
X025192Y012506D01*
X025313Y012567D02*
X025313Y012382D01*
X025313Y012567D02*
X025375Y012629D01*
X025499Y012629D01*
X025560Y012567D01*
X025682Y012629D02*
X025806Y012629D01*
X025744Y012691D02*
X025744Y012444D01*
X025682Y012382D01*
X025560Y012382D02*
X025560Y012753D01*
X026296Y012629D02*
X026420Y012629D01*
X026358Y012691D02*
X026358Y012444D01*
X026296Y012382D01*
X026541Y012444D02*
X026603Y012506D01*
X026726Y012506D01*
X026788Y012567D01*
X026726Y012629D01*
X026541Y012629D01*
X026541Y012444D02*
X026603Y012382D01*
X026788Y012382D01*
X026910Y012506D02*
X027156Y012506D01*
X027156Y012567D02*
X027156Y012444D01*
X027095Y012382D01*
X026971Y012382D01*
X026910Y012506D02*
X026910Y012567D01*
X026971Y012629D01*
X027095Y012629D01*
X027156Y012567D01*
X027278Y012629D02*
X027402Y012629D01*
X027340Y012691D02*
X027340Y012444D01*
X027278Y012382D01*
X027892Y012382D02*
X027892Y012753D01*
X027892Y012629D02*
X028077Y012629D01*
X028139Y012567D01*
X028139Y012444D01*
X028077Y012382D01*
X027892Y012382D01*
X028260Y012382D02*
X028260Y012567D01*
X028322Y012629D01*
X028507Y012629D01*
X028507Y012382D01*
X028628Y012382D02*
X028628Y012567D01*
X028690Y012629D01*
X028813Y012629D01*
X028813Y012506D02*
X028628Y012506D01*
X028628Y012382D02*
X028813Y012382D01*
X028875Y012444D01*
X028813Y012506D01*
X029365Y012629D02*
X029550Y012629D01*
X029612Y012567D01*
X029612Y012444D01*
X029550Y012382D01*
X029365Y012382D01*
X029365Y012321D02*
X029365Y012629D01*
X029365Y012321D02*
X029427Y012259D01*
X029488Y012259D01*
X029733Y012382D02*
X029733Y012567D01*
X029795Y012629D01*
X029980Y012629D01*
X029980Y012382D01*
X030102Y012382D02*
X030226Y012382D01*
X030164Y012382D02*
X030164Y012629D01*
X030226Y012629D01*
X030348Y012629D02*
X030471Y012629D01*
X030409Y012691D02*
X030409Y012444D01*
X030348Y012382D01*
X030593Y012382D02*
X030593Y012567D01*
X030654Y012629D01*
X030778Y012629D01*
X030778Y012506D02*
X030593Y012506D01*
X030593Y012382D02*
X030778Y012382D01*
X030840Y012444D01*
X030778Y012506D01*
X030961Y012629D02*
X031023Y012629D01*
X031146Y012506D01*
X031146Y012629D02*
X031146Y012382D01*
X031268Y012444D02*
X031268Y012567D01*
X031330Y012629D01*
X031515Y012629D01*
X031515Y012753D02*
X031515Y012382D01*
X031330Y012382D01*
X031268Y012444D01*
X031637Y012382D02*
X031760Y012382D01*
X031699Y012382D02*
X031699Y012629D01*
X031760Y012629D01*
X031699Y012753D02*
X031699Y012814D01*
X031760Y012982D02*
X031821Y013044D01*
X031821Y013291D01*
X031760Y013229D02*
X031883Y013229D01*
X032005Y013229D02*
X032190Y013229D01*
X032251Y013167D01*
X032190Y013106D01*
X032066Y013106D01*
X032005Y013044D01*
X032066Y012982D01*
X032251Y012982D01*
X032373Y013106D02*
X032620Y013106D01*
X032620Y013167D02*
X032558Y013229D01*
X032435Y013229D01*
X032373Y013167D01*
X032373Y013106D01*
X032435Y012982D02*
X032558Y012982D01*
X032620Y013044D01*
X032620Y013167D01*
X032742Y013229D02*
X032865Y013229D01*
X032804Y013291D02*
X032804Y013044D01*
X032742Y012982D01*
X032681Y012629D02*
X032742Y012567D01*
X032742Y012444D01*
X032681Y012382D01*
X032496Y012382D01*
X032374Y012444D02*
X032312Y012506D01*
X032127Y012506D01*
X032127Y012567D02*
X032127Y012382D01*
X032312Y012382D01*
X032374Y012444D01*
X032312Y012629D02*
X032189Y012629D01*
X032127Y012567D01*
X032006Y012382D02*
X031882Y012382D01*
X031944Y012382D02*
X031944Y012753D01*
X032006Y012753D01*
X032496Y012629D02*
X032681Y012629D01*
X033233Y012629D02*
X033294Y012629D01*
X033418Y012506D01*
X033418Y012629D02*
X033418Y012382D01*
X033539Y012444D02*
X033539Y012567D01*
X033601Y012629D01*
X033724Y012629D01*
X033786Y012567D01*
X033786Y012444D01*
X033724Y012382D01*
X033601Y012382D01*
X033539Y012444D01*
X033908Y012567D02*
X034032Y012567D01*
X033970Y012691D02*
X033908Y012753D01*
X033970Y012691D02*
X033970Y012382D01*
X034031Y012029D02*
X034031Y011967D01*
X034093Y011967D01*
X034093Y012029D01*
X034031Y012029D01*
X034214Y012029D02*
X034400Y012029D01*
X034461Y011967D01*
X034400Y011906D01*
X034276Y011906D01*
X034214Y011844D01*
X034276Y011782D01*
X034461Y011782D01*
X034583Y011782D02*
X034583Y011967D01*
X034644Y012029D01*
X034830Y012029D01*
X034830Y011782D01*
X034951Y011844D02*
X034951Y011967D01*
X035013Y012029D01*
X035136Y012029D01*
X035198Y011967D01*
X035198Y011844D01*
X035136Y011782D01*
X035013Y011782D01*
X034951Y011844D01*
X034891Y011553D02*
X034891Y011182D01*
X035013Y011182D02*
X035075Y011244D01*
X035075Y011491D01*
X035137Y011429D02*
X035013Y011429D01*
X034891Y011367D02*
X034829Y011429D01*
X034706Y011429D01*
X034644Y011367D01*
X034644Y011182D01*
X034523Y011244D02*
X034523Y011367D01*
X034461Y011429D01*
X034338Y011429D01*
X034276Y011367D01*
X034276Y011306D01*
X034523Y011306D01*
X034523Y011244D02*
X034461Y011182D01*
X034338Y011182D01*
X034339Y010953D02*
X034339Y010582D01*
X034215Y010706D01*
X034092Y010582D01*
X034092Y010953D01*
X033970Y010953D02*
X033970Y010582D01*
X033723Y010582D01*
X033602Y010582D02*
X033602Y010953D01*
X033417Y010953D01*
X033355Y010891D01*
X033355Y010767D01*
X033417Y010706D01*
X033602Y010706D01*
X033478Y010706D02*
X033355Y010582D01*
X033294Y010229D02*
X033232Y010167D01*
X033232Y010106D01*
X033479Y010106D01*
X033479Y010167D02*
X033417Y010229D01*
X033294Y010229D01*
X033111Y010229D02*
X033111Y010044D01*
X033049Y009982D01*
X032987Y010044D01*
X032926Y009982D01*
X032864Y010044D01*
X032864Y010229D01*
X032804Y010582D02*
X032680Y010582D01*
X032618Y010644D01*
X032618Y010891D01*
X032680Y010953D01*
X032804Y010953D01*
X032865Y010891D01*
X032865Y010644D01*
X032804Y010582D01*
X032497Y010582D02*
X032497Y010953D01*
X032250Y010582D01*
X032250Y010953D01*
X032436Y011059D02*
X032436Y011429D01*
X032250Y011429D01*
X032189Y011367D01*
X032189Y011244D01*
X032250Y011182D01*
X032436Y011182D01*
X032557Y011244D02*
X032619Y011182D01*
X032804Y011182D01*
X032804Y011059D02*
X032804Y011429D01*
X032619Y011429D01*
X032557Y011367D01*
X032557Y011244D01*
X032925Y011306D02*
X033172Y011306D01*
X033172Y011367D02*
X033110Y011429D01*
X032987Y011429D01*
X032925Y011367D01*
X032925Y011306D01*
X032987Y011182D02*
X033110Y011182D01*
X033172Y011244D01*
X033172Y011367D01*
X033294Y011429D02*
X033418Y011429D01*
X033356Y011491D02*
X033356Y011244D01*
X033294Y011182D01*
X033539Y011244D02*
X033601Y011306D01*
X033724Y011306D01*
X033786Y011367D01*
X033724Y011429D01*
X033539Y011429D01*
X033539Y011244D02*
X033601Y011182D01*
X033786Y011182D01*
X033723Y010953D02*
X033970Y010953D01*
X033970Y010767D02*
X033847Y010767D01*
X034460Y010644D02*
X034460Y010891D01*
X034522Y010953D01*
X034645Y010953D01*
X034707Y010891D01*
X034707Y010644D01*
X034645Y010582D01*
X034522Y010582D01*
X034460Y010644D01*
X034828Y010767D02*
X034890Y010706D01*
X035075Y010706D01*
X035075Y010582D02*
X035075Y010953D01*
X034890Y010953D01*
X034828Y010891D01*
X034828Y010767D01*
X035074Y010229D02*
X035012Y010167D01*
X035012Y010106D01*
X035259Y010106D01*
X035259Y010167D02*
X035198Y010229D01*
X035074Y010229D01*
X035259Y010167D02*
X035259Y010044D01*
X035198Y009982D01*
X035074Y009982D01*
X035381Y009982D02*
X035381Y010167D01*
X035442Y010229D01*
X035566Y010229D01*
X035628Y010167D01*
X035750Y010229D02*
X035873Y010229D01*
X035811Y010291D02*
X035811Y010044D01*
X035750Y009982D01*
X035628Y009982D02*
X035628Y010353D01*
X035627Y010582D02*
X035565Y010644D01*
X035627Y010706D01*
X035750Y010706D01*
X035812Y010767D01*
X035750Y010829D01*
X035565Y010829D01*
X035627Y010582D02*
X035812Y010582D01*
X035933Y010644D02*
X035995Y010706D01*
X036118Y010706D01*
X036180Y010767D01*
X036118Y010829D01*
X035933Y010829D01*
X035933Y010644D02*
X035995Y010582D01*
X036180Y010582D01*
X036302Y010706D02*
X036548Y010706D01*
X036548Y010767D02*
X036487Y010829D01*
X036363Y010829D01*
X036302Y010767D01*
X036302Y010706D01*
X036363Y010582D02*
X036487Y010582D01*
X036548Y010644D01*
X036548Y010767D01*
X036670Y010829D02*
X036732Y010829D01*
X036855Y010706D01*
X036855Y010829D02*
X036855Y010582D01*
X037038Y010706D02*
X037224Y010706D01*
X037224Y010582D02*
X037224Y010953D01*
X037038Y010953D01*
X036977Y010891D01*
X036977Y010767D01*
X037038Y010706D01*
X037038Y010353D02*
X037162Y010353D01*
X037224Y010291D01*
X037224Y010044D01*
X037162Y009982D01*
X037038Y009982D01*
X036977Y010044D01*
X036977Y010167D01*
X037100Y010167D01*
X036977Y010291D02*
X037038Y010353D01*
X036855Y010167D02*
X036794Y010229D01*
X036670Y010229D01*
X036608Y010167D01*
X036608Y010106D01*
X036855Y010106D01*
X036855Y010167D02*
X036855Y010044D01*
X036794Y009982D01*
X036670Y009982D01*
X036425Y010044D02*
X036364Y009982D01*
X036425Y010044D02*
X036425Y010291D01*
X036364Y010229D02*
X036487Y010229D01*
X036547Y009629D02*
X036671Y009629D01*
X036733Y009567D01*
X036733Y009444D01*
X036671Y009382D01*
X036547Y009382D01*
X036486Y009444D01*
X036486Y009567D01*
X036547Y009629D01*
X036364Y009629D02*
X036364Y009444D01*
X036303Y009382D01*
X036117Y009382D01*
X036117Y009629D01*
X035628Y009629D02*
X035628Y009444D01*
X035566Y009382D01*
X035504Y009444D01*
X035442Y009382D01*
X035381Y009444D01*
X035381Y009629D01*
X035198Y009629D02*
X035074Y009629D01*
X035012Y009567D01*
X035012Y009382D01*
X035198Y009382D01*
X035259Y009444D01*
X035198Y009506D01*
X035012Y009506D01*
X034891Y009629D02*
X034706Y009629D01*
X034644Y009567D01*
X034644Y009382D01*
X034461Y009444D02*
X034399Y009382D01*
X034461Y009444D02*
X034461Y009691D01*
X034523Y009629D02*
X034399Y009629D01*
X034338Y009982D02*
X034276Y010044D01*
X034338Y010106D01*
X034461Y010106D01*
X034523Y010167D01*
X034461Y010229D01*
X034276Y010229D01*
X034154Y010167D02*
X034154Y010044D01*
X034093Y009982D01*
X033907Y009982D01*
X033786Y009982D02*
X033786Y010229D01*
X033907Y010229D02*
X034093Y010229D01*
X034154Y010167D01*
X034338Y009982D02*
X034523Y009982D01*
X034891Y009629D02*
X034891Y009382D01*
X034951Y009029D02*
X034890Y008967D01*
X034890Y008782D01*
X035075Y008782D01*
X035137Y008844D01*
X035075Y008906D01*
X034890Y008906D01*
X034951Y009029D02*
X035075Y009029D01*
X035627Y009029D02*
X035750Y009029D01*
X035689Y009091D02*
X035689Y008844D01*
X035627Y008782D01*
X035872Y008782D02*
X036057Y008782D01*
X036119Y008844D01*
X036119Y008967D01*
X036057Y009029D01*
X035872Y009029D01*
X036240Y008967D02*
X036240Y008906D01*
X036487Y008906D01*
X036487Y008967D02*
X036425Y009029D01*
X036302Y009029D01*
X036240Y008967D01*
X036302Y008782D02*
X036425Y008782D01*
X036487Y008844D01*
X036487Y008967D01*
X036608Y008967D02*
X036608Y008782D01*
X036608Y008967D02*
X036670Y009029D01*
X036855Y009029D01*
X036855Y008782D01*
X036977Y008782D02*
X036977Y008967D01*
X037038Y009029D01*
X037224Y009029D01*
X037224Y008782D01*
X037345Y008844D02*
X037345Y008967D01*
X037407Y009029D01*
X037530Y009029D01*
X037592Y008967D01*
X037592Y008844D01*
X037530Y008782D01*
X037407Y008782D01*
X037345Y008844D01*
X037713Y008782D02*
X037899Y008782D01*
X037960Y008844D01*
X037960Y008967D01*
X037899Y009029D01*
X037713Y009029D01*
X037653Y009382D02*
X037653Y009691D01*
X037591Y009753D01*
X037591Y009567D02*
X037715Y009567D01*
X037837Y009382D02*
X037960Y009382D01*
X037899Y009382D02*
X037899Y009753D01*
X037960Y009753D02*
X037837Y009753D01*
X037960Y010167D02*
X037713Y010167D01*
X037101Y009629D02*
X037101Y009444D01*
X037039Y009382D01*
X036854Y009382D01*
X036854Y009321D02*
X036916Y009259D01*
X036977Y009259D01*
X036854Y009321D02*
X036854Y009629D01*
X037713Y010767D02*
X037960Y010767D01*
X037960Y011367D02*
X037713Y011367D01*
X037715Y011782D02*
X037715Y012029D01*
X037530Y012029D01*
X037468Y011967D01*
X037468Y011782D01*
X037346Y011782D02*
X037161Y011782D01*
X037100Y011844D01*
X037161Y011906D01*
X037285Y011906D01*
X037346Y011967D01*
X037285Y012029D01*
X037100Y012029D01*
X036978Y012029D02*
X036855Y012029D01*
X036916Y012091D02*
X036916Y011844D01*
X036855Y011782D01*
X036733Y011782D02*
X036733Y012029D01*
X036733Y011906D02*
X036609Y012029D01*
X036547Y012029D01*
X036426Y012029D02*
X036426Y011844D01*
X036364Y011782D01*
X036179Y011782D01*
X036179Y012029D01*
X036057Y011967D02*
X036057Y011844D01*
X035996Y011782D01*
X035810Y011782D01*
X035627Y011844D02*
X035566Y011782D01*
X035627Y011844D02*
X035627Y012091D01*
X035566Y012029D02*
X035689Y012029D01*
X035810Y012029D02*
X035996Y012029D01*
X036057Y011967D01*
X036056Y012382D02*
X035995Y012444D01*
X035995Y012567D01*
X036056Y012629D01*
X036241Y012629D01*
X036241Y012753D02*
X036241Y012382D01*
X036056Y012382D01*
X035873Y012444D02*
X035873Y012567D01*
X035811Y012629D01*
X035688Y012629D01*
X035626Y012567D01*
X035626Y012506D01*
X035873Y012506D01*
X035873Y012444D02*
X035811Y012382D01*
X035688Y012382D01*
X035505Y012382D02*
X035505Y012629D01*
X035320Y012629D01*
X035258Y012567D01*
X035258Y012382D01*
X035137Y012444D02*
X035075Y012382D01*
X034890Y012382D01*
X034768Y012382D02*
X034768Y012753D01*
X034706Y012629D02*
X034583Y012629D01*
X034521Y012567D01*
X034521Y012382D01*
X034768Y012567D02*
X034706Y012629D01*
X034890Y012629D02*
X035075Y012629D01*
X035137Y012567D01*
X035137Y012444D01*
X035382Y012214D02*
X035382Y012153D01*
X035382Y012029D02*
X035382Y011782D01*
X035443Y011782D02*
X035320Y011782D01*
X035382Y012029D02*
X035443Y012029D01*
X035688Y011429D02*
X035626Y011367D01*
X035626Y011306D01*
X035873Y011306D01*
X035873Y011367D02*
X035811Y011429D01*
X035688Y011429D01*
X035873Y011367D02*
X035873Y011244D01*
X035811Y011182D01*
X035688Y011182D01*
X035995Y011182D02*
X036180Y011182D01*
X036241Y011244D01*
X036241Y011367D01*
X036180Y011429D01*
X035995Y011429D01*
X036363Y011367D02*
X036363Y011182D01*
X036548Y011182D01*
X036610Y011244D01*
X036548Y011306D01*
X036363Y011306D01*
X036363Y011367D02*
X036425Y011429D01*
X036548Y011429D01*
X036794Y011553D02*
X036794Y011182D01*
X036855Y011182D02*
X036732Y011182D01*
X036977Y011367D02*
X037038Y011306D01*
X037224Y011306D01*
X037224Y011182D02*
X037224Y011553D01*
X037038Y011553D01*
X036977Y011491D01*
X036977Y011367D01*
X036855Y011553D02*
X036794Y011553D01*
X036732Y012382D02*
X036794Y012444D01*
X036794Y012691D01*
X036855Y012629D02*
X036732Y012629D01*
X036977Y012629D02*
X037162Y012629D01*
X037224Y012567D01*
X037162Y012506D01*
X037038Y012506D01*
X036977Y012444D01*
X037038Y012382D01*
X037224Y012382D01*
X037345Y012506D02*
X037345Y012567D01*
X037407Y012629D01*
X037530Y012629D01*
X037592Y012567D01*
X037592Y012444D01*
X037530Y012382D01*
X037407Y012382D01*
X037345Y012506D02*
X037592Y012506D01*
X037837Y012382D02*
X037837Y012753D01*
X037960Y012753D02*
X037713Y012753D01*
X037775Y012982D02*
X037713Y013044D01*
X037713Y013106D01*
X037775Y013167D01*
X037899Y013167D01*
X037960Y013229D01*
X037960Y013291D01*
X037899Y013353D01*
X037775Y013353D01*
X037713Y013291D01*
X037592Y013229D02*
X037469Y013229D01*
X037530Y013291D02*
X037530Y013044D01*
X037469Y012982D01*
X037346Y013044D02*
X037285Y012982D01*
X037161Y012982D01*
X037100Y013106D02*
X037346Y013106D01*
X037346Y013167D02*
X037285Y013229D01*
X037161Y013229D01*
X037100Y013167D01*
X037100Y013106D01*
X036978Y013229D02*
X036793Y013229D01*
X036731Y013167D01*
X036731Y013044D01*
X036793Y012982D01*
X036978Y012982D01*
X036978Y012859D02*
X036978Y013229D01*
X036610Y013229D02*
X036610Y012859D01*
X036610Y012982D02*
X036425Y012982D01*
X036363Y013044D01*
X036363Y013167D01*
X036425Y013229D01*
X036610Y013229D01*
X036670Y013582D02*
X036855Y013582D01*
X036917Y013644D01*
X036917Y013767D01*
X036855Y013829D01*
X036670Y013829D01*
X036670Y014182D02*
X036794Y014182D01*
X036855Y014244D01*
X036977Y014182D02*
X036977Y014553D01*
X036855Y014491D02*
X036794Y014553D01*
X036670Y014553D01*
X036608Y014491D01*
X036608Y014429D01*
X036670Y014367D01*
X036608Y014306D01*
X036608Y014244D01*
X036670Y014182D01*
X036487Y014182D02*
X036302Y014182D01*
X036240Y014244D01*
X036240Y014491D01*
X036302Y014553D01*
X036487Y014553D01*
X036487Y014182D01*
X036670Y014367D02*
X036732Y014367D01*
X036977Y014182D02*
X037224Y014553D01*
X037224Y014182D01*
X037345Y014244D02*
X037407Y014182D01*
X037530Y014182D01*
X037592Y014244D01*
X037592Y014491D01*
X037530Y014553D01*
X037407Y014553D01*
X037345Y014491D01*
X037713Y014491D02*
X037713Y014429D01*
X037775Y014367D01*
X037960Y014367D01*
X037960Y014182D02*
X037775Y014182D01*
X037713Y014244D01*
X037713Y014306D01*
X037775Y014367D01*
X037713Y014491D02*
X037775Y014553D01*
X037960Y014553D01*
X037960Y014182D01*
X037960Y013953D02*
X037837Y013829D01*
X037713Y013953D01*
X037713Y013582D01*
X037592Y013644D02*
X037530Y013706D01*
X037345Y013706D01*
X037345Y013767D02*
X037345Y013582D01*
X037530Y013582D01*
X037592Y013644D01*
X037530Y013829D02*
X037407Y013829D01*
X037345Y013767D01*
X037224Y013706D02*
X037100Y013829D01*
X037038Y013829D01*
X037224Y013829D02*
X037224Y013582D01*
X037346Y013167D02*
X037346Y013044D01*
X037775Y012982D02*
X037899Y012982D01*
X037960Y013044D01*
X037960Y013582D02*
X037960Y013953D01*
X036180Y013891D02*
X036180Y013644D01*
X036118Y013582D01*
X035995Y013582D01*
X035933Y013644D01*
X035812Y013644D02*
X035750Y013582D01*
X035627Y013582D01*
X035565Y013644D01*
X035565Y013767D01*
X035627Y013829D01*
X035750Y013829D01*
X035812Y013767D01*
X035812Y013644D01*
X035933Y013891D02*
X035995Y013953D01*
X036118Y013953D01*
X036180Y013891D01*
X035995Y014182D02*
X035995Y014553D01*
X035872Y014553D02*
X036119Y014553D01*
X035750Y014367D02*
X035689Y014429D01*
X035565Y014429D01*
X035504Y014367D01*
X035504Y014306D01*
X035750Y014306D01*
X035750Y014367D02*
X035750Y014244D01*
X035689Y014182D01*
X035565Y014182D01*
X035382Y014244D02*
X035320Y014182D01*
X035135Y014182D01*
X035014Y014182D02*
X035014Y014553D01*
X034952Y014429D02*
X035014Y014367D01*
X034952Y014429D02*
X034829Y014429D01*
X034767Y014367D01*
X034767Y014182D01*
X034645Y014182D02*
X034645Y014429D01*
X034460Y014429D01*
X034399Y014367D01*
X034399Y014182D01*
X034277Y014244D02*
X034215Y014182D01*
X034092Y014182D01*
X034030Y014244D01*
X034030Y014367D01*
X034092Y014429D01*
X034215Y014429D01*
X034277Y014367D01*
X034277Y014244D01*
X033909Y014182D02*
X033785Y014182D01*
X033847Y014182D02*
X033847Y014553D01*
X033909Y014553D01*
X033663Y014367D02*
X033602Y014429D01*
X033478Y014429D01*
X033416Y014367D01*
X033416Y014244D01*
X033478Y014182D01*
X033602Y014182D01*
X033663Y014244D01*
X033663Y014367D01*
X033295Y014367D02*
X033233Y014429D01*
X033048Y014429D01*
X033048Y014121D01*
X033110Y014059D01*
X033172Y014059D01*
X033233Y014182D02*
X033048Y014182D01*
X032927Y014182D02*
X032803Y014182D01*
X032865Y014182D02*
X032865Y014429D01*
X032927Y014429D01*
X032865Y014553D02*
X032865Y014614D01*
X032619Y014429D02*
X032681Y014367D01*
X032681Y014244D01*
X032619Y014182D01*
X032496Y014182D01*
X032434Y014306D02*
X032681Y014306D01*
X032619Y014429D02*
X032496Y014429D01*
X032434Y014367D01*
X032434Y014306D01*
X032313Y014367D02*
X032251Y014429D01*
X032066Y014429D01*
X032128Y014306D02*
X032251Y014306D01*
X032313Y014367D01*
X032313Y014182D02*
X032128Y014182D01*
X032066Y014244D01*
X032128Y014306D01*
X032251Y013953D02*
X032251Y013582D01*
X032313Y013582D02*
X032189Y013582D01*
X032067Y013644D02*
X032006Y013582D01*
X031820Y013582D01*
X031820Y013521D02*
X031882Y013459D01*
X031944Y013459D01*
X031820Y013521D02*
X031820Y013829D01*
X032067Y013829D02*
X032067Y013644D01*
X032251Y013953D02*
X032313Y013953D01*
X032434Y013829D02*
X032434Y013582D01*
X032619Y013582D01*
X032681Y013644D01*
X032681Y013829D01*
X032803Y013953D02*
X032926Y013953D01*
X032864Y013953D02*
X032864Y013644D01*
X032926Y013582D01*
X032988Y013582D01*
X033049Y013644D01*
X033539Y013767D02*
X033786Y013767D01*
X034276Y013829D02*
X034338Y013829D01*
X034461Y013706D01*
X034583Y013706D02*
X034830Y013706D01*
X034830Y013767D02*
X034768Y013829D01*
X034644Y013829D01*
X034583Y013767D01*
X034583Y013706D01*
X034644Y013582D02*
X034768Y013582D01*
X034830Y013644D01*
X034830Y013767D01*
X034952Y013582D02*
X035075Y013582D01*
X035013Y013582D02*
X035013Y013953D01*
X035075Y013953D01*
X035258Y013829D02*
X035443Y013829D01*
X035443Y013953D02*
X035443Y013582D01*
X035258Y013582D01*
X035197Y013644D01*
X035197Y013767D01*
X035258Y013829D01*
X035382Y014244D02*
X035382Y014367D01*
X035320Y014429D01*
X035135Y014429D01*
X034461Y013829D02*
X034461Y013582D01*
X034461Y013414D02*
X034461Y013353D01*
X034461Y013229D02*
X034461Y012982D01*
X034523Y012982D02*
X034399Y012982D01*
X034154Y012982D02*
X034030Y013229D01*
X033909Y013167D02*
X033847Y013229D01*
X033724Y013229D01*
X033662Y013167D01*
X033662Y013106D01*
X033909Y013106D01*
X033909Y013167D02*
X033909Y013044D01*
X033847Y012982D01*
X033724Y012982D01*
X033541Y012982D02*
X033541Y013229D01*
X033541Y013106D02*
X033417Y013229D01*
X033355Y013229D01*
X034154Y012982D02*
X034277Y013229D01*
X034461Y013229D02*
X034523Y013229D01*
X034644Y013229D02*
X034706Y013229D01*
X034830Y013106D01*
X034830Y013229D02*
X034830Y012982D01*
X034951Y012982D02*
X035136Y012982D01*
X035198Y013044D01*
X035198Y013167D01*
X035136Y013229D01*
X034951Y013229D01*
X034951Y013353D02*
X034951Y012982D01*
X035688Y013229D02*
X035750Y013229D01*
X035873Y013106D01*
X035995Y013106D02*
X036241Y013106D01*
X036241Y013167D02*
X036180Y013229D01*
X036056Y013229D01*
X035995Y013167D01*
X035995Y013106D01*
X036056Y012982D02*
X036180Y012982D01*
X036241Y013044D01*
X036241Y013167D01*
X035873Y013229D02*
X035873Y012982D01*
X034093Y011844D02*
X034093Y011782D01*
X034031Y011782D01*
X034031Y011844D01*
X034093Y011844D01*
X033663Y010229D02*
X033601Y010229D01*
X033663Y010229D02*
X033786Y010106D01*
X033479Y010044D02*
X033479Y010167D01*
X033479Y010044D02*
X033417Y009982D01*
X033294Y009982D01*
X033478Y009629D02*
X033602Y009629D01*
X033663Y009567D01*
X033663Y009444D01*
X033602Y009382D01*
X033478Y009382D01*
X033416Y009444D01*
X033416Y009567D01*
X033478Y009629D01*
X033785Y009629D02*
X033909Y009629D01*
X033847Y009691D02*
X033847Y009444D01*
X033785Y009382D01*
X033602Y009091D02*
X033602Y008844D01*
X033540Y008782D01*
X033418Y008844D02*
X033356Y008782D01*
X033233Y008782D01*
X033171Y008844D01*
X033171Y008967D01*
X033233Y009029D01*
X033356Y009029D01*
X033418Y008967D01*
X033418Y008844D01*
X033540Y009029D02*
X033663Y009029D01*
X033785Y008967D02*
X033846Y009029D01*
X033970Y009029D01*
X034032Y008967D01*
X034032Y008844D01*
X033970Y008782D01*
X033846Y008782D01*
X033785Y008844D01*
X033785Y008967D01*
X034153Y008967D02*
X034153Y008782D01*
X034276Y008782D02*
X034276Y008967D01*
X034215Y009029D01*
X034153Y008967D01*
X034276Y008967D02*
X034338Y009029D01*
X034400Y009029D01*
X034400Y008782D01*
X033049Y008782D02*
X033049Y009029D01*
X032926Y009029D02*
X032864Y009029D01*
X032926Y009029D02*
X033049Y008906D01*
X032927Y009259D02*
X032927Y009629D01*
X032741Y009629D01*
X032680Y009567D01*
X032680Y009444D01*
X032741Y009382D01*
X032927Y009382D01*
X032558Y009444D02*
X032558Y009567D01*
X032497Y009629D01*
X032373Y009629D01*
X032311Y009567D01*
X032311Y009506D01*
X032558Y009506D01*
X032558Y009444D02*
X032497Y009382D01*
X032373Y009382D01*
X032190Y009382D02*
X032190Y009629D01*
X032190Y009506D02*
X032067Y009629D01*
X032005Y009629D01*
X031883Y009567D02*
X031760Y009567D01*
X031638Y009567D02*
X031638Y009444D01*
X031576Y009382D01*
X031452Y009382D01*
X031391Y009444D01*
X031391Y009567D01*
X031452Y009629D01*
X031576Y009629D01*
X031638Y009567D01*
X031821Y009691D02*
X031760Y009753D01*
X031821Y009691D02*
X031821Y009382D01*
X031821Y009029D02*
X031759Y008967D01*
X031759Y008782D01*
X031638Y008844D02*
X031576Y008782D01*
X031391Y008782D01*
X031391Y009153D01*
X031391Y009029D02*
X031576Y009029D01*
X031638Y008967D01*
X031638Y008844D01*
X031821Y009029D02*
X032006Y009029D01*
X032006Y008782D01*
X032127Y008782D02*
X032312Y008782D01*
X032374Y008844D01*
X032312Y008906D01*
X032127Y008906D01*
X032127Y008967D02*
X032127Y008782D01*
X032127Y008967D02*
X032189Y009029D01*
X032312Y009029D01*
X032312Y009982D02*
X032127Y009982D01*
X032127Y010353D01*
X032127Y010229D02*
X032312Y010229D01*
X032374Y010167D01*
X032374Y010044D01*
X032312Y009982D01*
X032006Y009982D02*
X032006Y010229D01*
X032006Y010106D02*
X031882Y010229D01*
X031821Y010229D01*
X031699Y010229D02*
X031637Y010229D01*
X031637Y009982D01*
X031699Y009982D02*
X031575Y009982D01*
X031330Y009982D02*
X031207Y010229D01*
X031085Y010167D02*
X031023Y010229D01*
X030900Y010229D01*
X030838Y010167D01*
X030838Y010106D01*
X031085Y010106D01*
X031085Y010167D02*
X031085Y010044D01*
X031023Y009982D01*
X030900Y009982D01*
X030717Y009982D02*
X030717Y010229D01*
X030717Y010106D02*
X030593Y010229D01*
X030532Y010229D01*
X030471Y010582D02*
X030347Y010582D01*
X030286Y010644D01*
X030286Y010767D01*
X030347Y010829D01*
X030471Y010829D01*
X030533Y010767D01*
X030533Y010644D01*
X030471Y010582D01*
X030655Y010582D02*
X030716Y010644D01*
X030716Y010891D01*
X030655Y010829D02*
X030778Y010829D01*
X030900Y010829D02*
X031024Y010829D01*
X030962Y010891D02*
X030962Y010644D01*
X030900Y010582D01*
X031145Y010582D02*
X031145Y010829D01*
X031145Y010582D02*
X031330Y010582D01*
X031392Y010644D01*
X031392Y010829D01*
X031513Y010829D02*
X031575Y010767D01*
X031760Y010767D01*
X031760Y010582D02*
X031575Y010582D01*
X031513Y010644D01*
X031513Y010706D01*
X031575Y010767D01*
X031513Y010829D02*
X031513Y010891D01*
X031575Y010953D01*
X031760Y010953D01*
X031760Y010582D01*
X031637Y010414D02*
X031637Y010353D01*
X031453Y010229D02*
X031330Y009982D01*
X031269Y009629D02*
X031269Y009382D01*
X031269Y009506D02*
X031146Y009629D01*
X031084Y009629D01*
X030962Y009629D02*
X030901Y009629D01*
X030839Y009567D01*
X030777Y009629D01*
X030715Y009567D01*
X030715Y009382D01*
X030839Y009382D02*
X030839Y009567D01*
X030962Y009629D02*
X030962Y009382D01*
X030901Y009029D02*
X030716Y009029D01*
X030654Y008967D01*
X030654Y008844D01*
X030716Y008782D01*
X030901Y008782D01*
X030901Y008659D02*
X030901Y009029D01*
X030533Y009029D02*
X030533Y008782D01*
X030533Y008906D02*
X030409Y009029D01*
X030347Y009029D01*
X030226Y008967D02*
X030164Y009029D01*
X030041Y009029D01*
X029979Y008967D01*
X029979Y008906D01*
X030226Y008906D01*
X030226Y008967D02*
X030226Y008844D01*
X030164Y008782D01*
X030041Y008782D01*
X029857Y008782D02*
X029672Y008782D01*
X029610Y008844D01*
X029672Y008906D01*
X029796Y008906D01*
X029857Y008967D01*
X029796Y009029D01*
X029610Y009029D01*
X029489Y008967D02*
X029427Y009029D01*
X029242Y009029D01*
X029304Y008906D02*
X029427Y008906D01*
X029489Y008967D01*
X029489Y008782D02*
X029304Y008782D01*
X029242Y008844D01*
X029304Y008906D01*
X029366Y009382D02*
X029366Y009567D01*
X029304Y009629D01*
X029242Y009567D01*
X029242Y009382D01*
X029121Y009444D02*
X029059Y009382D01*
X028936Y009382D01*
X028874Y009444D01*
X028874Y009567D01*
X028936Y009629D01*
X029059Y009629D01*
X029121Y009567D01*
X029121Y009444D01*
X029366Y009567D02*
X029427Y009629D01*
X029489Y009629D01*
X029489Y009382D01*
X029979Y009382D02*
X030164Y009382D01*
X030226Y009444D01*
X030164Y009506D01*
X029979Y009506D01*
X029979Y009567D02*
X029979Y009382D01*
X029979Y009567D02*
X030041Y009629D01*
X030164Y009629D01*
X029980Y009982D02*
X029795Y009982D01*
X029795Y010167D01*
X029856Y010229D01*
X029980Y010229D01*
X029980Y010106D02*
X029795Y010106D01*
X029673Y010229D02*
X029488Y010229D01*
X029426Y010167D01*
X029426Y009982D01*
X029305Y010044D02*
X029305Y010167D01*
X029243Y010229D01*
X029058Y010229D01*
X029058Y010353D02*
X029058Y009982D01*
X029243Y009982D01*
X029305Y010044D01*
X029673Y009982D02*
X029673Y010229D01*
X029980Y010106D02*
X030042Y010044D01*
X029980Y009982D01*
X029917Y010582D02*
X029917Y010767D01*
X029979Y010829D01*
X030164Y010829D01*
X030164Y010582D01*
X030225Y011182D02*
X030348Y011182D01*
X030287Y011182D02*
X030287Y011429D01*
X030348Y011429D01*
X030470Y011429D02*
X030532Y011429D01*
X030655Y011306D01*
X030655Y011429D02*
X030655Y011182D01*
X030777Y011182D02*
X030962Y011182D01*
X031024Y011244D01*
X031024Y011367D01*
X030962Y011429D01*
X030777Y011429D01*
X030777Y011553D02*
X030777Y011182D01*
X030287Y011553D02*
X030287Y011614D01*
X030103Y011429D02*
X029979Y011182D01*
X029856Y011429D01*
X029735Y011367D02*
X029673Y011429D01*
X029549Y011429D01*
X029488Y011367D01*
X029488Y011306D01*
X029735Y011306D01*
X029735Y011367D02*
X029735Y011244D01*
X029673Y011182D01*
X029549Y011182D01*
X029366Y011182D02*
X029366Y011429D01*
X029243Y011429D02*
X029181Y011429D01*
X029243Y011429D02*
X029366Y011306D01*
X028507Y010229D02*
X028568Y010167D01*
X028568Y010044D01*
X028507Y009982D01*
X028321Y009982D01*
X028200Y010044D02*
X028138Y010106D01*
X027953Y010106D01*
X027953Y010167D02*
X027953Y009982D01*
X028138Y009982D01*
X028200Y010044D01*
X028138Y010229D02*
X028015Y010229D01*
X027953Y010167D01*
X027832Y009982D02*
X027708Y009982D01*
X027770Y009982D02*
X027770Y010353D01*
X027832Y010353D01*
X027586Y010229D02*
X027524Y010229D01*
X027524Y009982D01*
X027463Y009982D02*
X027586Y009982D01*
X027341Y009982D02*
X027155Y009982D01*
X027094Y010044D01*
X027094Y010167D01*
X027155Y010229D01*
X027341Y010229D01*
X027341Y010353D02*
X027341Y009982D01*
X027402Y009691D02*
X027402Y009444D01*
X027340Y009382D01*
X027218Y009444D02*
X027218Y009567D01*
X027156Y009629D01*
X027033Y009629D01*
X026971Y009567D01*
X026971Y009506D01*
X027218Y009506D01*
X027218Y009444D02*
X027156Y009382D01*
X027033Y009382D01*
X026849Y009382D02*
X026664Y009382D01*
X026603Y009444D01*
X026664Y009506D01*
X026788Y009506D01*
X026849Y009567D01*
X026788Y009629D01*
X026603Y009629D01*
X026481Y009629D02*
X026358Y009629D01*
X026419Y009691D02*
X026419Y009444D01*
X026358Y009382D01*
X026236Y009259D02*
X026112Y009382D01*
X026174Y009382D01*
X026174Y009444D01*
X026112Y009444D01*
X026112Y009382D01*
X026174Y009153D02*
X026174Y008782D01*
X025927Y008782D01*
X025806Y008844D02*
X025744Y008782D01*
X025621Y008782D01*
X025559Y008844D01*
X025559Y008906D01*
X025621Y008967D01*
X025744Y008967D01*
X025806Y009029D01*
X025806Y009091D01*
X025744Y009153D01*
X025621Y009153D01*
X025559Y009091D01*
X025438Y009153D02*
X025191Y009153D01*
X025314Y009153D02*
X025314Y008782D01*
X025927Y009153D02*
X026174Y009153D01*
X026296Y009153D02*
X026543Y009153D01*
X026419Y009153D02*
X026419Y008782D01*
X026174Y008967D02*
X026051Y008967D01*
X027032Y008967D02*
X027094Y008906D01*
X027279Y008906D01*
X027156Y008906D02*
X027032Y008782D01*
X027032Y008967D02*
X027032Y009091D01*
X027094Y009153D01*
X027279Y009153D01*
X027279Y008782D01*
X027401Y008844D02*
X027462Y008782D01*
X027586Y008782D01*
X027647Y008844D01*
X027647Y009091D01*
X027586Y009153D01*
X027462Y009153D01*
X027401Y009091D01*
X027401Y008844D01*
X027769Y009153D02*
X028016Y009153D01*
X027892Y009153D02*
X027892Y008782D01*
X028137Y008844D02*
X028137Y009091D01*
X028199Y009153D01*
X028322Y009153D01*
X028384Y009091D01*
X028384Y008844D01*
X028322Y008782D01*
X028199Y008782D01*
X028137Y008844D01*
X028506Y008782D02*
X028506Y009153D01*
X028629Y009029D01*
X028752Y009153D01*
X028752Y008782D01*
X028629Y009382D02*
X028691Y009444D01*
X028691Y009691D01*
X028752Y009629D02*
X028629Y009629D01*
X028507Y009567D02*
X028507Y009444D01*
X028445Y009382D01*
X028322Y009382D01*
X028260Y009444D01*
X028260Y009567D01*
X028322Y009629D01*
X028445Y009629D01*
X028507Y009567D01*
X028139Y009506D02*
X028015Y009629D01*
X027953Y009629D01*
X028139Y009629D02*
X028139Y009382D01*
X028321Y010229D02*
X028507Y010229D01*
X027524Y010353D02*
X027524Y010414D01*
X026972Y010229D02*
X026972Y009982D01*
X026972Y010106D02*
X026849Y010229D01*
X026787Y010229D01*
X026604Y010229D02*
X026480Y010229D01*
X026418Y010167D01*
X026418Y009982D01*
X026604Y009982D01*
X026665Y010044D01*
X026604Y010106D01*
X026418Y010106D01*
X026297Y010229D02*
X026174Y010229D01*
X026235Y010291D02*
X026235Y010044D01*
X026174Y009982D01*
X026051Y010044D02*
X026051Y010167D01*
X025990Y010229D01*
X025866Y010229D01*
X025805Y010167D01*
X025805Y010106D01*
X026051Y010106D01*
X026051Y010044D02*
X025990Y009982D01*
X025866Y009982D01*
X027340Y009629D02*
X027463Y009629D01*
X029549Y012982D02*
X029549Y013167D01*
X029611Y013229D01*
X029734Y013229D01*
X029796Y013167D01*
X029917Y013229D02*
X030103Y013229D01*
X030164Y013167D01*
X030164Y013044D01*
X030103Y012982D01*
X029917Y012982D01*
X029796Y012982D02*
X029796Y013353D01*
X030041Y013582D02*
X030164Y013582D01*
X030226Y013644D01*
X030226Y013767D02*
X030102Y013829D01*
X030041Y013829D01*
X029979Y013767D01*
X029979Y013644D01*
X030041Y013582D01*
X030226Y013767D02*
X030226Y013953D01*
X029979Y013953D01*
X029856Y014182D02*
X029856Y014367D01*
X029918Y014429D01*
X030103Y014429D01*
X030103Y014182D01*
X030224Y014182D02*
X030224Y014429D01*
X030224Y014182D02*
X030409Y014182D01*
X030471Y014244D01*
X030471Y014429D01*
X030593Y014553D02*
X030840Y014553D01*
X030840Y014182D01*
X030840Y014367D02*
X030716Y014367D01*
X030777Y013953D02*
X030715Y013891D01*
X030962Y013644D01*
X030901Y013582D01*
X030777Y013582D01*
X030715Y013644D01*
X030715Y013891D01*
X030777Y013953D02*
X030901Y013953D01*
X030962Y013891D01*
X030962Y013644D01*
X031084Y013582D02*
X031331Y013582D01*
X031084Y013829D01*
X031084Y013891D01*
X031145Y013953D01*
X031269Y013953D01*
X031331Y013891D01*
X031329Y014367D02*
X031576Y014367D01*
X031269Y013353D02*
X031084Y013353D01*
X031022Y013291D01*
X031022Y013229D01*
X031084Y013167D01*
X031269Y013167D01*
X031269Y012982D02*
X031269Y013353D01*
X031084Y013167D02*
X031022Y013106D01*
X031022Y013044D01*
X031084Y012982D01*
X031269Y012982D01*
X030901Y013044D02*
X030901Y013167D01*
X030839Y013229D01*
X030716Y013229D01*
X030654Y013167D01*
X030654Y013106D01*
X030901Y013106D01*
X030901Y013044D02*
X030839Y012982D01*
X030716Y012982D01*
X030533Y012982D02*
X030533Y013229D01*
X030347Y013229D01*
X030286Y013167D01*
X030286Y012982D01*
X030164Y012814D02*
X030164Y012753D01*
X030347Y013582D02*
X030594Y013582D01*
X030471Y013582D02*
X030471Y013953D01*
X030594Y013829D01*
X029735Y014244D02*
X029735Y014367D01*
X029673Y014429D01*
X029488Y014429D01*
X029488Y014553D02*
X029488Y014182D01*
X029673Y014182D01*
X029735Y014244D01*
X029366Y014244D02*
X029305Y014306D01*
X029119Y014306D01*
X029119Y014367D02*
X029119Y014182D01*
X029305Y014182D01*
X029366Y014244D01*
X029305Y014429D02*
X029181Y014429D01*
X029119Y014367D01*
X028998Y014367D02*
X028936Y014429D01*
X028751Y014429D01*
X028630Y014429D02*
X028568Y014429D01*
X028568Y014182D01*
X028630Y014182D02*
X028506Y014182D01*
X028384Y014244D02*
X028322Y014182D01*
X028199Y014182D01*
X028137Y014244D01*
X028137Y014367D01*
X028199Y014429D01*
X028322Y014429D01*
X028384Y014367D01*
X028384Y014244D01*
X028568Y014553D02*
X028568Y014614D01*
X028751Y014182D02*
X028936Y014182D01*
X028998Y014244D01*
X028998Y014367D01*
X029304Y013953D02*
X029242Y013891D01*
X029242Y013767D01*
X029304Y013706D01*
X029489Y013706D01*
X029366Y013706D02*
X029242Y013582D01*
X029121Y013644D02*
X029121Y013767D01*
X029059Y013829D01*
X028936Y013829D01*
X028874Y013767D01*
X028874Y013706D01*
X029121Y013706D01*
X029121Y013644D02*
X029059Y013582D01*
X028936Y013582D01*
X028629Y013582D02*
X028506Y013829D01*
X028384Y013644D02*
X028322Y013644D01*
X028322Y013582D01*
X028384Y013582D01*
X028384Y013644D01*
X028200Y013582D02*
X028200Y013829D01*
X028077Y013953D01*
X027953Y013829D01*
X027953Y013582D01*
X027953Y013767D02*
X028200Y013767D01*
X028629Y013582D02*
X028752Y013829D01*
X029304Y013953D02*
X029489Y013953D01*
X029489Y013582D01*
X027647Y014244D02*
X027586Y014182D01*
X027462Y014182D01*
X027401Y014244D01*
X027279Y014182D02*
X027156Y014182D01*
X027217Y014182D02*
X027217Y014553D01*
X027156Y014553D02*
X027279Y014553D01*
X027401Y014491D02*
X027462Y014553D01*
X027586Y014553D01*
X027647Y014491D01*
X027647Y014244D01*
X027034Y014182D02*
X027034Y014553D01*
X026910Y014429D01*
X026787Y014553D01*
X026787Y014182D01*
X031514Y011429D02*
X031575Y011429D01*
X031699Y011306D01*
X031820Y011306D02*
X032067Y011306D01*
X032067Y011367D02*
X032006Y011429D01*
X031882Y011429D01*
X031820Y011367D01*
X031820Y011306D01*
X031882Y011182D02*
X032006Y011182D01*
X032067Y011244D01*
X032067Y011367D01*
X031699Y011429D02*
X031699Y011182D01*
X033233Y014182D02*
X033295Y014244D01*
X033295Y014367D01*
X037837Y012153D02*
X037960Y012153D01*
X037899Y012153D02*
X037899Y011782D01*
X037960Y011782D02*
X037837Y011782D01*
M02*
