%
M48
M72
T01C0.0120
T02C0.0160
T03C0.0276
T04C0.0360
T05C0.0394
T06C0.0400
T07C0.0900
T08C0.1180
T09C0.1260
T10C0.1300
%
T01
X19841Y20618
X25901Y19778
X19841Y20138
X23681Y19598
X17141Y18938
X19901Y19118
X18701Y18038
X19901Y17618
X26441Y14858
X25481Y24218
X24821Y38918
X26741Y39098
X28661Y38918
X26681Y37358
X25661Y37238
X24821Y37238
X24761Y38138
X28721Y39818
X24701Y39758
T02
X11921Y38138
X11921Y37538
X11921Y36338
X11921Y36938
X11921Y38738
X13241Y39218
X13841Y39218
X14921Y39218
X14381Y39218
X12641Y39218
X15307Y38104
X15307Y37504
X15307Y36304
X15307Y36904
X15307Y38704
X5921Y20318
X6521Y20318
X7121Y20318
X8381Y20378
X8861Y20378
X10601Y22478
X11801Y22538
X14201Y19118
X14201Y18458
X7781Y19238
X8381Y19238
X9821Y19238
X10421Y19238
X11861Y19238
X12401Y19238
X19078Y30815
X20652Y30815
X22227Y30815
X17503Y29240
X19078Y29240
X20652Y29240
X17503Y27665
X19078Y27665
X20652Y27665
X22227Y27665
X22227Y26090
X20652Y26090
X19078Y26090
X17503Y26090
X5298Y26484
X2149Y27271
X2149Y31996
X5298Y31996
X3723Y33177
X3723Y39870
X2542Y39870
X4511Y42232
X4511Y44200
X9629Y44200
X9629Y43019
X9629Y41838
X14897Y44167
X15534Y43019
X15928Y41838
X17083Y40743
X21834Y42626
X22621Y41051
X22621Y39476
X25377Y41444
X26952Y41444
X28526Y41444
X34098Y39202
X35219Y37901
X34038Y36720
X36400Y40263
X39156Y41444
X35613Y43807
X39944Y35539
X39944Y33570
X39944Y31602
X39944Y29633
X31556Y30368
X33105Y30361
X31556Y28973
X31556Y27665
X33131Y29026
X27739Y27271
X26344Y27571
X26371Y26930
X24589Y24122
X18924Y22239
X14173Y21519
X4511Y17822
X4511Y19791
X4511Y21759
X38736Y11748
X38736Y13091
X38736Y14433
X38736Y15715
X23232Y15996
X22632Y15036
X23652Y15036
X22272Y12336
X23292Y12336
X22332Y9876
X23352Y9876
X38024Y27593
X40064Y27593
X39104Y27593
X37364Y26573
X37364Y25613
X37364Y24533
X38324Y26753
X35324Y26933
X33704Y26633
X33704Y25673
X33704Y24653
X17445Y32900
X19019Y32900
X20594Y32900
X22169Y32900
X20594Y34081
X22169Y34081
X22169Y35262
X14741Y18758
X13483Y44167
X17109Y41838
X17109Y43019
X16322Y44200
X2149Y33177
X5298Y33177
X3723Y31996
X2149Y28846
X2149Y30421
X5298Y24909
X21869Y38202
X23369Y38202
X22589Y37242
X17109Y7586
X18684Y7586
X22621Y7586
X24196Y7586
X9761Y22478
X12641Y22538
X15073Y21519
X14653Y22179
X16753Y20619
X16993Y20019
X16453Y18579
X40056Y41444
X38256Y41444
X34079Y37901
X35219Y36701
X31176Y17155
X32316Y17155
X33516Y17155
X34656Y17155
X35796Y17155
X36936Y17155
X38736Y10548
X38736Y9228
X27336Y11748
X27336Y13091
X27336Y14433
X27336Y15715
X27336Y10548
X27336Y9228
X1966Y12627
X1966Y11285
X1966Y9943
X1966Y8660
X1966Y13827
X1966Y15147
X14496Y10368
X14496Y11711
X14496Y13053
X14496Y14335
X14496Y9168
X14496Y7848
X18504Y21579
X18084Y22239
X23124Y22119
X24084Y22119
X25104Y22119
X23544Y21399
X24564Y21399
X17261Y17978
X19781Y16058
X17861Y17018
X19361Y15758
X26021Y24998
X17921Y14978
X30461Y37238
X27521Y16838
X29501Y34058
X30401Y34838
X26981Y30638
X27341Y34118
X27461Y33698
X28601Y33878
X16001Y40598
X26141Y35438
X25541Y14858
X31721Y36758
X29261Y17558
X15401Y15758
T03
X25741Y38258
X27741Y38258
T04
X20554Y40664
X21538Y40664
X21538Y41444
X20554Y41444
T05
X15393Y31098
X15393Y30311
X15393Y29523
X15393Y28736
X15393Y27948
X15393Y27161
X21484Y28679
X24332Y31254
X27593Y30031
X27593Y28693
X27593Y29362
X18752Y34254
X17752Y34254
X16752Y34254
T06
X20535Y6697
X15825Y12186
X15825Y11116
X15825Y10046
X18600Y12186
X18600Y11116
X18600Y10046
X31301Y42578
X32301Y42578
X33301Y42578
X34301Y42578
X35301Y42578
X36301Y42578
X11141Y42584
X11141Y41584
X11141Y40584
X39307Y38025
X38307Y38025
X39307Y39025
X38307Y39025
X39307Y40025
X38307Y40025
X3911Y30630
X3911Y29630
X3911Y28630
X3911Y27630
X38186Y29038
X38186Y30038
X38186Y31038
X38186Y32038
X38186Y33038
X38186Y34038
X38186Y35038
X38186Y36038
T07
X18676Y42514
X23416Y42514
T08
X7110Y39597
X7110Y41959
X5259Y40778
T09
X15141Y6799
X26952Y6799
T10
X39156Y43413
X2936Y43413
X2936Y7193
X39156Y7193
X39156Y25303
X2936Y25303
M30
