G75*
%MOIN*%
%OFA0B0*%
%FSLAX24Y24*%
%IPPOS*%
%LPD*%
%AMOC8*
5,1,8,0,0,1.08239X$1,22.5*
%
%ADD10C,0.0000*%
%ADD11C,0.1300*%
%ADD12R,0.0631X0.0631*%
%ADD13R,0.0552X0.0670*%
%ADD14R,0.0670X0.0552*%
%ADD15R,0.0434X0.0670*%
%ADD16R,0.2166X0.2481*%
%ADD17R,0.0552X0.0631*%
%ADD18R,0.1851X0.0434*%
%ADD19R,0.1379X0.0670*%
%ADD20R,0.0631X0.0552*%
%ADD21R,0.0552X0.1339*%
%ADD22C,0.1740*%
%ADD23OC8,0.0640*%
%ADD24R,0.0512X0.0276*%
%ADD25C,0.0050*%
%ADD26R,0.4764X0.2442*%
%ADD27R,0.0260X0.0540*%
%ADD28R,0.0540X0.0260*%
%ADD29C,0.0690*%
%ADD30C,0.0780*%
%ADD31R,0.0512X0.1300*%
%ADD32R,0.0394X0.0355*%
%ADD33C,0.0640*%
%ADD34OC8,0.0780*%
%ADD35R,0.0512X0.0512*%
%ADD36C,0.0700*%
%ADD37C,0.1340*%
%ADD38R,0.0906X0.0276*%
%ADD39C,0.0634*%
D10*
X002361Y005618D02*
X039731Y005618D01*
X039791Y005620D01*
X039852Y005625D01*
X039911Y005634D01*
X039970Y005647D01*
X040029Y005663D01*
X040086Y005683D01*
X040141Y005706D01*
X040196Y005733D01*
X040248Y005762D01*
X040299Y005795D01*
X040348Y005831D01*
X040394Y005869D01*
X040438Y005911D01*
X040480Y005955D01*
X040518Y006001D01*
X040554Y006050D01*
X040587Y006101D01*
X040616Y006153D01*
X040643Y006208D01*
X040666Y006263D01*
X040686Y006320D01*
X040702Y006379D01*
X040715Y006438D01*
X040724Y006497D01*
X040729Y006558D01*
X040731Y006618D01*
X040731Y043988D01*
X040729Y044048D01*
X040724Y044109D01*
X040715Y044168D01*
X040702Y044227D01*
X040686Y044286D01*
X040666Y044343D01*
X040643Y044398D01*
X040616Y044453D01*
X040587Y044505D01*
X040554Y044556D01*
X040518Y044605D01*
X040480Y044651D01*
X040438Y044695D01*
X040394Y044737D01*
X040348Y044775D01*
X040299Y044811D01*
X040248Y044844D01*
X040196Y044873D01*
X040141Y044900D01*
X040086Y044923D01*
X040029Y044943D01*
X039970Y044959D01*
X039911Y044972D01*
X039852Y044981D01*
X039791Y044986D01*
X039731Y044988D01*
X002361Y044988D01*
X002301Y044986D01*
X002240Y044981D01*
X002181Y044972D01*
X002122Y044959D01*
X002063Y044943D01*
X002006Y044923D01*
X001951Y044900D01*
X001896Y044873D01*
X001844Y044844D01*
X001793Y044811D01*
X001744Y044775D01*
X001698Y044737D01*
X001654Y044695D01*
X001612Y044651D01*
X001574Y044605D01*
X001538Y044556D01*
X001505Y044505D01*
X001476Y044453D01*
X001449Y044398D01*
X001426Y044343D01*
X001406Y044286D01*
X001390Y044227D01*
X001377Y044168D01*
X001368Y044109D01*
X001363Y044048D01*
X001361Y043988D01*
X001361Y006618D01*
X001363Y006558D01*
X001368Y006497D01*
X001377Y006438D01*
X001390Y006379D01*
X001406Y006320D01*
X001426Y006263D01*
X001449Y006208D01*
X001476Y006153D01*
X001505Y006101D01*
X001538Y006050D01*
X001574Y006001D01*
X001612Y005955D01*
X001654Y005911D01*
X001698Y005869D01*
X001744Y005831D01*
X001793Y005795D01*
X001844Y005762D01*
X001896Y005733D01*
X001951Y005706D01*
X002006Y005683D01*
X002063Y005663D01*
X002122Y005647D01*
X002181Y005634D01*
X002240Y005625D01*
X002301Y005620D01*
X002361Y005618D01*
X002286Y007193D02*
X002288Y007243D01*
X002294Y007293D01*
X002304Y007343D01*
X002317Y007391D01*
X002334Y007439D01*
X002355Y007485D01*
X002379Y007529D01*
X002407Y007571D01*
X002438Y007611D01*
X002472Y007648D01*
X002509Y007683D01*
X002548Y007714D01*
X002589Y007743D01*
X002633Y007768D01*
X002679Y007790D01*
X002726Y007808D01*
X002774Y007822D01*
X002823Y007833D01*
X002873Y007840D01*
X002923Y007843D01*
X002974Y007842D01*
X003024Y007837D01*
X003074Y007828D01*
X003122Y007816D01*
X003170Y007799D01*
X003216Y007779D01*
X003261Y007756D01*
X003304Y007729D01*
X003344Y007699D01*
X003382Y007666D01*
X003417Y007630D01*
X003450Y007591D01*
X003479Y007550D01*
X003505Y007507D01*
X003528Y007462D01*
X003547Y007415D01*
X003562Y007367D01*
X003574Y007318D01*
X003582Y007268D01*
X003586Y007218D01*
X003586Y007168D01*
X003582Y007118D01*
X003574Y007068D01*
X003562Y007019D01*
X003547Y006971D01*
X003528Y006924D01*
X003505Y006879D01*
X003479Y006836D01*
X003450Y006795D01*
X003417Y006756D01*
X003382Y006720D01*
X003344Y006687D01*
X003304Y006657D01*
X003261Y006630D01*
X003216Y006607D01*
X003170Y006587D01*
X003122Y006570D01*
X003074Y006558D01*
X003024Y006549D01*
X002974Y006544D01*
X002923Y006543D01*
X002873Y006546D01*
X002823Y006553D01*
X002774Y006564D01*
X002726Y006578D01*
X002679Y006596D01*
X002633Y006618D01*
X002589Y006643D01*
X002548Y006672D01*
X002509Y006703D01*
X002472Y006738D01*
X002438Y006775D01*
X002407Y006815D01*
X002379Y006857D01*
X002355Y006901D01*
X002334Y006947D01*
X002317Y006995D01*
X002304Y007043D01*
X002294Y007093D01*
X002288Y007143D01*
X002286Y007193D01*
X014511Y006799D02*
X014513Y006849D01*
X014519Y006899D01*
X014529Y006948D01*
X014543Y006996D01*
X014560Y007043D01*
X014581Y007088D01*
X014606Y007132D01*
X014634Y007173D01*
X014666Y007212D01*
X014700Y007249D01*
X014737Y007283D01*
X014777Y007313D01*
X014819Y007340D01*
X014863Y007364D01*
X014909Y007385D01*
X014956Y007401D01*
X015004Y007414D01*
X015054Y007423D01*
X015103Y007428D01*
X015154Y007429D01*
X015204Y007426D01*
X015253Y007419D01*
X015302Y007408D01*
X015350Y007393D01*
X015396Y007375D01*
X015441Y007353D01*
X015484Y007327D01*
X015525Y007298D01*
X015564Y007266D01*
X015600Y007231D01*
X015632Y007193D01*
X015662Y007153D01*
X015689Y007110D01*
X015712Y007066D01*
X015731Y007020D01*
X015747Y006972D01*
X015759Y006923D01*
X015767Y006874D01*
X015771Y006824D01*
X015771Y006774D01*
X015767Y006724D01*
X015759Y006675D01*
X015747Y006626D01*
X015731Y006578D01*
X015712Y006532D01*
X015689Y006488D01*
X015662Y006445D01*
X015632Y006405D01*
X015600Y006367D01*
X015564Y006332D01*
X015525Y006300D01*
X015484Y006271D01*
X015441Y006245D01*
X015396Y006223D01*
X015350Y006205D01*
X015302Y006190D01*
X015253Y006179D01*
X015204Y006172D01*
X015154Y006169D01*
X015103Y006170D01*
X015054Y006175D01*
X015004Y006184D01*
X014956Y006197D01*
X014909Y006213D01*
X014863Y006234D01*
X014819Y006258D01*
X014777Y006285D01*
X014737Y006315D01*
X014700Y006349D01*
X014666Y006386D01*
X014634Y006425D01*
X014606Y006466D01*
X014581Y006510D01*
X014560Y006555D01*
X014543Y006602D01*
X014529Y006650D01*
X014519Y006699D01*
X014513Y006749D01*
X014511Y006799D01*
X026322Y006799D02*
X026324Y006849D01*
X026330Y006899D01*
X026340Y006948D01*
X026354Y006996D01*
X026371Y007043D01*
X026392Y007088D01*
X026417Y007132D01*
X026445Y007173D01*
X026477Y007212D01*
X026511Y007249D01*
X026548Y007283D01*
X026588Y007313D01*
X026630Y007340D01*
X026674Y007364D01*
X026720Y007385D01*
X026767Y007401D01*
X026815Y007414D01*
X026865Y007423D01*
X026914Y007428D01*
X026965Y007429D01*
X027015Y007426D01*
X027064Y007419D01*
X027113Y007408D01*
X027161Y007393D01*
X027207Y007375D01*
X027252Y007353D01*
X027295Y007327D01*
X027336Y007298D01*
X027375Y007266D01*
X027411Y007231D01*
X027443Y007193D01*
X027473Y007153D01*
X027500Y007110D01*
X027523Y007066D01*
X027542Y007020D01*
X027558Y006972D01*
X027570Y006923D01*
X027578Y006874D01*
X027582Y006824D01*
X027582Y006774D01*
X027578Y006724D01*
X027570Y006675D01*
X027558Y006626D01*
X027542Y006578D01*
X027523Y006532D01*
X027500Y006488D01*
X027473Y006445D01*
X027443Y006405D01*
X027411Y006367D01*
X027375Y006332D01*
X027336Y006300D01*
X027295Y006271D01*
X027252Y006245D01*
X027207Y006223D01*
X027161Y006205D01*
X027113Y006190D01*
X027064Y006179D01*
X027015Y006172D01*
X026965Y006169D01*
X026914Y006170D01*
X026865Y006175D01*
X026815Y006184D01*
X026767Y006197D01*
X026720Y006213D01*
X026674Y006234D01*
X026630Y006258D01*
X026588Y006285D01*
X026548Y006315D01*
X026511Y006349D01*
X026477Y006386D01*
X026445Y006425D01*
X026417Y006466D01*
X026392Y006510D01*
X026371Y006555D01*
X026354Y006602D01*
X026340Y006650D01*
X026330Y006699D01*
X026324Y006749D01*
X026322Y006799D01*
X038506Y007193D02*
X038508Y007243D01*
X038514Y007293D01*
X038524Y007343D01*
X038537Y007391D01*
X038554Y007439D01*
X038575Y007485D01*
X038599Y007529D01*
X038627Y007571D01*
X038658Y007611D01*
X038692Y007648D01*
X038729Y007683D01*
X038768Y007714D01*
X038809Y007743D01*
X038853Y007768D01*
X038899Y007790D01*
X038946Y007808D01*
X038994Y007822D01*
X039043Y007833D01*
X039093Y007840D01*
X039143Y007843D01*
X039194Y007842D01*
X039244Y007837D01*
X039294Y007828D01*
X039342Y007816D01*
X039390Y007799D01*
X039436Y007779D01*
X039481Y007756D01*
X039524Y007729D01*
X039564Y007699D01*
X039602Y007666D01*
X039637Y007630D01*
X039670Y007591D01*
X039699Y007550D01*
X039725Y007507D01*
X039748Y007462D01*
X039767Y007415D01*
X039782Y007367D01*
X039794Y007318D01*
X039802Y007268D01*
X039806Y007218D01*
X039806Y007168D01*
X039802Y007118D01*
X039794Y007068D01*
X039782Y007019D01*
X039767Y006971D01*
X039748Y006924D01*
X039725Y006879D01*
X039699Y006836D01*
X039670Y006795D01*
X039637Y006756D01*
X039602Y006720D01*
X039564Y006687D01*
X039524Y006657D01*
X039481Y006630D01*
X039436Y006607D01*
X039390Y006587D01*
X039342Y006570D01*
X039294Y006558D01*
X039244Y006549D01*
X039194Y006544D01*
X039143Y006543D01*
X039093Y006546D01*
X039043Y006553D01*
X038994Y006564D01*
X038946Y006578D01*
X038899Y006596D01*
X038853Y006618D01*
X038809Y006643D01*
X038768Y006672D01*
X038729Y006703D01*
X038692Y006738D01*
X038658Y006775D01*
X038627Y006815D01*
X038599Y006857D01*
X038575Y006901D01*
X038554Y006947D01*
X038537Y006995D01*
X038524Y007043D01*
X038514Y007093D01*
X038508Y007143D01*
X038506Y007193D01*
X038506Y025303D02*
X038508Y025353D01*
X038514Y025403D01*
X038524Y025453D01*
X038537Y025501D01*
X038554Y025549D01*
X038575Y025595D01*
X038599Y025639D01*
X038627Y025681D01*
X038658Y025721D01*
X038692Y025758D01*
X038729Y025793D01*
X038768Y025824D01*
X038809Y025853D01*
X038853Y025878D01*
X038899Y025900D01*
X038946Y025918D01*
X038994Y025932D01*
X039043Y025943D01*
X039093Y025950D01*
X039143Y025953D01*
X039194Y025952D01*
X039244Y025947D01*
X039294Y025938D01*
X039342Y025926D01*
X039390Y025909D01*
X039436Y025889D01*
X039481Y025866D01*
X039524Y025839D01*
X039564Y025809D01*
X039602Y025776D01*
X039637Y025740D01*
X039670Y025701D01*
X039699Y025660D01*
X039725Y025617D01*
X039748Y025572D01*
X039767Y025525D01*
X039782Y025477D01*
X039794Y025428D01*
X039802Y025378D01*
X039806Y025328D01*
X039806Y025278D01*
X039802Y025228D01*
X039794Y025178D01*
X039782Y025129D01*
X039767Y025081D01*
X039748Y025034D01*
X039725Y024989D01*
X039699Y024946D01*
X039670Y024905D01*
X039637Y024866D01*
X039602Y024830D01*
X039564Y024797D01*
X039524Y024767D01*
X039481Y024740D01*
X039436Y024717D01*
X039390Y024697D01*
X039342Y024680D01*
X039294Y024668D01*
X039244Y024659D01*
X039194Y024654D01*
X039143Y024653D01*
X039093Y024656D01*
X039043Y024663D01*
X038994Y024674D01*
X038946Y024688D01*
X038899Y024706D01*
X038853Y024728D01*
X038809Y024753D01*
X038768Y024782D01*
X038729Y024813D01*
X038692Y024848D01*
X038658Y024885D01*
X038627Y024925D01*
X038599Y024967D01*
X038575Y025011D01*
X038554Y025057D01*
X038537Y025105D01*
X038524Y025153D01*
X038514Y025203D01*
X038508Y025253D01*
X038506Y025303D01*
X038506Y043413D02*
X038508Y043463D01*
X038514Y043513D01*
X038524Y043563D01*
X038537Y043611D01*
X038554Y043659D01*
X038575Y043705D01*
X038599Y043749D01*
X038627Y043791D01*
X038658Y043831D01*
X038692Y043868D01*
X038729Y043903D01*
X038768Y043934D01*
X038809Y043963D01*
X038853Y043988D01*
X038899Y044010D01*
X038946Y044028D01*
X038994Y044042D01*
X039043Y044053D01*
X039093Y044060D01*
X039143Y044063D01*
X039194Y044062D01*
X039244Y044057D01*
X039294Y044048D01*
X039342Y044036D01*
X039390Y044019D01*
X039436Y043999D01*
X039481Y043976D01*
X039524Y043949D01*
X039564Y043919D01*
X039602Y043886D01*
X039637Y043850D01*
X039670Y043811D01*
X039699Y043770D01*
X039725Y043727D01*
X039748Y043682D01*
X039767Y043635D01*
X039782Y043587D01*
X039794Y043538D01*
X039802Y043488D01*
X039806Y043438D01*
X039806Y043388D01*
X039802Y043338D01*
X039794Y043288D01*
X039782Y043239D01*
X039767Y043191D01*
X039748Y043144D01*
X039725Y043099D01*
X039699Y043056D01*
X039670Y043015D01*
X039637Y042976D01*
X039602Y042940D01*
X039564Y042907D01*
X039524Y042877D01*
X039481Y042850D01*
X039436Y042827D01*
X039390Y042807D01*
X039342Y042790D01*
X039294Y042778D01*
X039244Y042769D01*
X039194Y042764D01*
X039143Y042763D01*
X039093Y042766D01*
X039043Y042773D01*
X038994Y042784D01*
X038946Y042798D01*
X038899Y042816D01*
X038853Y042838D01*
X038809Y042863D01*
X038768Y042892D01*
X038729Y042923D01*
X038692Y042958D01*
X038658Y042995D01*
X038627Y043035D01*
X038599Y043077D01*
X038575Y043121D01*
X038554Y043167D01*
X038537Y043215D01*
X038524Y043263D01*
X038514Y043313D01*
X038508Y043363D01*
X038506Y043413D01*
X002286Y043413D02*
X002288Y043463D01*
X002294Y043513D01*
X002304Y043563D01*
X002317Y043611D01*
X002334Y043659D01*
X002355Y043705D01*
X002379Y043749D01*
X002407Y043791D01*
X002438Y043831D01*
X002472Y043868D01*
X002509Y043903D01*
X002548Y043934D01*
X002589Y043963D01*
X002633Y043988D01*
X002679Y044010D01*
X002726Y044028D01*
X002774Y044042D01*
X002823Y044053D01*
X002873Y044060D01*
X002923Y044063D01*
X002974Y044062D01*
X003024Y044057D01*
X003074Y044048D01*
X003122Y044036D01*
X003170Y044019D01*
X003216Y043999D01*
X003261Y043976D01*
X003304Y043949D01*
X003344Y043919D01*
X003382Y043886D01*
X003417Y043850D01*
X003450Y043811D01*
X003479Y043770D01*
X003505Y043727D01*
X003528Y043682D01*
X003547Y043635D01*
X003562Y043587D01*
X003574Y043538D01*
X003582Y043488D01*
X003586Y043438D01*
X003586Y043388D01*
X003582Y043338D01*
X003574Y043288D01*
X003562Y043239D01*
X003547Y043191D01*
X003528Y043144D01*
X003505Y043099D01*
X003479Y043056D01*
X003450Y043015D01*
X003417Y042976D01*
X003382Y042940D01*
X003344Y042907D01*
X003304Y042877D01*
X003261Y042850D01*
X003216Y042827D01*
X003170Y042807D01*
X003122Y042790D01*
X003074Y042778D01*
X003024Y042769D01*
X002974Y042764D01*
X002923Y042763D01*
X002873Y042766D01*
X002823Y042773D01*
X002774Y042784D01*
X002726Y042798D01*
X002679Y042816D01*
X002633Y042838D01*
X002589Y042863D01*
X002548Y042892D01*
X002509Y042923D01*
X002472Y042958D01*
X002438Y042995D01*
X002407Y043035D01*
X002379Y043077D01*
X002355Y043121D01*
X002334Y043167D01*
X002317Y043215D01*
X002304Y043263D01*
X002294Y043313D01*
X002288Y043363D01*
X002286Y043413D01*
X002286Y025303D02*
X002288Y025353D01*
X002294Y025403D01*
X002304Y025453D01*
X002317Y025501D01*
X002334Y025549D01*
X002355Y025595D01*
X002379Y025639D01*
X002407Y025681D01*
X002438Y025721D01*
X002472Y025758D01*
X002509Y025793D01*
X002548Y025824D01*
X002589Y025853D01*
X002633Y025878D01*
X002679Y025900D01*
X002726Y025918D01*
X002774Y025932D01*
X002823Y025943D01*
X002873Y025950D01*
X002923Y025953D01*
X002974Y025952D01*
X003024Y025947D01*
X003074Y025938D01*
X003122Y025926D01*
X003170Y025909D01*
X003216Y025889D01*
X003261Y025866D01*
X003304Y025839D01*
X003344Y025809D01*
X003382Y025776D01*
X003417Y025740D01*
X003450Y025701D01*
X003479Y025660D01*
X003505Y025617D01*
X003528Y025572D01*
X003547Y025525D01*
X003562Y025477D01*
X003574Y025428D01*
X003582Y025378D01*
X003586Y025328D01*
X003586Y025278D01*
X003582Y025228D01*
X003574Y025178D01*
X003562Y025129D01*
X003547Y025081D01*
X003528Y025034D01*
X003505Y024989D01*
X003479Y024946D01*
X003450Y024905D01*
X003417Y024866D01*
X003382Y024830D01*
X003344Y024797D01*
X003304Y024767D01*
X003261Y024740D01*
X003216Y024717D01*
X003170Y024697D01*
X003122Y024680D01*
X003074Y024668D01*
X003024Y024659D01*
X002974Y024654D01*
X002923Y024653D01*
X002873Y024656D01*
X002823Y024663D01*
X002774Y024674D01*
X002726Y024688D01*
X002679Y024706D01*
X002633Y024728D01*
X002589Y024753D01*
X002548Y024782D01*
X002509Y024813D01*
X002472Y024848D01*
X002438Y024885D01*
X002407Y024925D01*
X002379Y024967D01*
X002355Y025011D01*
X002334Y025057D01*
X002317Y025105D01*
X002304Y025153D01*
X002294Y025203D01*
X002288Y025253D01*
X002286Y025303D01*
D11*
X015141Y006799D03*
X026952Y006799D03*
D12*
X024885Y008767D03*
X023507Y008767D03*
X023507Y011130D03*
X024885Y011130D03*
X024885Y013492D03*
X023507Y013492D03*
D13*
X022208Y013492D03*
X021460Y013492D03*
X021460Y011130D03*
X022208Y011130D03*
X022208Y008767D03*
X021460Y008767D03*
X016205Y014963D03*
X015457Y014963D03*
X028537Y016876D03*
X029285Y016876D03*
X034002Y027925D03*
X034750Y027925D03*
X029935Y028778D03*
X029187Y028778D03*
D14*
X030584Y025006D03*
X030584Y024258D03*
X027073Y024239D03*
X027073Y024987D03*
X025241Y020312D03*
X025241Y019564D03*
X024281Y019564D03*
X024281Y020312D03*
X024281Y018472D03*
X024281Y017724D03*
X025241Y017724D03*
X025241Y018472D03*
X013181Y018592D03*
X013181Y017844D03*
X012181Y017844D03*
X012181Y018592D03*
X011181Y018572D03*
X011181Y017824D03*
X010181Y017824D03*
X010181Y018572D03*
X009181Y018572D03*
X009181Y017824D03*
X008181Y017824D03*
X008181Y018572D03*
X007181Y018572D03*
X007181Y017824D03*
X006181Y017824D03*
X006181Y018572D03*
X006181Y021084D03*
X006181Y021832D03*
X007181Y021832D03*
X007181Y021084D03*
X008181Y021084D03*
X008181Y021832D03*
X009181Y021832D03*
X009181Y021084D03*
X010181Y021084D03*
X010181Y021832D03*
X011181Y021832D03*
X011181Y021084D03*
X012181Y021084D03*
X012181Y021832D03*
X013181Y021832D03*
X013181Y021084D03*
X013361Y040644D03*
X013361Y041392D03*
X014441Y041392D03*
X014441Y040644D03*
D15*
X014598Y034659D03*
X012802Y034659D03*
D16*
X013700Y037533D03*
D17*
X025467Y039758D03*
X026215Y039758D03*
X027207Y039758D03*
X027955Y039758D03*
X029596Y038869D03*
X030344Y038869D03*
X030366Y037838D03*
X029618Y037838D03*
X035971Y027920D03*
X036719Y027920D03*
X021935Y021498D03*
X021187Y021498D03*
X017126Y021730D03*
X016378Y021730D03*
D18*
X004698Y036397D03*
X004698Y037184D03*
D19*
X002651Y038129D03*
X002651Y035452D03*
D20*
X011393Y034558D03*
X011393Y033810D03*
X016161Y035564D03*
X016161Y036312D03*
X029141Y031912D03*
X029141Y031164D03*
X030041Y031164D03*
X030041Y031912D03*
X031301Y039804D03*
X031301Y040552D03*
D21*
X008127Y036908D03*
X008127Y034447D03*
D22*
X007110Y039597D03*
X005259Y040778D03*
X007110Y041959D03*
D23*
X020535Y006697D03*
D24*
X017825Y017432D03*
X017825Y017932D03*
X017825Y018432D03*
X017825Y018932D03*
X017825Y019432D03*
X017825Y019932D03*
X017825Y020432D03*
X017825Y020932D03*
X015620Y020932D03*
X015620Y020432D03*
X015620Y019932D03*
X015620Y019432D03*
X015620Y018932D03*
X015620Y018432D03*
X015620Y017932D03*
X015620Y017432D03*
D25*
X015825Y012363D02*
X015864Y012358D01*
X015901Y012344D01*
X015935Y012323D01*
X015962Y012294D01*
X015983Y012260D01*
X015995Y012223D01*
X015999Y012183D01*
X015994Y012145D01*
X015981Y012108D01*
X015960Y012076D01*
X015933Y012049D01*
X015900Y012029D01*
X015863Y012016D01*
X015825Y012012D01*
X015787Y012016D01*
X015750Y012027D01*
X015717Y012047D01*
X015690Y012073D01*
X015669Y012105D01*
X015655Y012141D01*
X015650Y012179D01*
X015653Y012219D01*
X015666Y012257D01*
X015686Y012292D01*
X015714Y012321D01*
X015747Y012343D01*
X015785Y012358D01*
X015825Y012363D01*
X015797Y012359D02*
X015855Y012359D01*
X015946Y012311D02*
X015704Y012311D01*
X015669Y012262D02*
X015981Y012262D01*
X015996Y012214D02*
X015653Y012214D01*
X015652Y012165D02*
X015997Y012165D01*
X015984Y012117D02*
X015664Y012117D01*
X015695Y012068D02*
X015953Y012068D01*
X015874Y012020D02*
X015774Y012020D01*
X015829Y011291D02*
X015868Y011286D01*
X015905Y011272D01*
X015939Y011251D01*
X015966Y011222D01*
X015987Y011188D01*
X015999Y011151D01*
X016003Y011111D01*
X015998Y011073D01*
X015985Y011036D01*
X015964Y011004D01*
X015937Y010977D01*
X015904Y010957D01*
X015867Y010944D01*
X015829Y010940D01*
X015791Y010944D01*
X015754Y010955D01*
X015721Y010975D01*
X015694Y011001D01*
X015962Y011001D01*
X015990Y011050D02*
X015666Y011050D01*
X015673Y011033D02*
X015659Y011069D01*
X015654Y011107D01*
X015657Y011147D01*
X015670Y011185D01*
X015690Y011220D01*
X015718Y011249D01*
X015751Y011271D01*
X015789Y011286D01*
X015829Y011291D01*
X015713Y011244D02*
X015945Y011244D01*
X015982Y011195D02*
X015676Y011195D01*
X015657Y011147D02*
X015999Y011147D01*
X016001Y011098D02*
X015655Y011098D01*
X015673Y011033D02*
X015694Y011001D01*
X015762Y010953D02*
X015893Y010953D01*
X015826Y010221D02*
X015865Y010216D01*
X015902Y010202D01*
X015936Y010181D01*
X015963Y010152D01*
X015984Y010118D01*
X015996Y010081D01*
X016000Y010041D01*
X015995Y010003D01*
X015982Y009966D01*
X015961Y009934D01*
X015934Y009907D01*
X015901Y009887D01*
X015864Y009874D01*
X015826Y009870D01*
X015788Y009874D01*
X015751Y009885D01*
X015718Y009905D01*
X015691Y009931D01*
X015670Y009963D01*
X015656Y009999D01*
X015651Y010037D01*
X015654Y010077D01*
X015667Y010115D01*
X015687Y010150D01*
X015715Y010179D01*
X015748Y010201D01*
X015786Y010216D01*
X015826Y010221D01*
X015713Y010177D02*
X015939Y010177D01*
X015978Y010128D02*
X015674Y010128D01*
X015655Y010080D02*
X015996Y010080D01*
X015999Y010031D02*
X015652Y010031D01*
X015662Y009983D02*
X015988Y009983D01*
X015962Y009934D02*
X015689Y009934D01*
X015751Y009886D02*
X015898Y009886D01*
X018426Y010037D02*
X018429Y010077D01*
X018442Y010115D01*
X018462Y010150D01*
X018490Y010179D01*
X018523Y010201D01*
X018561Y010216D01*
X018601Y010221D01*
X018640Y010216D01*
X018677Y010202D01*
X018710Y010181D01*
X018738Y010152D01*
X018758Y010118D01*
X018771Y010081D01*
X018775Y010041D01*
X018770Y010003D01*
X018757Y009966D01*
X018736Y009934D01*
X018709Y009907D01*
X018676Y009887D01*
X018639Y009874D01*
X018601Y009870D01*
X018563Y009874D01*
X018526Y009885D01*
X018493Y009905D01*
X018466Y009931D01*
X018444Y009963D01*
X018431Y009999D01*
X018426Y010037D01*
X018427Y010031D02*
X018773Y010031D01*
X018771Y010080D02*
X018430Y010080D01*
X018449Y010128D02*
X018752Y010128D01*
X018714Y010177D02*
X018487Y010177D01*
X018437Y009983D02*
X018763Y009983D01*
X018736Y009934D02*
X018464Y009934D01*
X018525Y009886D02*
X018673Y009886D01*
X018604Y010940D02*
X018642Y010944D01*
X018679Y010957D01*
X018712Y010977D01*
X018739Y011004D01*
X018760Y011036D01*
X018773Y011073D01*
X018778Y011111D01*
X018774Y011151D01*
X018761Y011188D01*
X018741Y011222D01*
X018713Y011251D01*
X018680Y011272D01*
X018643Y011286D01*
X018604Y011291D01*
X018564Y011286D01*
X018526Y011271D01*
X018493Y011249D01*
X018465Y011220D01*
X018445Y011185D01*
X018432Y011147D01*
X018429Y011107D01*
X018434Y011069D01*
X018447Y011033D01*
X018468Y011001D01*
X018496Y010975D01*
X018529Y010955D01*
X018566Y010944D01*
X018604Y010940D01*
X018667Y010953D02*
X018537Y010953D01*
X018469Y011001D02*
X018736Y011001D01*
X018765Y011050D02*
X018441Y011050D01*
X018430Y011098D02*
X018776Y011098D01*
X018774Y011147D02*
X018432Y011147D01*
X018450Y011195D02*
X018757Y011195D01*
X018720Y011244D02*
X018488Y011244D01*
X018562Y012016D02*
X018525Y012027D01*
X018492Y012047D01*
X018464Y012073D01*
X018443Y012105D01*
X018430Y012141D01*
X018425Y012179D01*
X018428Y012219D01*
X018441Y012257D01*
X018461Y012292D01*
X018489Y012321D01*
X018522Y012343D01*
X018560Y012358D01*
X018600Y012363D01*
X018639Y012358D01*
X018676Y012344D01*
X018709Y012323D01*
X018737Y012294D01*
X018757Y012260D01*
X018770Y012223D01*
X018774Y012183D01*
X018769Y012145D01*
X018756Y012108D01*
X018735Y012076D01*
X018708Y012049D01*
X018675Y012029D01*
X018638Y012016D01*
X018600Y012012D01*
X018562Y012016D01*
X018548Y012020D02*
X018649Y012020D01*
X018727Y012068D02*
X018470Y012068D01*
X018439Y012117D02*
X018759Y012117D01*
X018771Y012165D02*
X018427Y012165D01*
X018428Y012214D02*
X018771Y012214D01*
X018756Y012262D02*
X018443Y012262D01*
X018479Y012311D02*
X018721Y012311D01*
X018629Y012359D02*
X018572Y012359D01*
D26*
X009235Y012704D03*
X009235Y010342D03*
X032857Y010342D03*
X032857Y012704D03*
D27*
X030783Y033268D03*
X030469Y033268D03*
X030154Y033268D03*
X029839Y033268D03*
X029524Y033268D03*
X029209Y033268D03*
X028894Y033268D03*
X028579Y033268D03*
X028579Y036648D03*
X028894Y036648D03*
X029209Y036648D03*
X029524Y036648D03*
X029839Y036648D03*
X030154Y036648D03*
X030469Y036648D03*
X030783Y036648D03*
D28*
X031371Y036060D03*
X031371Y035745D03*
X031371Y035430D03*
X031371Y035115D03*
X031371Y034800D03*
X031371Y034485D03*
X031371Y034170D03*
X031371Y033855D03*
X027991Y033855D03*
X027991Y034170D03*
X027991Y034485D03*
X027991Y034800D03*
X027991Y035115D03*
X027991Y035430D03*
X027991Y035745D03*
X027991Y036060D03*
D29*
X027741Y038258D03*
X025741Y038258D03*
D30*
X031301Y042578D03*
X032301Y042578D03*
X033301Y042578D03*
X034301Y042578D03*
X035301Y042578D03*
X036301Y042578D03*
D31*
X036117Y026452D03*
X034543Y026452D03*
X034543Y023775D03*
X036117Y023775D03*
D32*
X014055Y042204D03*
X014055Y042952D03*
X013228Y042578D03*
D33*
X011441Y042584D02*
X010841Y042584D01*
X010841Y041584D02*
X011441Y041584D01*
X011441Y040584D02*
X010841Y040584D01*
X004211Y030630D02*
X003611Y030630D01*
X003611Y029630D02*
X004211Y029630D01*
X004211Y028630D02*
X003611Y028630D01*
X003611Y027630D02*
X004211Y027630D01*
X037886Y029038D02*
X038486Y029038D01*
X038486Y030038D02*
X037886Y030038D01*
X037886Y031038D02*
X038486Y031038D01*
X038486Y032038D02*
X037886Y032038D01*
X037886Y033038D02*
X038486Y033038D01*
X038486Y034038D02*
X037886Y034038D01*
X037886Y035038D02*
X038486Y035038D01*
X038486Y036038D02*
X037886Y036038D01*
D34*
X038307Y038025D03*
X039307Y038025D03*
X039307Y039025D03*
X038307Y039025D03*
X038307Y040025D03*
X039307Y040025D03*
D35*
X029974Y027938D03*
X029148Y027938D03*
X029324Y025045D03*
X029324Y024219D03*
X028273Y024200D03*
X028273Y025026D03*
D36*
X021538Y040664D03*
X021538Y041444D03*
X020554Y041444D03*
X020554Y040664D03*
D37*
X018676Y042514D03*
X023416Y042514D03*
X039156Y043413D03*
X039156Y025303D03*
X039156Y007193D03*
X002936Y007193D03*
X002936Y025303D03*
X002936Y043413D03*
D38*
X020552Y020632D03*
X020552Y020132D03*
X020552Y019632D03*
X020552Y019132D03*
X020552Y018632D03*
X020552Y018132D03*
X020552Y017632D03*
X022599Y017632D03*
X022599Y018132D03*
X022599Y018632D03*
X022599Y019132D03*
X022599Y019632D03*
X022599Y020132D03*
X022599Y020632D03*
D39*
X015393Y027161D03*
X015393Y027948D03*
X015393Y028736D03*
X015393Y029523D03*
X015393Y030311D03*
X015393Y031098D03*
X016752Y034254D03*
X017752Y034254D03*
X018752Y034254D03*
X021484Y028679D03*
X024332Y031254D03*
X027593Y030031D03*
X027593Y029362D03*
X027593Y028693D03*
M02*
