G75*
%MOIN*%
%OFA0B0*%
%FSLAX24Y24*%
%IPPOS*%
%LPD*%
%AMOC8*
5,1,8,0,0,1.08239X$1,22.5*
%
%ADD10C,0.0000*%
%ADD11C,0.1300*%
%ADD12C,0.1740*%
%ADD13OC8,0.0640*%
%ADD14C,0.0050*%
%ADD15C,0.0690*%
%ADD16C,0.0780*%
%ADD17C,0.0640*%
%ADD18OC8,0.0780*%
%ADD19C,0.0700*%
%ADD20C,0.1340*%
%ADD21C,0.0634*%
D10*
X002361Y005618D02*
X039731Y005618D01*
X039791Y005620D01*
X039852Y005625D01*
X039911Y005634D01*
X039970Y005647D01*
X040029Y005663D01*
X040086Y005683D01*
X040141Y005706D01*
X040196Y005733D01*
X040248Y005762D01*
X040299Y005795D01*
X040348Y005831D01*
X040394Y005869D01*
X040438Y005911D01*
X040480Y005955D01*
X040518Y006001D01*
X040554Y006050D01*
X040587Y006101D01*
X040616Y006153D01*
X040643Y006208D01*
X040666Y006263D01*
X040686Y006320D01*
X040702Y006379D01*
X040715Y006438D01*
X040724Y006497D01*
X040729Y006558D01*
X040731Y006618D01*
X040731Y043988D01*
X040729Y044048D01*
X040724Y044109D01*
X040715Y044168D01*
X040702Y044227D01*
X040686Y044286D01*
X040666Y044343D01*
X040643Y044398D01*
X040616Y044453D01*
X040587Y044505D01*
X040554Y044556D01*
X040518Y044605D01*
X040480Y044651D01*
X040438Y044695D01*
X040394Y044737D01*
X040348Y044775D01*
X040299Y044811D01*
X040248Y044844D01*
X040196Y044873D01*
X040141Y044900D01*
X040086Y044923D01*
X040029Y044943D01*
X039970Y044959D01*
X039911Y044972D01*
X039852Y044981D01*
X039791Y044986D01*
X039731Y044988D01*
X002361Y044988D01*
X002301Y044986D01*
X002240Y044981D01*
X002181Y044972D01*
X002122Y044959D01*
X002063Y044943D01*
X002006Y044923D01*
X001951Y044900D01*
X001896Y044873D01*
X001844Y044844D01*
X001793Y044811D01*
X001744Y044775D01*
X001698Y044737D01*
X001654Y044695D01*
X001612Y044651D01*
X001574Y044605D01*
X001538Y044556D01*
X001505Y044505D01*
X001476Y044453D01*
X001449Y044398D01*
X001426Y044343D01*
X001406Y044286D01*
X001390Y044227D01*
X001377Y044168D01*
X001368Y044109D01*
X001363Y044048D01*
X001361Y043988D01*
X001361Y006618D01*
X001363Y006558D01*
X001368Y006497D01*
X001377Y006438D01*
X001390Y006379D01*
X001406Y006320D01*
X001426Y006263D01*
X001449Y006208D01*
X001476Y006153D01*
X001505Y006101D01*
X001538Y006050D01*
X001574Y006001D01*
X001612Y005955D01*
X001654Y005911D01*
X001698Y005869D01*
X001744Y005831D01*
X001793Y005795D01*
X001844Y005762D01*
X001896Y005733D01*
X001951Y005706D01*
X002006Y005683D01*
X002063Y005663D01*
X002122Y005647D01*
X002181Y005634D01*
X002240Y005625D01*
X002301Y005620D01*
X002361Y005618D01*
X002286Y007193D02*
X002288Y007243D01*
X002294Y007293D01*
X002304Y007343D01*
X002317Y007391D01*
X002334Y007439D01*
X002355Y007485D01*
X002379Y007529D01*
X002407Y007571D01*
X002438Y007611D01*
X002472Y007648D01*
X002509Y007683D01*
X002548Y007714D01*
X002589Y007743D01*
X002633Y007768D01*
X002679Y007790D01*
X002726Y007808D01*
X002774Y007822D01*
X002823Y007833D01*
X002873Y007840D01*
X002923Y007843D01*
X002974Y007842D01*
X003024Y007837D01*
X003074Y007828D01*
X003122Y007816D01*
X003170Y007799D01*
X003216Y007779D01*
X003261Y007756D01*
X003304Y007729D01*
X003344Y007699D01*
X003382Y007666D01*
X003417Y007630D01*
X003450Y007591D01*
X003479Y007550D01*
X003505Y007507D01*
X003528Y007462D01*
X003547Y007415D01*
X003562Y007367D01*
X003574Y007318D01*
X003582Y007268D01*
X003586Y007218D01*
X003586Y007168D01*
X003582Y007118D01*
X003574Y007068D01*
X003562Y007019D01*
X003547Y006971D01*
X003528Y006924D01*
X003505Y006879D01*
X003479Y006836D01*
X003450Y006795D01*
X003417Y006756D01*
X003382Y006720D01*
X003344Y006687D01*
X003304Y006657D01*
X003261Y006630D01*
X003216Y006607D01*
X003170Y006587D01*
X003122Y006570D01*
X003074Y006558D01*
X003024Y006549D01*
X002974Y006544D01*
X002923Y006543D01*
X002873Y006546D01*
X002823Y006553D01*
X002774Y006564D01*
X002726Y006578D01*
X002679Y006596D01*
X002633Y006618D01*
X002589Y006643D01*
X002548Y006672D01*
X002509Y006703D01*
X002472Y006738D01*
X002438Y006775D01*
X002407Y006815D01*
X002379Y006857D01*
X002355Y006901D01*
X002334Y006947D01*
X002317Y006995D01*
X002304Y007043D01*
X002294Y007093D01*
X002288Y007143D01*
X002286Y007193D01*
X014511Y006799D02*
X014513Y006849D01*
X014519Y006899D01*
X014529Y006948D01*
X014543Y006996D01*
X014560Y007043D01*
X014581Y007088D01*
X014606Y007132D01*
X014634Y007173D01*
X014666Y007212D01*
X014700Y007249D01*
X014737Y007283D01*
X014777Y007313D01*
X014819Y007340D01*
X014863Y007364D01*
X014909Y007385D01*
X014956Y007401D01*
X015004Y007414D01*
X015054Y007423D01*
X015103Y007428D01*
X015154Y007429D01*
X015204Y007426D01*
X015253Y007419D01*
X015302Y007408D01*
X015350Y007393D01*
X015396Y007375D01*
X015441Y007353D01*
X015484Y007327D01*
X015525Y007298D01*
X015564Y007266D01*
X015600Y007231D01*
X015632Y007193D01*
X015662Y007153D01*
X015689Y007110D01*
X015712Y007066D01*
X015731Y007020D01*
X015747Y006972D01*
X015759Y006923D01*
X015767Y006874D01*
X015771Y006824D01*
X015771Y006774D01*
X015767Y006724D01*
X015759Y006675D01*
X015747Y006626D01*
X015731Y006578D01*
X015712Y006532D01*
X015689Y006488D01*
X015662Y006445D01*
X015632Y006405D01*
X015600Y006367D01*
X015564Y006332D01*
X015525Y006300D01*
X015484Y006271D01*
X015441Y006245D01*
X015396Y006223D01*
X015350Y006205D01*
X015302Y006190D01*
X015253Y006179D01*
X015204Y006172D01*
X015154Y006169D01*
X015103Y006170D01*
X015054Y006175D01*
X015004Y006184D01*
X014956Y006197D01*
X014909Y006213D01*
X014863Y006234D01*
X014819Y006258D01*
X014777Y006285D01*
X014737Y006315D01*
X014700Y006349D01*
X014666Y006386D01*
X014634Y006425D01*
X014606Y006466D01*
X014581Y006510D01*
X014560Y006555D01*
X014543Y006602D01*
X014529Y006650D01*
X014519Y006699D01*
X014513Y006749D01*
X014511Y006799D01*
X026322Y006799D02*
X026324Y006849D01*
X026330Y006899D01*
X026340Y006948D01*
X026354Y006996D01*
X026371Y007043D01*
X026392Y007088D01*
X026417Y007132D01*
X026445Y007173D01*
X026477Y007212D01*
X026511Y007249D01*
X026548Y007283D01*
X026588Y007313D01*
X026630Y007340D01*
X026674Y007364D01*
X026720Y007385D01*
X026767Y007401D01*
X026815Y007414D01*
X026865Y007423D01*
X026914Y007428D01*
X026965Y007429D01*
X027015Y007426D01*
X027064Y007419D01*
X027113Y007408D01*
X027161Y007393D01*
X027207Y007375D01*
X027252Y007353D01*
X027295Y007327D01*
X027336Y007298D01*
X027375Y007266D01*
X027411Y007231D01*
X027443Y007193D01*
X027473Y007153D01*
X027500Y007110D01*
X027523Y007066D01*
X027542Y007020D01*
X027558Y006972D01*
X027570Y006923D01*
X027578Y006874D01*
X027582Y006824D01*
X027582Y006774D01*
X027578Y006724D01*
X027570Y006675D01*
X027558Y006626D01*
X027542Y006578D01*
X027523Y006532D01*
X027500Y006488D01*
X027473Y006445D01*
X027443Y006405D01*
X027411Y006367D01*
X027375Y006332D01*
X027336Y006300D01*
X027295Y006271D01*
X027252Y006245D01*
X027207Y006223D01*
X027161Y006205D01*
X027113Y006190D01*
X027064Y006179D01*
X027015Y006172D01*
X026965Y006169D01*
X026914Y006170D01*
X026865Y006175D01*
X026815Y006184D01*
X026767Y006197D01*
X026720Y006213D01*
X026674Y006234D01*
X026630Y006258D01*
X026588Y006285D01*
X026548Y006315D01*
X026511Y006349D01*
X026477Y006386D01*
X026445Y006425D01*
X026417Y006466D01*
X026392Y006510D01*
X026371Y006555D01*
X026354Y006602D01*
X026340Y006650D01*
X026330Y006699D01*
X026324Y006749D01*
X026322Y006799D01*
X038506Y007193D02*
X038508Y007243D01*
X038514Y007293D01*
X038524Y007343D01*
X038537Y007391D01*
X038554Y007439D01*
X038575Y007485D01*
X038599Y007529D01*
X038627Y007571D01*
X038658Y007611D01*
X038692Y007648D01*
X038729Y007683D01*
X038768Y007714D01*
X038809Y007743D01*
X038853Y007768D01*
X038899Y007790D01*
X038946Y007808D01*
X038994Y007822D01*
X039043Y007833D01*
X039093Y007840D01*
X039143Y007843D01*
X039194Y007842D01*
X039244Y007837D01*
X039294Y007828D01*
X039342Y007816D01*
X039390Y007799D01*
X039436Y007779D01*
X039481Y007756D01*
X039524Y007729D01*
X039564Y007699D01*
X039602Y007666D01*
X039637Y007630D01*
X039670Y007591D01*
X039699Y007550D01*
X039725Y007507D01*
X039748Y007462D01*
X039767Y007415D01*
X039782Y007367D01*
X039794Y007318D01*
X039802Y007268D01*
X039806Y007218D01*
X039806Y007168D01*
X039802Y007118D01*
X039794Y007068D01*
X039782Y007019D01*
X039767Y006971D01*
X039748Y006924D01*
X039725Y006879D01*
X039699Y006836D01*
X039670Y006795D01*
X039637Y006756D01*
X039602Y006720D01*
X039564Y006687D01*
X039524Y006657D01*
X039481Y006630D01*
X039436Y006607D01*
X039390Y006587D01*
X039342Y006570D01*
X039294Y006558D01*
X039244Y006549D01*
X039194Y006544D01*
X039143Y006543D01*
X039093Y006546D01*
X039043Y006553D01*
X038994Y006564D01*
X038946Y006578D01*
X038899Y006596D01*
X038853Y006618D01*
X038809Y006643D01*
X038768Y006672D01*
X038729Y006703D01*
X038692Y006738D01*
X038658Y006775D01*
X038627Y006815D01*
X038599Y006857D01*
X038575Y006901D01*
X038554Y006947D01*
X038537Y006995D01*
X038524Y007043D01*
X038514Y007093D01*
X038508Y007143D01*
X038506Y007193D01*
X038506Y025303D02*
X038508Y025353D01*
X038514Y025403D01*
X038524Y025453D01*
X038537Y025501D01*
X038554Y025549D01*
X038575Y025595D01*
X038599Y025639D01*
X038627Y025681D01*
X038658Y025721D01*
X038692Y025758D01*
X038729Y025793D01*
X038768Y025824D01*
X038809Y025853D01*
X038853Y025878D01*
X038899Y025900D01*
X038946Y025918D01*
X038994Y025932D01*
X039043Y025943D01*
X039093Y025950D01*
X039143Y025953D01*
X039194Y025952D01*
X039244Y025947D01*
X039294Y025938D01*
X039342Y025926D01*
X039390Y025909D01*
X039436Y025889D01*
X039481Y025866D01*
X039524Y025839D01*
X039564Y025809D01*
X039602Y025776D01*
X039637Y025740D01*
X039670Y025701D01*
X039699Y025660D01*
X039725Y025617D01*
X039748Y025572D01*
X039767Y025525D01*
X039782Y025477D01*
X039794Y025428D01*
X039802Y025378D01*
X039806Y025328D01*
X039806Y025278D01*
X039802Y025228D01*
X039794Y025178D01*
X039782Y025129D01*
X039767Y025081D01*
X039748Y025034D01*
X039725Y024989D01*
X039699Y024946D01*
X039670Y024905D01*
X039637Y024866D01*
X039602Y024830D01*
X039564Y024797D01*
X039524Y024767D01*
X039481Y024740D01*
X039436Y024717D01*
X039390Y024697D01*
X039342Y024680D01*
X039294Y024668D01*
X039244Y024659D01*
X039194Y024654D01*
X039143Y024653D01*
X039093Y024656D01*
X039043Y024663D01*
X038994Y024674D01*
X038946Y024688D01*
X038899Y024706D01*
X038853Y024728D01*
X038809Y024753D01*
X038768Y024782D01*
X038729Y024813D01*
X038692Y024848D01*
X038658Y024885D01*
X038627Y024925D01*
X038599Y024967D01*
X038575Y025011D01*
X038554Y025057D01*
X038537Y025105D01*
X038524Y025153D01*
X038514Y025203D01*
X038508Y025253D01*
X038506Y025303D01*
X038506Y043413D02*
X038508Y043463D01*
X038514Y043513D01*
X038524Y043563D01*
X038537Y043611D01*
X038554Y043659D01*
X038575Y043705D01*
X038599Y043749D01*
X038627Y043791D01*
X038658Y043831D01*
X038692Y043868D01*
X038729Y043903D01*
X038768Y043934D01*
X038809Y043963D01*
X038853Y043988D01*
X038899Y044010D01*
X038946Y044028D01*
X038994Y044042D01*
X039043Y044053D01*
X039093Y044060D01*
X039143Y044063D01*
X039194Y044062D01*
X039244Y044057D01*
X039294Y044048D01*
X039342Y044036D01*
X039390Y044019D01*
X039436Y043999D01*
X039481Y043976D01*
X039524Y043949D01*
X039564Y043919D01*
X039602Y043886D01*
X039637Y043850D01*
X039670Y043811D01*
X039699Y043770D01*
X039725Y043727D01*
X039748Y043682D01*
X039767Y043635D01*
X039782Y043587D01*
X039794Y043538D01*
X039802Y043488D01*
X039806Y043438D01*
X039806Y043388D01*
X039802Y043338D01*
X039794Y043288D01*
X039782Y043239D01*
X039767Y043191D01*
X039748Y043144D01*
X039725Y043099D01*
X039699Y043056D01*
X039670Y043015D01*
X039637Y042976D01*
X039602Y042940D01*
X039564Y042907D01*
X039524Y042877D01*
X039481Y042850D01*
X039436Y042827D01*
X039390Y042807D01*
X039342Y042790D01*
X039294Y042778D01*
X039244Y042769D01*
X039194Y042764D01*
X039143Y042763D01*
X039093Y042766D01*
X039043Y042773D01*
X038994Y042784D01*
X038946Y042798D01*
X038899Y042816D01*
X038853Y042838D01*
X038809Y042863D01*
X038768Y042892D01*
X038729Y042923D01*
X038692Y042958D01*
X038658Y042995D01*
X038627Y043035D01*
X038599Y043077D01*
X038575Y043121D01*
X038554Y043167D01*
X038537Y043215D01*
X038524Y043263D01*
X038514Y043313D01*
X038508Y043363D01*
X038506Y043413D01*
X002286Y043413D02*
X002288Y043463D01*
X002294Y043513D01*
X002304Y043563D01*
X002317Y043611D01*
X002334Y043659D01*
X002355Y043705D01*
X002379Y043749D01*
X002407Y043791D01*
X002438Y043831D01*
X002472Y043868D01*
X002509Y043903D01*
X002548Y043934D01*
X002589Y043963D01*
X002633Y043988D01*
X002679Y044010D01*
X002726Y044028D01*
X002774Y044042D01*
X002823Y044053D01*
X002873Y044060D01*
X002923Y044063D01*
X002974Y044062D01*
X003024Y044057D01*
X003074Y044048D01*
X003122Y044036D01*
X003170Y044019D01*
X003216Y043999D01*
X003261Y043976D01*
X003304Y043949D01*
X003344Y043919D01*
X003382Y043886D01*
X003417Y043850D01*
X003450Y043811D01*
X003479Y043770D01*
X003505Y043727D01*
X003528Y043682D01*
X003547Y043635D01*
X003562Y043587D01*
X003574Y043538D01*
X003582Y043488D01*
X003586Y043438D01*
X003586Y043388D01*
X003582Y043338D01*
X003574Y043288D01*
X003562Y043239D01*
X003547Y043191D01*
X003528Y043144D01*
X003505Y043099D01*
X003479Y043056D01*
X003450Y043015D01*
X003417Y042976D01*
X003382Y042940D01*
X003344Y042907D01*
X003304Y042877D01*
X003261Y042850D01*
X003216Y042827D01*
X003170Y042807D01*
X003122Y042790D01*
X003074Y042778D01*
X003024Y042769D01*
X002974Y042764D01*
X002923Y042763D01*
X002873Y042766D01*
X002823Y042773D01*
X002774Y042784D01*
X002726Y042798D01*
X002679Y042816D01*
X002633Y042838D01*
X002589Y042863D01*
X002548Y042892D01*
X002509Y042923D01*
X002472Y042958D01*
X002438Y042995D01*
X002407Y043035D01*
X002379Y043077D01*
X002355Y043121D01*
X002334Y043167D01*
X002317Y043215D01*
X002304Y043263D01*
X002294Y043313D01*
X002288Y043363D01*
X002286Y043413D01*
X002286Y025303D02*
X002288Y025353D01*
X002294Y025403D01*
X002304Y025453D01*
X002317Y025501D01*
X002334Y025549D01*
X002355Y025595D01*
X002379Y025639D01*
X002407Y025681D01*
X002438Y025721D01*
X002472Y025758D01*
X002509Y025793D01*
X002548Y025824D01*
X002589Y025853D01*
X002633Y025878D01*
X002679Y025900D01*
X002726Y025918D01*
X002774Y025932D01*
X002823Y025943D01*
X002873Y025950D01*
X002923Y025953D01*
X002974Y025952D01*
X003024Y025947D01*
X003074Y025938D01*
X003122Y025926D01*
X003170Y025909D01*
X003216Y025889D01*
X003261Y025866D01*
X003304Y025839D01*
X003344Y025809D01*
X003382Y025776D01*
X003417Y025740D01*
X003450Y025701D01*
X003479Y025660D01*
X003505Y025617D01*
X003528Y025572D01*
X003547Y025525D01*
X003562Y025477D01*
X003574Y025428D01*
X003582Y025378D01*
X003586Y025328D01*
X003586Y025278D01*
X003582Y025228D01*
X003574Y025178D01*
X003562Y025129D01*
X003547Y025081D01*
X003528Y025034D01*
X003505Y024989D01*
X003479Y024946D01*
X003450Y024905D01*
X003417Y024866D01*
X003382Y024830D01*
X003344Y024797D01*
X003304Y024767D01*
X003261Y024740D01*
X003216Y024717D01*
X003170Y024697D01*
X003122Y024680D01*
X003074Y024668D01*
X003024Y024659D01*
X002974Y024654D01*
X002923Y024653D01*
X002873Y024656D01*
X002823Y024663D01*
X002774Y024674D01*
X002726Y024688D01*
X002679Y024706D01*
X002633Y024728D01*
X002589Y024753D01*
X002548Y024782D01*
X002509Y024813D01*
X002472Y024848D01*
X002438Y024885D01*
X002407Y024925D01*
X002379Y024967D01*
X002355Y025011D01*
X002334Y025057D01*
X002317Y025105D01*
X002304Y025153D01*
X002294Y025203D01*
X002288Y025253D01*
X002286Y025303D01*
D11*
X015141Y006799D03*
X026952Y006799D03*
D12*
X007110Y039597D03*
X005259Y040778D03*
X007110Y041959D03*
D13*
X020535Y006697D03*
D14*
X018789Y009754D02*
X018729Y009724D01*
X018665Y009705D01*
X018598Y009700D01*
X018531Y009706D01*
X018467Y009724D01*
X018408Y009755D01*
X018356Y009797D01*
X018313Y009848D01*
X018281Y009906D01*
X018261Y009970D01*
X018254Y010036D01*
X018260Y010105D01*
X018279Y010172D01*
X018312Y010233D01*
X018355Y010287D01*
X018409Y010332D01*
X018469Y010365D01*
X018536Y010386D01*
X018605Y010393D01*
X018673Y010385D01*
X018738Y010364D01*
X018798Y010330D01*
X018850Y010285D01*
X018892Y010232D01*
X018923Y010170D01*
X018941Y010104D01*
X018947Y010036D01*
X018939Y009969D01*
X018918Y009906D01*
X018885Y009847D01*
X018842Y009796D01*
X018789Y009754D01*
X018762Y009740D02*
X018437Y009740D01*
X018366Y009789D02*
X018833Y009789D01*
X018877Y009837D02*
X018322Y009837D01*
X018292Y009886D02*
X018907Y009886D01*
X018927Y009934D02*
X018272Y009934D01*
X018260Y009983D02*
X018940Y009983D01*
X018946Y010031D02*
X018254Y010031D01*
X018258Y010080D02*
X018943Y010080D01*
X018935Y010128D02*
X018267Y010128D01*
X018282Y010177D02*
X018920Y010177D01*
X018895Y010225D02*
X018307Y010225D01*
X018344Y010274D02*
X018859Y010274D01*
X018807Y010322D02*
X018397Y010322D01*
X018487Y010371D02*
X018716Y010371D01*
X018663Y010778D02*
X018596Y010772D01*
X018530Y010778D01*
X018466Y010797D01*
X018407Y010828D01*
X018356Y010870D01*
X018313Y010920D01*
X018281Y010979D01*
X018262Y011042D01*
X018255Y011108D01*
X018261Y011177D01*
X018281Y011243D01*
X018313Y011304D01*
X018357Y011358D01*
X018410Y011402D01*
X018471Y011435D01*
X018537Y011455D01*
X018606Y011462D01*
X018673Y011454D01*
X018737Y011434D01*
X018796Y011401D01*
X018847Y011358D01*
X018889Y011305D01*
X018920Y011245D01*
X018938Y011180D01*
X018944Y011113D01*
X018936Y011046D01*
X018916Y010982D01*
X018884Y010922D01*
X018840Y010870D01*
X018788Y010828D01*
X018728Y010797D01*
X018663Y010778D01*
X018748Y010807D02*
X018446Y010807D01*
X018373Y010856D02*
X018822Y010856D01*
X018869Y010904D02*
X018327Y010904D01*
X018296Y010953D02*
X018900Y010953D01*
X018922Y011001D02*
X018274Y011001D01*
X018261Y011050D02*
X018937Y011050D01*
X018942Y011098D02*
X018256Y011098D01*
X018258Y011147D02*
X018941Y011147D01*
X018934Y011195D02*
X018267Y011195D01*
X018281Y011244D02*
X018920Y011244D01*
X018895Y011292D02*
X018307Y011292D01*
X018343Y011341D02*
X018860Y011341D01*
X018810Y011389D02*
X018395Y011389D01*
X018481Y011438D02*
X018725Y011438D01*
X018660Y011846D02*
X018593Y011841D01*
X018527Y011847D01*
X018463Y011866D01*
X018405Y011898D01*
X018353Y011939D01*
X018311Y011991D01*
X018280Y012049D01*
X018260Y012112D01*
X018254Y012178D01*
X018260Y012246D01*
X018279Y012312D01*
X018310Y012372D01*
X018353Y012426D01*
X018406Y012469D01*
X018466Y012502D01*
X018531Y012523D01*
X018599Y012530D01*
X018667Y012523D01*
X018732Y012502D01*
X018792Y012469D01*
X018844Y012426D01*
X018887Y012372D01*
X018919Y012312D01*
X018938Y012246D01*
X018944Y012178D01*
X018936Y012111D01*
X018915Y012047D01*
X018882Y011988D01*
X018838Y011937D01*
X018785Y011895D01*
X018725Y011865D01*
X018660Y011846D01*
X018744Y011874D02*
X018449Y011874D01*
X018374Y011923D02*
X018820Y011923D01*
X018867Y011971D02*
X018327Y011971D01*
X018295Y012020D02*
X018900Y012020D01*
X018922Y012068D02*
X018274Y012068D01*
X018260Y012117D02*
X018936Y012117D01*
X018942Y012165D02*
X018255Y012165D01*
X018257Y012214D02*
X018941Y012214D01*
X018933Y012262D02*
X018264Y012262D01*
X018279Y012311D02*
X018919Y012311D01*
X018894Y012359D02*
X018304Y012359D01*
X018339Y012408D02*
X018858Y012408D01*
X018808Y012456D02*
X018390Y012456D01*
X018473Y012505D02*
X018724Y012505D01*
X016163Y012246D02*
X016169Y012178D01*
X016161Y012111D01*
X016140Y012047D01*
X016107Y011988D01*
X016063Y011937D01*
X016010Y011895D01*
X015950Y011865D01*
X015885Y011846D01*
X015818Y011841D01*
X015752Y011847D01*
X015688Y011866D01*
X015630Y011898D01*
X015579Y011939D01*
X015536Y011991D01*
X015505Y012049D01*
X015486Y012112D01*
X015479Y012178D01*
X015485Y012246D01*
X015504Y012312D01*
X015536Y012372D01*
X015578Y012426D01*
X015631Y012469D01*
X015691Y012502D01*
X015756Y012523D01*
X015824Y012530D01*
X015892Y012523D01*
X015957Y012502D01*
X016017Y012469D01*
X016069Y012426D01*
X016112Y012372D01*
X016144Y012312D01*
X016163Y012246D01*
X016158Y012262D02*
X015490Y012262D01*
X015482Y012214D02*
X016166Y012214D01*
X016167Y012165D02*
X015480Y012165D01*
X015485Y012117D02*
X016162Y012117D01*
X016147Y012068D02*
X015499Y012068D01*
X015521Y012020D02*
X016125Y012020D01*
X016093Y011971D02*
X015552Y011971D01*
X015599Y011923D02*
X016045Y011923D01*
X015969Y011874D02*
X015674Y011874D01*
X015762Y011455D02*
X015831Y011462D01*
X015898Y011454D01*
X015962Y011434D01*
X016021Y011401D01*
X016072Y011358D01*
X016114Y011305D01*
X016145Y011245D01*
X016163Y011180D01*
X016169Y011113D01*
X016162Y011046D01*
X016141Y010982D01*
X016109Y010922D01*
X016066Y010870D01*
X016013Y010828D01*
X015953Y010797D01*
X015888Y010778D01*
X015821Y010772D01*
X015755Y010778D01*
X015691Y010797D01*
X015632Y010828D01*
X015581Y010870D01*
X015538Y010920D01*
X015507Y010979D01*
X015487Y011042D01*
X015480Y011108D01*
X015486Y011177D01*
X015506Y011243D01*
X015538Y011304D01*
X015582Y011358D01*
X015635Y011402D01*
X015696Y011435D01*
X015762Y011455D01*
X015706Y011438D02*
X015950Y011438D01*
X016035Y011389D02*
X015620Y011389D01*
X015568Y011341D02*
X016086Y011341D01*
X016121Y011292D02*
X015532Y011292D01*
X015506Y011244D02*
X016145Y011244D01*
X016159Y011195D02*
X015492Y011195D01*
X015484Y011147D02*
X016166Y011147D01*
X016167Y011098D02*
X015481Y011098D01*
X015486Y011050D02*
X016162Y011050D01*
X016148Y011001D02*
X015500Y011001D01*
X015521Y010953D02*
X016126Y010953D01*
X016094Y010904D02*
X015552Y010904D01*
X015598Y010856D02*
X016047Y010856D01*
X015973Y010807D02*
X015672Y010807D01*
X015761Y010386D02*
X015830Y010393D01*
X015898Y010385D01*
X015963Y010364D01*
X016023Y010330D01*
X016075Y010285D01*
X016117Y010232D01*
X016148Y010170D01*
X016167Y010104D01*
X016172Y010036D01*
X016164Y009969D01*
X016143Y009906D01*
X016111Y009847D01*
X016067Y009796D01*
X016014Y009754D01*
X015954Y009724D01*
X015890Y009705D01*
X015823Y009700D01*
X015756Y009706D01*
X015692Y009724D01*
X015633Y009755D01*
X015581Y009797D01*
X015538Y009848D01*
X015506Y009906D01*
X015486Y009970D01*
X015479Y010036D01*
X015485Y010105D01*
X015505Y010172D01*
X015537Y010233D01*
X015580Y010287D01*
X015634Y010332D01*
X015695Y010365D01*
X015761Y010386D01*
X015713Y010371D02*
X015942Y010371D01*
X016032Y010322D02*
X015622Y010322D01*
X015569Y010274D02*
X016084Y010274D01*
X016120Y010225D02*
X015533Y010225D01*
X015507Y010177D02*
X016145Y010177D01*
X016160Y010128D02*
X015492Y010128D01*
X015483Y010080D02*
X016169Y010080D01*
X016171Y010031D02*
X015479Y010031D01*
X015485Y009983D02*
X016166Y009983D01*
X016153Y009934D02*
X015497Y009934D01*
X015518Y009886D02*
X016132Y009886D01*
X016102Y009837D02*
X015547Y009837D01*
X015591Y009789D02*
X016058Y009789D01*
X015987Y009740D02*
X015662Y009740D01*
X015504Y012311D02*
X016144Y012311D01*
X016119Y012359D02*
X015529Y012359D01*
X015564Y012408D02*
X016084Y012408D01*
X016033Y012456D02*
X015615Y012456D01*
X015699Y012505D02*
X015949Y012505D01*
D15*
X025741Y038258D03*
X027741Y038258D03*
D16*
X031301Y042578D03*
X032301Y042578D03*
X033301Y042578D03*
X034301Y042578D03*
X035301Y042578D03*
X036301Y042578D03*
D17*
X037886Y036038D02*
X038486Y036038D01*
X038486Y035038D02*
X037886Y035038D01*
X037886Y034038D02*
X038486Y034038D01*
X038486Y033038D02*
X037886Y033038D01*
X037886Y032038D02*
X038486Y032038D01*
X038486Y031038D02*
X037886Y031038D01*
X037886Y030038D02*
X038486Y030038D01*
X038486Y029038D02*
X037886Y029038D01*
X011441Y040584D02*
X010841Y040584D01*
X010841Y041584D02*
X011441Y041584D01*
X011441Y042584D02*
X010841Y042584D01*
X004211Y030630D02*
X003611Y030630D01*
X003611Y029630D02*
X004211Y029630D01*
X004211Y028630D02*
X003611Y028630D01*
X003611Y027630D02*
X004211Y027630D01*
D18*
X038307Y038025D03*
X039307Y038025D03*
X039307Y039025D03*
X038307Y039025D03*
X038307Y040025D03*
X039307Y040025D03*
D19*
X021538Y040664D03*
X021538Y041444D03*
X020554Y041444D03*
X020554Y040664D03*
D20*
X018676Y042514D03*
X023416Y042514D03*
X039156Y043413D03*
X039156Y025303D03*
X039156Y007193D03*
X002936Y007193D03*
X002936Y025303D03*
X002936Y043413D03*
D21*
X015393Y031098D03*
X015393Y030311D03*
X015393Y029523D03*
X015393Y028736D03*
X015393Y027948D03*
X015393Y027161D03*
X021484Y028679D03*
X024332Y031254D03*
X027593Y030031D03*
X027593Y029362D03*
X027593Y028693D03*
X018752Y034254D03*
X017752Y034254D03*
X016752Y034254D03*
M02*
