G75*
%MOIN*%
%OFA0B0*%
%FSLAX24Y24*%
%IPPOS*%
%LPD*%
%AMOC8*
5,1,8,0,0,1.08239X$1,22.5*
%
%ADD10C,0.0000*%
%ADD11C,0.1300*%
%ADD12C,0.1340*%
D10*
X004622Y004437D02*
X015382Y004437D01*
X015382Y013677D01*
X013342Y013677D01*
X013342Y017817D01*
X017422Y017817D01*
X017422Y015717D01*
X029182Y015717D01*
X029182Y017817D01*
X033262Y017817D01*
X033262Y013677D01*
X031222Y013677D01*
X031222Y004437D01*
X041992Y004437D01*
X042052Y004439D01*
X042113Y004444D01*
X042172Y004453D01*
X042231Y004466D01*
X042290Y004482D01*
X042347Y004502D01*
X042402Y004525D01*
X042457Y004552D01*
X042509Y004581D01*
X042560Y004614D01*
X042609Y004650D01*
X042655Y004688D01*
X042699Y004730D01*
X042741Y004774D01*
X042779Y004820D01*
X042815Y004869D01*
X042848Y004920D01*
X042877Y004972D01*
X042904Y005027D01*
X042927Y005082D01*
X042947Y005139D01*
X042963Y005198D01*
X042976Y005257D01*
X042985Y005316D01*
X042990Y005377D01*
X042992Y005437D01*
X042992Y024696D01*
X042990Y024756D01*
X042985Y024817D01*
X042976Y024876D01*
X042963Y024935D01*
X042947Y024994D01*
X042927Y025051D01*
X042904Y025106D01*
X042877Y025161D01*
X042848Y025213D01*
X042815Y025264D01*
X042779Y025313D01*
X042741Y025359D01*
X042699Y025403D01*
X042655Y025445D01*
X042609Y025483D01*
X042560Y025519D01*
X042509Y025552D01*
X042457Y025581D01*
X042402Y025608D01*
X042347Y025631D01*
X042290Y025651D01*
X042231Y025667D01*
X042172Y025680D01*
X042113Y025689D01*
X042052Y025694D01*
X041992Y025696D01*
X004622Y025696D01*
X004562Y025694D01*
X004501Y025689D01*
X004442Y025680D01*
X004383Y025667D01*
X004324Y025651D01*
X004267Y025631D01*
X004212Y025608D01*
X004157Y025581D01*
X004105Y025552D01*
X004054Y025519D01*
X004005Y025483D01*
X003959Y025445D01*
X003915Y025403D01*
X003873Y025359D01*
X003835Y025313D01*
X003799Y025264D01*
X003766Y025213D01*
X003737Y025161D01*
X003710Y025106D01*
X003687Y025051D01*
X003667Y024994D01*
X003651Y024935D01*
X003638Y024876D01*
X003629Y024817D01*
X003624Y024756D01*
X003622Y024696D01*
X003622Y005437D01*
X003624Y005377D01*
X003629Y005316D01*
X003638Y005257D01*
X003651Y005198D01*
X003667Y005139D01*
X003687Y005082D01*
X003710Y005027D01*
X003737Y004972D01*
X003766Y004920D01*
X003799Y004869D01*
X003835Y004820D01*
X003873Y004774D01*
X003915Y004730D01*
X003959Y004688D01*
X004005Y004650D01*
X004054Y004614D01*
X004105Y004581D01*
X004157Y004552D01*
X004212Y004525D01*
X004267Y004502D01*
X004324Y004482D01*
X004383Y004466D01*
X004442Y004453D01*
X004501Y004444D01*
X004562Y004439D01*
X004622Y004437D01*
X004547Y006011D02*
X004549Y006061D01*
X004555Y006111D01*
X004565Y006161D01*
X004578Y006209D01*
X004595Y006257D01*
X004616Y006303D01*
X004640Y006347D01*
X004668Y006389D01*
X004699Y006429D01*
X004733Y006466D01*
X004770Y006501D01*
X004809Y006532D01*
X004850Y006561D01*
X004894Y006586D01*
X004940Y006608D01*
X004987Y006626D01*
X005035Y006640D01*
X005084Y006651D01*
X005134Y006658D01*
X005184Y006661D01*
X005235Y006660D01*
X005285Y006655D01*
X005335Y006646D01*
X005383Y006634D01*
X005431Y006617D01*
X005477Y006597D01*
X005522Y006574D01*
X005565Y006547D01*
X005605Y006517D01*
X005643Y006484D01*
X005678Y006448D01*
X005711Y006409D01*
X005740Y006368D01*
X005766Y006325D01*
X005789Y006280D01*
X005808Y006233D01*
X005823Y006185D01*
X005835Y006136D01*
X005843Y006086D01*
X005847Y006036D01*
X005847Y005986D01*
X005843Y005936D01*
X005835Y005886D01*
X005823Y005837D01*
X005808Y005789D01*
X005789Y005742D01*
X005766Y005697D01*
X005740Y005654D01*
X005711Y005613D01*
X005678Y005574D01*
X005643Y005538D01*
X005605Y005505D01*
X005565Y005475D01*
X005522Y005448D01*
X005477Y005425D01*
X005431Y005405D01*
X005383Y005388D01*
X005335Y005376D01*
X005285Y005367D01*
X005235Y005362D01*
X005184Y005361D01*
X005134Y005364D01*
X005084Y005371D01*
X005035Y005382D01*
X004987Y005396D01*
X004940Y005414D01*
X004894Y005436D01*
X004850Y005461D01*
X004809Y005490D01*
X004770Y005521D01*
X004733Y005556D01*
X004699Y005593D01*
X004668Y005633D01*
X004640Y005675D01*
X004616Y005719D01*
X004595Y005765D01*
X004578Y005813D01*
X004565Y005861D01*
X004555Y005911D01*
X004549Y005961D01*
X004547Y006011D01*
X013228Y006405D02*
X013230Y006455D01*
X013236Y006505D01*
X013246Y006554D01*
X013260Y006602D01*
X013277Y006649D01*
X013298Y006694D01*
X013323Y006738D01*
X013351Y006779D01*
X013383Y006818D01*
X013417Y006855D01*
X013454Y006889D01*
X013494Y006919D01*
X013536Y006946D01*
X013580Y006970D01*
X013626Y006991D01*
X013673Y007007D01*
X013721Y007020D01*
X013771Y007029D01*
X013820Y007034D01*
X013871Y007035D01*
X013921Y007032D01*
X013970Y007025D01*
X014019Y007014D01*
X014067Y006999D01*
X014113Y006981D01*
X014158Y006959D01*
X014201Y006933D01*
X014242Y006904D01*
X014281Y006872D01*
X014317Y006837D01*
X014349Y006799D01*
X014379Y006759D01*
X014406Y006716D01*
X014429Y006672D01*
X014448Y006626D01*
X014464Y006578D01*
X014476Y006529D01*
X014484Y006480D01*
X014488Y006430D01*
X014488Y006380D01*
X014484Y006330D01*
X014476Y006281D01*
X014464Y006232D01*
X014448Y006184D01*
X014429Y006138D01*
X014406Y006094D01*
X014379Y006051D01*
X014349Y006011D01*
X014317Y005973D01*
X014281Y005938D01*
X014242Y005906D01*
X014201Y005877D01*
X014158Y005851D01*
X014113Y005829D01*
X014067Y005811D01*
X014019Y005796D01*
X013970Y005785D01*
X013921Y005778D01*
X013871Y005775D01*
X013820Y005776D01*
X013771Y005781D01*
X013721Y005790D01*
X013673Y005803D01*
X013626Y005819D01*
X013580Y005840D01*
X013536Y005864D01*
X013494Y005891D01*
X013454Y005921D01*
X013417Y005955D01*
X013383Y005992D01*
X013351Y006031D01*
X013323Y006072D01*
X013298Y006116D01*
X013277Y006161D01*
X013260Y006208D01*
X013246Y006256D01*
X013236Y006305D01*
X013230Y006355D01*
X013228Y006405D01*
X032126Y006405D02*
X032128Y006455D01*
X032134Y006505D01*
X032144Y006554D01*
X032158Y006602D01*
X032175Y006649D01*
X032196Y006694D01*
X032221Y006738D01*
X032249Y006779D01*
X032281Y006818D01*
X032315Y006855D01*
X032352Y006889D01*
X032392Y006919D01*
X032434Y006946D01*
X032478Y006970D01*
X032524Y006991D01*
X032571Y007007D01*
X032619Y007020D01*
X032669Y007029D01*
X032718Y007034D01*
X032769Y007035D01*
X032819Y007032D01*
X032868Y007025D01*
X032917Y007014D01*
X032965Y006999D01*
X033011Y006981D01*
X033056Y006959D01*
X033099Y006933D01*
X033140Y006904D01*
X033179Y006872D01*
X033215Y006837D01*
X033247Y006799D01*
X033277Y006759D01*
X033304Y006716D01*
X033327Y006672D01*
X033346Y006626D01*
X033362Y006578D01*
X033374Y006529D01*
X033382Y006480D01*
X033386Y006430D01*
X033386Y006380D01*
X033382Y006330D01*
X033374Y006281D01*
X033362Y006232D01*
X033346Y006184D01*
X033327Y006138D01*
X033304Y006094D01*
X033277Y006051D01*
X033247Y006011D01*
X033215Y005973D01*
X033179Y005938D01*
X033140Y005906D01*
X033099Y005877D01*
X033056Y005851D01*
X033011Y005829D01*
X032965Y005811D01*
X032917Y005796D01*
X032868Y005785D01*
X032819Y005778D01*
X032769Y005775D01*
X032718Y005776D01*
X032669Y005781D01*
X032619Y005790D01*
X032571Y005803D01*
X032524Y005819D01*
X032478Y005840D01*
X032434Y005864D01*
X032392Y005891D01*
X032352Y005921D01*
X032315Y005955D01*
X032281Y005992D01*
X032249Y006031D01*
X032221Y006072D01*
X032196Y006116D01*
X032175Y006161D01*
X032158Y006208D01*
X032144Y006256D01*
X032134Y006305D01*
X032128Y006355D01*
X032126Y006405D01*
X040767Y006011D02*
X040769Y006061D01*
X040775Y006111D01*
X040785Y006161D01*
X040798Y006209D01*
X040815Y006257D01*
X040836Y006303D01*
X040860Y006347D01*
X040888Y006389D01*
X040919Y006429D01*
X040953Y006466D01*
X040990Y006501D01*
X041029Y006532D01*
X041070Y006561D01*
X041114Y006586D01*
X041160Y006608D01*
X041207Y006626D01*
X041255Y006640D01*
X041304Y006651D01*
X041354Y006658D01*
X041404Y006661D01*
X041455Y006660D01*
X041505Y006655D01*
X041555Y006646D01*
X041603Y006634D01*
X041651Y006617D01*
X041697Y006597D01*
X041742Y006574D01*
X041785Y006547D01*
X041825Y006517D01*
X041863Y006484D01*
X041898Y006448D01*
X041931Y006409D01*
X041960Y006368D01*
X041986Y006325D01*
X042009Y006280D01*
X042028Y006233D01*
X042043Y006185D01*
X042055Y006136D01*
X042063Y006086D01*
X042067Y006036D01*
X042067Y005986D01*
X042063Y005936D01*
X042055Y005886D01*
X042043Y005837D01*
X042028Y005789D01*
X042009Y005742D01*
X041986Y005697D01*
X041960Y005654D01*
X041931Y005613D01*
X041898Y005574D01*
X041863Y005538D01*
X041825Y005505D01*
X041785Y005475D01*
X041742Y005448D01*
X041697Y005425D01*
X041651Y005405D01*
X041603Y005388D01*
X041555Y005376D01*
X041505Y005367D01*
X041455Y005362D01*
X041404Y005361D01*
X041354Y005364D01*
X041304Y005371D01*
X041255Y005382D01*
X041207Y005396D01*
X041160Y005414D01*
X041114Y005436D01*
X041070Y005461D01*
X041029Y005490D01*
X040990Y005521D01*
X040953Y005556D01*
X040919Y005593D01*
X040888Y005633D01*
X040860Y005675D01*
X040836Y005719D01*
X040815Y005765D01*
X040798Y005813D01*
X040785Y005861D01*
X040775Y005911D01*
X040769Y005961D01*
X040767Y006011D01*
X040767Y024122D02*
X040769Y024172D01*
X040775Y024222D01*
X040785Y024272D01*
X040798Y024320D01*
X040815Y024368D01*
X040836Y024414D01*
X040860Y024458D01*
X040888Y024500D01*
X040919Y024540D01*
X040953Y024577D01*
X040990Y024612D01*
X041029Y024643D01*
X041070Y024672D01*
X041114Y024697D01*
X041160Y024719D01*
X041207Y024737D01*
X041255Y024751D01*
X041304Y024762D01*
X041354Y024769D01*
X041404Y024772D01*
X041455Y024771D01*
X041505Y024766D01*
X041555Y024757D01*
X041603Y024745D01*
X041651Y024728D01*
X041697Y024708D01*
X041742Y024685D01*
X041785Y024658D01*
X041825Y024628D01*
X041863Y024595D01*
X041898Y024559D01*
X041931Y024520D01*
X041960Y024479D01*
X041986Y024436D01*
X042009Y024391D01*
X042028Y024344D01*
X042043Y024296D01*
X042055Y024247D01*
X042063Y024197D01*
X042067Y024147D01*
X042067Y024097D01*
X042063Y024047D01*
X042055Y023997D01*
X042043Y023948D01*
X042028Y023900D01*
X042009Y023853D01*
X041986Y023808D01*
X041960Y023765D01*
X041931Y023724D01*
X041898Y023685D01*
X041863Y023649D01*
X041825Y023616D01*
X041785Y023586D01*
X041742Y023559D01*
X041697Y023536D01*
X041651Y023516D01*
X041603Y023499D01*
X041555Y023487D01*
X041505Y023478D01*
X041455Y023473D01*
X041404Y023472D01*
X041354Y023475D01*
X041304Y023482D01*
X041255Y023493D01*
X041207Y023507D01*
X041160Y023525D01*
X041114Y023547D01*
X041070Y023572D01*
X041029Y023601D01*
X040990Y023632D01*
X040953Y023667D01*
X040919Y023704D01*
X040888Y023744D01*
X040860Y023786D01*
X040836Y023830D01*
X040815Y023876D01*
X040798Y023924D01*
X040785Y023972D01*
X040775Y024022D01*
X040769Y024072D01*
X040767Y024122D01*
X004547Y024122D02*
X004549Y024172D01*
X004555Y024222D01*
X004565Y024272D01*
X004578Y024320D01*
X004595Y024368D01*
X004616Y024414D01*
X004640Y024458D01*
X004668Y024500D01*
X004699Y024540D01*
X004733Y024577D01*
X004770Y024612D01*
X004809Y024643D01*
X004850Y024672D01*
X004894Y024697D01*
X004940Y024719D01*
X004987Y024737D01*
X005035Y024751D01*
X005084Y024762D01*
X005134Y024769D01*
X005184Y024772D01*
X005235Y024771D01*
X005285Y024766D01*
X005335Y024757D01*
X005383Y024745D01*
X005431Y024728D01*
X005477Y024708D01*
X005522Y024685D01*
X005565Y024658D01*
X005605Y024628D01*
X005643Y024595D01*
X005678Y024559D01*
X005711Y024520D01*
X005740Y024479D01*
X005766Y024436D01*
X005789Y024391D01*
X005808Y024344D01*
X005823Y024296D01*
X005835Y024247D01*
X005843Y024197D01*
X005847Y024147D01*
X005847Y024097D01*
X005843Y024047D01*
X005835Y023997D01*
X005823Y023948D01*
X005808Y023900D01*
X005789Y023853D01*
X005766Y023808D01*
X005740Y023765D01*
X005711Y023724D01*
X005678Y023685D01*
X005643Y023649D01*
X005605Y023616D01*
X005565Y023586D01*
X005522Y023559D01*
X005477Y023536D01*
X005431Y023516D01*
X005383Y023499D01*
X005335Y023487D01*
X005285Y023478D01*
X005235Y023473D01*
X005184Y023472D01*
X005134Y023475D01*
X005084Y023482D01*
X005035Y023493D01*
X004987Y023507D01*
X004940Y023525D01*
X004894Y023547D01*
X004850Y023572D01*
X004809Y023601D01*
X004770Y023632D01*
X004733Y023667D01*
X004699Y023704D01*
X004668Y023744D01*
X004640Y023786D01*
X004616Y023830D01*
X004595Y023876D01*
X004578Y023924D01*
X004565Y023972D01*
X004555Y024022D01*
X004549Y024072D01*
X004547Y024122D01*
D11*
X013858Y006405D03*
X032756Y006405D03*
D12*
X041417Y006011D03*
X041417Y024122D03*
X005197Y024122D03*
X005197Y006011D03*
M02*
